<svg width="28" height="27" viewBox="0 0 28 27" fill="none" xmlns="http://www.w3.org/2000/svg">
<path d="M8.63231 0C10.1173 0 11.5568 0.416813 12.7971 1.18463C14.6496 0.98745 16.5227 1.20597 18.2801 1.82426C20.0375 2.44256 21.6349 3.44506 22.9558 4.75875C24.1138 5.9133 25.0328 7.28482 25.6603 8.79486C26.2878 10.3049 26.6114 11.9238 26.6126 13.5591C26.6126 14.1396 26.5721 14.7184 26.4911 15.2904C27.153 16.4655 27.5016 17.791 27.5036 19.1396C27.5036 20.1728 27.2994 21.1958 26.9026 22.1497C26.5059 23.1037 25.9244 23.9698 25.1918 24.6982C23.7117 26.1741 21.7064 27.002 19.6163 27C18.1988 27 16.8184 26.6186 15.6169 25.9132C13.7403 26.1373 11.8374 25.9338 10.0506 25.3181C8.26389 24.7023 6.63962 23.6903 5.2995 22.3577C4.14185 21.2032 3.22304 19.832 2.59559 18.3222C1.96813 16.8125 1.64433 15.194 1.64269 13.5591C1.64269 12.9465 1.68656 12.3373 1.77769 11.7349C0.926332 10.2398 0.590646 8.50607 0.822427 6.80126C1.05421 5.09644 1.84058 3.51528 3.06019 2.30175C4.5397 0.828262 6.54254 0.000671918 8.63063 0L8.63231 0ZM9.38663 11.8294C9.69038 12.3508 10.1123 12.7946 10.6168 13.1271C11.2852 13.5645 11.9958 13.9336 12.738 14.229C13.5683 14.5749 14.2112 14.8702 14.6702 15.1116C15.0566 15.3006 15.4076 15.5571 15.708 15.8676C15.9358 16.1072 16.0624 16.4261 16.0624 16.7586C16.0719 16.9922 16.0255 17.2248 15.9272 17.4369C15.8289 17.6491 15.6815 17.8348 15.4971 17.9786C15.006 18.3094 14.4171 18.4663 13.8264 18.4241C13.2193 18.431 12.6173 18.3127 12.0579 18.0765C11.7551 17.9419 11.4557 17.7996 11.1602 17.6496C10.8549 17.4874 10.5153 17.4006 10.1696 17.3964C9.86019 17.3836 9.5576 17.4899 9.32419 17.6934C9.21263 17.7995 9.12542 17.9285 9.06861 18.0716C9.0118 18.2146 8.98672 18.3683 8.99513 18.522C8.98804 18.813 9.07569 19.0985 9.24487 19.3354C9.44894 19.5942 9.71309 19.7992 10.0144 19.9328C11.1906 20.4428 12.4658 20.6844 13.7471 20.6398C14.6802 20.6584 15.6089 20.5069 16.4876 20.1926C17.2164 19.934 17.8511 19.4633 18.3101 18.8409C18.7607 18.1828 18.9885 17.3981 18.9615 16.6016C18.9791 15.9507 18.8161 15.3077 18.4907 14.7437C18.1603 14.2076 17.7154 13.7512 17.1879 13.4072C16.5194 12.9759 15.81 12.6113 15.0701 12.3188C14.9911 12.2801 14.9093 12.2474 14.8254 12.2209C14.2481 11.9868 13.678 11.7353 13.116 11.4666C12.7749 11.3064 12.466 11.085 12.2048 10.8135C11.9852 10.5824 11.8641 10.275 11.8673 9.95625C11.8564 9.71336 11.911 9.47201 12.0253 9.25741C12.1396 9.0428 12.3094 8.8628 12.5169 8.73619C13.0097 8.44239 13.5771 8.29762 14.1504 8.31938C14.5892 8.31431 15.0279 8.37 15.4532 8.48137C15.9156 8.61469 16.3678 8.78006 16.8066 8.97581C16.9838 9.0585 17.1778 9.10238 17.3736 9.10406C17.5164 9.10758 17.6583 9.08083 17.7901 9.02557C17.9219 8.97031 18.0404 8.88779 18.138 8.78344C18.3461 8.5557 18.4554 8.25466 18.4418 7.94644C18.4468 7.65274 18.3448 7.36724 18.1549 7.14319C17.8952 6.87088 17.5732 6.66586 17.2166 6.54581C16.8296 6.40357 16.4294 6.30012 16.0219 6.237C15.4518 6.14371 14.8748 6.09967 14.2973 6.10538C13.4146 6.09977 12.5376 6.24707 11.7053 6.54075C10.9396 6.79898 10.256 7.25547 9.72412 7.86375C9.21244 8.46962 8.94208 9.24286 8.96475 10.0356C8.94788 10.6599 9.093 11.2776 9.38663 11.8294Z" fill="#5C9FFF"/>
</svg>
