<svg width="28" height="21" viewBox="0 0 28 21" fill="none" xmlns="http://www.w3.org/2000/svg">
<path d="M0.625 3.75C0.625 2.85489 0.980579 1.99645 1.61351 1.36351C2.24645 0.730579 3.10489 0.375 4 0.375H24.25C25.1451 0.375 26.0035 0.730579 26.6365 1.36351C27.2694 1.99645 27.625 2.85489 27.625 3.75V17.25C27.625 18.1451 27.2694 19.0035 26.6365 19.6365C26.0035 20.2694 25.1451 20.625 24.25 20.625H4C3.10489 20.625 2.24645 20.2694 1.61351 19.6365C0.980579 19.0035 0.625 18.1451 0.625 17.25V3.75ZM4 2.0625C3.55245 2.0625 3.12322 2.24029 2.80676 2.55676C2.49029 2.87322 2.3125 3.30245 2.3125 3.75V4.11619L14.125 11.2037L25.9375 4.11619V3.75C25.9375 3.30245 25.7597 2.87322 25.4432 2.55676C25.1268 2.24029 24.6976 2.0625 24.25 2.0625H4ZM25.9375 6.08381L17.9084 10.9016L25.9375 15.7549V6.0855V6.08381ZM25.8801 17.6904L16.2698 11.8837L14.125 13.1713L11.9785 11.8837L2.36988 17.6888C2.4664 18.0472 2.67843 18.3639 2.97314 18.5896C3.26784 18.8154 3.62876 18.9376 4 18.9375H24.25C24.621 18.9377 24.9818 18.8157 25.2764 18.5903C25.5711 18.3649 25.7833 18.0486 25.8801 17.6904ZM2.3125 15.7549L10.3416 10.9016L2.3125 6.08381V15.7532V15.7549Z" fill="#F5CE9D"/>
</svg>
