<svg width="28" height="27" viewBox="0 0 28 27" fill="none" xmlns="http://www.w3.org/2000/svg">
<path d="M27.875 13.5C27.875 17.0804 26.4527 20.5142 23.9209 23.0459C21.3892 25.5777 17.9554 27 14.375 27C10.7946 27 7.3608 25.5777 4.82906 23.0459C2.29732 20.5142 0.875 17.0804 0.875 13.5C0.875 9.91958 2.29732 6.4858 4.82906 3.95406C7.3608 1.42232 10.7946 0 14.375 0C17.9554 0 21.3892 1.42232 23.9209 3.95406C26.4527 6.4858 27.875 9.91958 27.875 13.5ZM14.8593 9.96638C13.5464 10.5131 10.9207 11.6438 6.98544 13.3582C6.34756 13.6114 6.01175 13.8611 5.98138 14.1041C5.93075 14.5142 6.44544 14.6762 7.14575 14.8973L7.44106 14.9901C8.12956 15.2145 9.05769 15.4761 9.53862 15.4862C9.97738 15.4963 10.4651 15.3174 11.0034 14.9462C14.6804 12.4639 16.5789 11.2101 16.697 11.1831C16.7814 11.1628 16.8995 11.1392 16.9771 11.2101C17.0564 11.2793 17.048 11.4126 17.0396 11.448C16.9889 11.6657 14.969 13.5422 13.9244 14.5142C13.5988 14.8179 13.3676 15.0323 13.3203 15.0812C13.2163 15.1875 13.1105 15.2922 13.0031 15.3951C12.3618 16.0127 11.8826 16.4751 13.0284 17.2311C13.5802 17.5956 14.0223 17.8942 14.4628 18.1946C14.942 18.522 15.4212 18.8477 16.0422 19.2561C16.1992 19.3573 16.3511 19.467 16.4979 19.5716C17.0564 19.9699 17.561 20.3276 18.1803 20.2703C18.5414 20.2365 18.9144 19.899 19.1034 18.8865C19.5506 16.4953 20.4298 11.3164 20.6322 9.18169C20.6446 9.00423 20.6372 8.82596 20.6103 8.65012C20.5944 8.50824 20.5258 8.37752 20.4179 8.28394C20.2644 8.17795 20.0813 8.12303 19.8948 8.127C19.3886 8.13544 18.6073 8.40713 14.8593 9.96638Z" fill="#66A8FB"/>
</svg>
