<svg width="27" height="30" viewBox="0 0 27 30" fill="none" xmlns="http://www.w3.org/2000/svg">
<path d="M13.5 1.92252e-07C13.7008 -0.00012679 13.8966 0.0626529 14.0601 0.17958C14.2237 0.296506 14.3468 0.461747 14.4122 0.652246L15.5173 3.87089H25.0714C25.5829 3.87089 26.0735 4.07481 26.4351 4.43777C26.7968 4.80074 27 5.29303 27 5.80634V19.3545C27 19.8678 26.7968 20.3601 26.4351 20.723C26.0735 21.086 25.5829 21.2899 25.0714 21.2899H21.5036L24.0551 28.7162C24.1384 28.959 24.1223 29.2251 24.0102 29.456C23.8981 29.6868 23.6992 29.8635 23.4572 29.9472C23.2153 30.0308 22.9501 30.0146 22.7201 29.9021C22.4901 29.7896 22.314 29.59 22.2306 29.3472L19.4631 21.2899H14.4643V27.0963C14.4643 27.3529 14.3627 27.5991 14.1819 27.7805C14.001 27.962 13.7557 28.064 13.5 28.064C13.2443 28.064 12.999 27.962 12.8181 27.7805C12.6373 27.5991 12.5357 27.3529 12.5357 27.0963V21.2899H7.53686L4.76936 29.3472C4.68598 29.59 4.50992 29.7896 4.27989 29.9021C4.04986 30.0146 3.78472 30.0308 3.54279 29.9472C3.30085 29.8635 3.10195 29.6868 2.98983 29.456C2.87771 29.2251 2.86156 28.959 2.94493 28.7162L5.49643 21.2899H1.92857C1.41708 21.2899 0.926543 21.086 0.564865 20.723C0.203188 20.3601 0 19.8678 0 19.3545V5.80634C0 5.29303 0.203188 4.80074 0.564865 4.43777C0.926543 4.07481 1.41708 3.87089 1.92857 3.87089H11.4827L12.5878 0.652246C12.6532 0.461747 12.7763 0.296506 12.9399 0.17958C13.1034 0.0626529 13.2992 -0.00012679 13.5 1.92252e-07ZM1.92857 5.80634V19.3545H25.0714V5.80634H1.92857Z" fill="white"/>
</svg>
