<svg width="36" height="23" viewBox="0 0 36 23" fill="none" xmlns="http://www.w3.org/2000/svg">
<path fill-rule="evenodd" clip-rule="evenodd" d="M0 4.6C0 3.38 0.474106 2.20998 1.31802 1.34731C2.16193 0.484641 3.30653 3.18578e-08 4.5 3.18578e-08H21.375C22.4665 -0.00013121 23.5208 0.405243 24.3416 1.14063C25.1624 1.87602 25.6938 2.8913 25.8368 3.9974L32.8343 0.8188C33.1768 0.662795 33.552 0.596766 33.9258 0.626717C34.2996 0.656667 34.6602 0.781646 34.9748 0.990294C35.2893 1.19894 35.5479 1.48464 35.7269 1.82142C35.906 2.15821 35.9998 2.53539 36 2.9187V20.0813C35.9997 20.4643 35.9058 20.8412 35.7269 21.1777C35.5479 21.5142 35.2896 21.7997 34.9754 22.0083C34.6611 22.2169 34.3009 22.3419 33.9274 22.3721C33.5539 22.4023 33.1789 22.3367 32.8365 22.1812L25.8368 19.0026C25.6938 20.1087 25.1624 21.124 24.3416 21.8594C23.5208 22.5948 22.4665 23.0001 21.375 23H4.5C3.30653 23 2.16193 22.5154 1.31802 21.6527C0.474106 20.79 0 19.62 0 18.4V4.6ZM25.875 16.5025L33.75 20.0813V2.9187L25.875 6.4975V16.5025ZM4.5 2.3C3.90326 2.3 3.33097 2.54232 2.90901 2.97365C2.48705 3.40499 2.25 3.99 2.25 4.6V18.4C2.25 19.01 2.48705 19.595 2.90901 20.0263C3.33097 20.4577 3.90326 20.7 4.5 20.7H21.375C21.9717 20.7 22.544 20.4577 22.966 20.0263C23.3879 19.595 23.625 19.01 23.625 18.4V4.6C23.625 3.99 23.3879 3.40499 22.966 2.97365C22.544 2.54232 21.9717 2.3 21.375 2.3H4.5Z" fill="white"/>
</svg>
