<svg width="26" height="26" viewBox="0 0 26 26" fill="none" xmlns="http://www.w3.org/2000/svg">
<path fill-rule="evenodd" clip-rule="evenodd" d="M0 0H1.625V24.375H26V26H0V0ZM16.25 5.6875C16.25 5.47201 16.3356 5.26535 16.488 5.11298C16.6403 4.9606 16.847 4.875 17.0625 4.875H23.5625C23.778 4.875 23.9847 4.9606 24.137 5.11298C24.2894 5.26535 24.375 5.47201 24.375 5.6875V12.1875C24.375 12.403 24.2894 12.6097 24.137 12.762C23.9847 12.9144 23.778 13 23.5625 13C23.347 13 23.1403 12.9144 22.988 12.762C22.8356 12.6097 22.75 12.403 22.75 12.1875V7.9625L16.8789 15.1401C16.807 15.2279 16.7176 15.2996 16.6163 15.3506C16.515 15.4017 16.4042 15.431 16.291 15.4367C16.1777 15.4424 16.0645 15.4242 15.9586 15.3835C15.8528 15.3428 15.7566 15.2804 15.6764 15.2003L11.4725 10.9964L5.5315 19.1652C5.40154 19.3305 5.21257 19.439 5.00432 19.4678C4.79607 19.4967 4.58475 19.4437 4.41475 19.3199C4.24476 19.1962 4.12934 19.0115 4.09274 18.8044C4.05614 18.5974 4.10122 18.3842 4.2185 18.2098L10.7185 9.27225C10.7875 9.17721 10.8763 9.09826 10.9787 9.04083C11.0812 8.9834 11.1948 8.94886 11.3119 8.9396C11.429 8.93033 11.5467 8.94655 11.6569 8.98715C11.7671 9.02775 11.8672 9.09175 11.9503 9.17475L16.1899 13.416L21.8481 6.5H17.0625C16.847 6.5 16.6403 6.4144 16.488 6.26202C16.3356 6.10965 16.25 5.90299 16.25 5.6875Z" fill="white"/>
</svg>
