<svg width="19" height="25" viewBox="0 0 19 25" fill="none" xmlns="http://www.w3.org/2000/svg">
<path d="M11.8438 0H3.25C2.4212 0 1.62634 0.32924 1.04029 0.915291C0.45424 1.50134 0.125 2.2962 0.125 3.125V21.875C0.125 22.7038 0.45424 23.4987 1.04029 24.0847C1.62634 24.6708 2.4212 25 3.25 25H15.75C16.5788 25 17.3737 24.6708 17.9597 24.0847C18.5458 23.4987 18.875 22.7038 18.875 21.875V7.03125L11.8438 0ZM11.8438 1.5625V4.6875C11.8438 5.3091 12.0907 5.90524 12.5302 6.34478C12.9698 6.78432 13.5659 7.03125 14.1875 7.03125H17.3125V21.875C17.3125 22.2894 17.1479 22.6868 16.8549 22.9799C16.5618 23.2729 16.1644 23.4375 15.75 23.4375H3.25C2.8356 23.4375 2.43817 23.2729 2.14515 22.9799C1.85212 22.6868 1.6875 22.2894 1.6875 21.875V3.125C1.6875 2.7106 1.85212 2.31317 2.14515 2.02015C2.43817 1.72712 2.8356 1.5625 3.25 1.5625H11.8438Z" fill="white"/>
</svg>
