<svg width="35" height="35" viewBox="0 0 35 35" fill="none" xmlns="http://www.w3.org/2000/svg">
<path d="M0 17.5C0 12.8587 1.84374 8.40752 5.12563 5.12563C8.40752 1.84374 12.8587 0 17.5 0C22.1413 0 26.5925 1.84374 29.8744 5.12563C33.1563 8.40752 35 12.8587 35 17.5C35 22.1413 33.1563 26.5925 29.8744 29.8744C26.5925 33.1563 22.1413 35 17.5 35C12.8587 35 8.40752 33.1563 5.12563 29.8744C1.84374 26.5925 0 22.1413 0 17.5ZM16.4062 2.35594C14.9406 2.80219 13.4859 4.14969 12.2784 6.41375C11.8806 7.16646 11.5384 7.9473 11.2547 8.75H16.4062V2.35594ZM8.94688 8.75C9.31147 7.58804 9.78003 6.46129 10.3469 5.38344C10.7251 4.66825 11.1619 3.9856 11.6528 3.3425C8.94251 4.4665 6.61064 6.34292 4.93281 8.75H8.94688ZM7.67375 16.4062C7.73937 14.4878 7.97563 12.6481 8.35625 10.9375H3.66188C2.8462 12.6548 2.35947 14.5097 2.22688 16.4062H7.67375ZM10.6028 10.9375C10.1726 12.7308 9.92484 14.5631 9.86344 16.4062H16.4062V10.9375H10.6028ZM18.5938 10.9375V16.4062H25.1344C25.0738 14.5631 24.8268 12.7309 24.3972 10.9375H18.5938ZM9.86563 18.5938C9.92632 20.4369 10.1733 22.2691 10.6028 24.0625H16.4062V18.5938H9.86563ZM18.5938 18.5938V24.0625H24.3972C24.8062 22.3891 25.0666 20.545 25.1366 18.5938H18.5938ZM11.2547 26.25C11.5566 27.0944 11.9 27.8775 12.2784 28.5863C13.4859 30.8503 14.9428 32.1956 16.4062 32.6441V26.25H11.2547ZM11.6528 31.6575C11.1619 31.0144 10.7251 30.3318 10.3469 29.6166C9.78004 28.5387 9.31148 27.412 8.94688 26.25H4.93281C6.61055 28.6572 8.94244 30.5336 11.6528 31.6575ZM8.35625 24.0625C7.96067 22.2645 7.7322 20.4338 7.67375 18.5938H2.22688C2.3625 20.5406 2.86344 22.3847 3.66188 24.0625H8.35625ZM23.3472 31.6575C26.0576 30.5336 28.3895 28.6572 30.0672 26.25H26.0531C25.6885 27.4119 25.2199 28.5387 24.6531 29.6166C24.275 30.3318 23.8382 31.0145 23.3472 31.6575ZM18.5938 26.25V32.6441C20.0594 32.1978 21.5141 30.8503 22.7216 28.5863C23.1 27.8775 23.4434 27.0944 23.7453 26.25H18.5938ZM26.6438 24.0625H31.3381C32.1366 22.3847 32.6375 20.5406 32.7731 18.5938H27.3263C27.2678 20.4338 27.0394 22.2645 26.6438 24.0625ZM32.7731 16.4062C32.6405 14.5097 32.1538 12.6548 31.3381 10.9375H26.6438C27.0244 12.6481 27.2606 14.4878 27.3263 16.4062H32.7731ZM24.6531 5.38344C25.1934 6.39844 25.6637 7.52719 26.0531 8.75H30.0672C28.3895 6.34284 26.0576 4.46639 23.3472 3.3425C23.8241 3.96375 24.2616 4.65062 24.6531 5.38344ZM23.7453 8.75C23.4616 7.94729 23.1194 7.16645 22.7216 6.41375C21.5141 4.14969 20.0594 2.80437 18.5938 2.35594V8.75H23.7453Z" fill="white"/>
</svg>
