<svg width="14" height="14" viewBox="0 0 14 14" fill="none" xmlns="http://www.w3.org/2000/svg">
<g clip-path="url(#clip0)">
<path d="M12.25 0.875C12.4821 0.875 12.7046 0.967187 12.8687 1.13128C13.0328 1.29538 13.125 1.51794 13.125 1.75V12.25C13.125 12.4821 13.0328 12.7046 12.8687 12.8687C12.7046 13.0328 12.4821 13.125 12.25 13.125H1.75C1.51794 13.125 1.29538 13.0328 1.13128 12.8687C0.967187 12.7046 0.875 12.4821 0.875 12.25V1.75C0.875 1.51794 0.967187 1.29538 1.13128 1.13128C1.29538 0.967187 1.51794 0.875 1.75 0.875H12.25ZM1.75 0C1.28587 0 0.840752 0.184374 0.512563 0.512563C0.184374 0.840752 0 1.28587 0 1.75L0 12.25C0 12.7141 0.184374 13.1592 0.512563 13.4874C0.840752 13.8156 1.28587 14 1.75 14H12.25C12.7141 14 13.1592 13.8156 13.4874 13.4874C13.8156 13.1592 14 12.7141 14 12.25V1.75C14 1.28587 13.8156 0.840752 13.4874 0.512563C13.1592 0.184374 12.7141 0 12.25 0L1.75 0Z" fill="#FC7318"/>
<path d="M7.81371 5.7645L5.80996 6.01562L5.73821 6.34812L6.13196 6.42075C6.38921 6.482 6.43996 6.57475 6.38396 6.83113L5.73821 9.86562C5.56846 10.6505 5.83008 11.0197 6.44521 11.0197C6.92208 11.0197 7.47596 10.7993 7.72708 10.4965L7.80408 10.1325C7.62908 10.2865 7.37358 10.3478 7.20383 10.3478C6.96321 10.3478 6.87571 10.1789 6.93783 9.88138L7.81371 5.7645ZM7.87496 3.9375C7.87496 4.16956 7.78277 4.39212 7.61868 4.55622C7.45458 4.72031 7.23202 4.8125 6.99996 4.8125C6.76789 4.8125 6.54533 4.72031 6.38124 4.55622C6.21715 4.39212 6.12496 4.16956 6.12496 3.9375C6.12496 3.70544 6.21715 3.48288 6.38124 3.31878C6.54533 3.15469 6.76789 3.0625 6.99996 3.0625C7.23202 3.0625 7.45458 3.15469 7.61868 3.31878C7.78277 3.48288 7.87496 3.70544 7.87496 3.9375Z" fill="#FC7318"/>
</g>
<defs>
<clipPath id="clip0">
<rect width="14" height="14" fill="white"/>
</clipPath>
</defs>
</svg>
