<svg width="34" height="34" viewBox="0 0 34 34" fill="none" xmlns="http://www.w3.org/2000/svg">
<g clip-path="url(#clip0)">
<path d="M30.8125 6.375C31.0943 6.375 31.3645 6.48694 31.5638 6.6862C31.7631 6.88546 31.875 7.15571 31.875 7.4375V26.5625C31.875 26.8443 31.7631 27.1145 31.5638 27.3138C31.3645 27.5131 31.0943 27.625 30.8125 27.625H3.1875C2.90571 27.625 2.63546 27.5131 2.4362 27.3138C2.23694 27.1145 2.125 26.8443 2.125 26.5625V7.4375C2.125 7.15571 2.23694 6.88546 2.4362 6.6862C2.63546 6.48694 2.90571 6.375 3.1875 6.375H30.8125ZM3.1875 4.25C2.34212 4.25 1.53137 4.58583 0.933597 5.1836C0.335825 5.78137 0 6.59212 0 7.4375L0 26.5625C0 27.4079 0.335825 28.2186 0.933597 28.8164C1.53137 29.4142 2.34212 29.75 3.1875 29.75H30.8125C31.6579 29.75 32.4686 29.4142 33.0664 28.8164C33.6642 28.2186 34 27.4079 34 26.5625V7.4375C34 6.59212 33.6642 5.78137 33.0664 5.1836C32.4686 4.58583 31.6579 4.25 30.8125 4.25H3.1875Z" fill="white"/>
<path d="M6.375 18.0625C6.375 17.7807 6.48694 17.5105 6.6862 17.3112C6.88546 17.1119 7.15571 17 7.4375 17H26.5625C26.8443 17 27.1145 17.1119 27.3138 17.3112C27.5131 17.5105 27.625 17.7807 27.625 18.0625C27.625 18.3443 27.5131 18.6145 27.3138 18.8138C27.1145 19.0131 26.8443 19.125 26.5625 19.125H7.4375C7.15571 19.125 6.88546 19.0131 6.6862 18.8138C6.48694 18.6145 6.375 18.3443 6.375 18.0625ZM6.375 22.3125C6.375 22.0307 6.48694 21.7605 6.6862 21.5612C6.88546 21.3619 7.15571 21.25 7.4375 21.25H20.1875C20.4693 21.25 20.7395 21.3619 20.9388 21.5612C21.1381 21.7605 21.25 22.0307 21.25 22.3125C21.25 22.5943 21.1381 22.8645 20.9388 23.0638C20.7395 23.2631 20.4693 23.375 20.1875 23.375H7.4375C7.15571 23.375 6.88546 23.2631 6.6862 23.0638C6.48694 22.8645 6.375 22.5943 6.375 22.3125ZM6.375 11.6875C6.375 11.4057 6.48694 11.1355 6.6862 10.9362C6.88546 10.7369 7.15571 10.625 7.4375 10.625H26.5625C26.8443 10.625 27.1145 10.7369 27.3138 10.9362C27.5131 11.1355 27.625 11.4057 27.625 11.6875V13.8125C27.625 14.0943 27.5131 14.3645 27.3138 14.5638C27.1145 14.7631 26.8443 14.875 26.5625 14.875H7.4375C7.15571 14.875 6.88546 14.7631 6.6862 14.5638C6.48694 14.3645 6.375 14.0943 6.375 13.8125V11.6875Z" fill="white"/>
</g>
<defs>
<clipPath id="clip0">
<rect width="34" height="34" fill="white"/>
</clipPath>
</defs>
</svg>
