<svg width="35" height="26" viewBox="0 0 35 26" fill="none" xmlns="http://www.w3.org/2000/svg">
<path d="M32.8125 26C32.8125 26 35 26 35 23.8333C35 21.6667 32.8125 15.1667 24.0625 15.1667C15.3125 15.1667 13.125 21.6667 13.125 23.8333C13.125 26 15.3125 26 15.3125 26H32.8125ZM15.3606 23.8333C15.3445 23.8311 15.3284 23.8282 15.3125 23.8247C15.3147 23.2527 15.6778 21.593 16.975 20.098C18.1825 18.6962 20.3044 17.3333 24.0625 17.3333C27.8184 17.3333 29.9403 18.6983 31.15 20.098C32.4472 21.593 32.8081 23.2548 32.8125 23.8247L32.795 23.829C32.7848 23.8307 32.7746 23.8322 32.7644 23.8333H15.3606ZM24.0625 10.8333C25.2228 10.8333 26.3356 10.3768 27.1561 9.56413C27.9766 8.75147 28.4375 7.64927 28.4375 6.5C28.4375 5.35073 27.9766 4.24853 27.1561 3.43587C26.3356 2.62321 25.2228 2.16667 24.0625 2.16667C22.9022 2.16667 21.7894 2.62321 20.9689 3.43587C20.1484 4.24853 19.6875 5.35073 19.6875 6.5C19.6875 7.64927 20.1484 8.75147 20.9689 9.56413C21.7894 10.3768 22.9022 10.8333 24.0625 10.8333ZM30.625 6.5C30.625 7.35359 30.4553 8.19883 30.1255 8.98744C29.7957 9.77606 29.3123 10.4926 28.7029 11.0962C28.0935 11.6998 27.3701 12.1786 26.5739 12.5052C25.7777 12.8319 24.9243 13 24.0625 13C23.2007 13 22.3473 12.8319 21.5511 12.5052C20.7549 12.1786 20.0315 11.6998 19.4221 11.0962C18.8127 10.4926 18.3293 9.77606 17.9995 8.98744C17.6697 8.19883 17.5 7.35359 17.5 6.5C17.5 4.77609 18.1914 3.12279 19.4221 1.90381C20.6528 0.68482 22.322 0 24.0625 0C25.803 0 27.4722 0.68482 28.7029 1.90381C29.9336 3.12279 30.625 4.77609 30.625 6.5ZM15.1725 15.7733C14.2975 15.5004 13.3955 15.321 12.4819 15.2382C11.9685 15.1898 11.4532 15.166 10.9375 15.1667C2.1875 15.1667 0 21.6667 0 23.8333C0 25.2785 0.728437 26 2.1875 26H11.41C11.0857 25.3236 10.924 24.582 10.9375 23.8333C10.9375 21.645 11.7622 19.409 13.3219 17.5413C13.8534 16.9043 14.4725 16.3085 15.1725 15.7733ZM10.7625 17.3333C9.46784 19.2601 8.76846 21.5189 8.75 23.8333H2.1875C2.1875 23.27 2.54625 21.6017 3.85 20.098C5.04219 18.72 7.11375 17.3767 10.7625 17.3355V17.3333ZM3.28125 7.58333C3.28125 5.85943 3.97265 4.20613 5.20336 2.98714C6.43407 1.76815 8.10327 1.08333 9.84375 1.08333C11.5842 1.08333 13.2534 1.76815 14.4841 2.98714C15.7148 4.20613 16.4062 5.85943 16.4062 7.58333C16.4062 9.30724 15.7148 10.9605 14.4841 12.1795C13.2534 13.3985 11.5842 14.0833 9.84375 14.0833C8.10327 14.0833 6.43407 13.3985 5.20336 12.1795C3.97265 10.9605 3.28125 9.30724 3.28125 7.58333ZM9.84375 3.25C8.68343 3.25 7.57063 3.70655 6.75016 4.5192C5.92969 5.33186 5.46875 6.43406 5.46875 7.58333C5.46875 8.7326 5.92969 9.83481 6.75016 10.6475C7.57063 11.4601 8.68343 11.9167 9.84375 11.9167C11.0041 11.9167 12.1169 11.4601 12.9373 10.6475C13.7578 9.83481 14.2188 8.7326 14.2188 7.58333C14.2188 6.43406 13.7578 5.33186 12.9373 4.5192C12.1169 3.70655 11.0041 3.25 9.84375 3.25Z" fill="white"/>
</svg>
