<svg width="11" height="21" viewBox="0 0 11 21" fill="none" xmlns="http://www.w3.org/2000/svg">
<path fill-rule="evenodd" clip-rule="evenodd" d="M10.7409 20.4282C10.6684 20.5009 10.5821 20.5587 10.4872 20.5981C10.3923 20.6374 10.2906 20.6577 10.1878 20.6577C10.085 20.6577 9.98328 20.6374 9.88837 20.5981C9.79346 20.5587 9.70724 20.5009 9.63467 20.4282L0.259673 11.0532C0.186918 10.9806 0.129195 10.8944 0.0898103 10.7995C0.0504254 10.7046 0.0301522 10.6028 0.0301523 10.5001C0.0301523 10.3973 0.0504255 10.2956 0.0898103 10.2006C0.129195 10.1057 0.186918 10.0195 0.259673 9.94694L9.63467 0.571945C9.78137 0.425247 9.98034 0.342834 10.1878 0.342834C10.3953 0.342834 10.5942 0.425247 10.7409 0.571945C10.8876 0.718643 10.97 0.917608 10.97 1.12507C10.97 1.33253 10.8876 1.5315 10.7409 1.6782L1.91749 10.5001L10.7409 19.3219C10.8137 19.3945 10.8714 19.4807 10.9108 19.5756C10.9502 19.6706 10.9704 19.7723 10.9704 19.8751C10.9704 19.9778 10.9502 20.0796 10.9108 20.1745C10.8714 20.2694 10.8137 20.3556 10.7409 20.4282Z" fill="white"/>
</svg>
