<svg width="11" height="21" viewBox="0 0 11 21" fill="none" xmlns="http://www.w3.org/2000/svg">
<path fill-rule="evenodd" clip-rule="evenodd" d="M0.259077 0.571807C0.331649 0.499052 0.417861 0.441329 0.512775 0.401943C0.607689 0.362558 0.709441 0.342285 0.812203 0.342285C0.914964 0.342285 1.01672 0.362558 1.11163 0.401943C1.20654 0.441329 1.29276 0.499052 1.36533 0.571807L10.7403 9.94681C10.8131 10.0194 10.8708 10.1056 10.9102 10.2005C10.9496 10.2954 10.9698 10.3972 10.9698 10.4999C10.9698 10.6027 10.9496 10.7044 10.9102 10.7994C10.8708 10.8943 10.8131 10.9805 10.7403 11.0531L1.36533 20.4281C1.21863 20.5748 1.01966 20.6572 0.812203 20.6572C0.60474 20.6572 0.405775 20.5748 0.259077 20.4281C0.112379 20.2814 0.0299653 20.0824 0.0299653 19.8749C0.0299653 19.6675 0.112379 19.4685 0.259077 19.3218L9.08252 10.4999L0.259077 1.67806C0.186322 1.60549 0.128599 1.51927 0.0892138 1.42436C0.0498287 1.32945 0.0295563 1.22769 0.0295563 1.12493C0.0295563 1.02217 0.0498287 0.920419 0.0892138 0.825504C0.128599 0.73059 0.186322 0.644378 0.259077 0.571807Z" fill="white"/>
</svg>
