<svg width="50" height="50" viewBox="0 0 50 50" fill="none" xmlns="http://www.w3.org/2000/svg">
<path fill-rule="evenodd" clip-rule="evenodd" d="M18.2135 31.7875C17.9205 31.4946 17.5231 31.33 17.1088 31.33C16.6945 31.33 16.2971 31.4946 16.0041 31.7875L3.2041 44.5875V35.9375C3.2041 35.5231 3.03948 35.1257 2.74646 34.8326C2.45343 34.5396 2.056 34.375 1.6416 34.375C1.2272 34.375 0.829773 34.5396 0.536747 34.8326C0.243722 35.1257 0.0791016 35.5231 0.0791016 35.9375V48.3594C0.0791016 48.7738 0.243722 49.1712 0.536747 49.4642C0.829773 49.7573 1.2272 49.9219 1.6416 49.9219H14.0635C14.4779 49.9219 14.8753 49.7573 15.1683 49.4642C15.4614 49.1712 15.626 48.7738 15.626 48.3594C15.626 47.945 15.4614 47.5475 15.1683 47.2545C14.8753 46.9615 14.4779 46.7969 14.0635 46.7969H5.41348L18.2135 33.9969C18.5064 33.7039 18.671 33.3065 18.671 32.8922C18.671 32.4779 18.5064 32.0805 18.2135 31.7875ZM31.7885 31.7875C32.0815 31.4946 32.4788 31.33 32.8932 31.33C33.3075 31.33 33.7048 31.4946 33.9979 31.7875L46.7979 44.5875V35.9375C46.7979 35.5231 46.9625 35.1257 47.2555 34.8326C47.5485 34.5396 47.946 34.375 48.3604 34.375C48.7748 34.375 49.1722 34.5396 49.4652 34.8326C49.7582 35.1257 49.9229 35.5231 49.9229 35.9375V48.3594C49.9229 48.7738 49.7582 49.1712 49.4652 49.4642C49.1722 49.7573 48.7748 49.9219 48.3604 49.9219H35.9385C35.5241 49.9219 35.1266 49.7573 34.8336 49.4642C34.5406 49.1712 34.376 48.7738 34.376 48.3594C34.376 47.945 34.5406 47.5475 34.8336 47.2545C35.1266 46.9615 35.5241 46.7969 35.9385 46.7969H44.5885L31.7885 33.9969C31.4956 33.7039 31.331 33.3065 31.331 32.8922C31.331 32.4779 31.4956 32.0805 31.7885 31.7875ZM31.7885 18.2125C32.0815 18.5054 32.4788 18.67 32.8932 18.67C33.3075 18.67 33.7048 18.5054 33.9979 18.2125L46.7979 5.4125V14.0625C46.7979 14.4769 46.9625 14.8743 47.2555 15.1674C47.5485 15.4604 47.946 15.625 48.3604 15.625C48.7748 15.625 49.1722 15.4604 49.4652 15.1674C49.7582 14.8743 49.9229 14.4769 49.9229 14.0625V1.64062C49.9229 1.22622 49.7582 0.828796 49.4652 0.535771C49.1722 0.242745 48.7748 0.078125 48.3604 0.078125H35.9385C35.5241 0.078125 35.1266 0.242745 34.8336 0.535771C34.5406 0.828796 34.376 1.22622 34.376 1.64062C34.376 2.05503 34.5406 2.45245 34.8336 2.74548C35.1266 3.03851 35.5241 3.20312 35.9385 3.20312H44.5885L31.7885 16.0031C31.4956 16.2961 31.331 16.6935 31.331 17.1078C31.331 17.5221 31.4956 17.9195 31.7885 18.2125ZM18.2135 18.2125C17.9205 18.5054 17.5231 18.67 17.1088 18.67C16.6945 18.67 16.2971 18.5054 16.0041 18.2125L3.2041 5.4125V14.0625C3.2041 14.4769 3.03948 14.8743 2.74646 15.1674C2.45343 15.4604 2.056 15.625 1.6416 15.625C1.2272 15.625 0.829773 15.4604 0.536747 15.1674C0.243722 14.8743 0.0791016 14.4769 0.0791016 14.0625V1.64062C0.0791016 1.22622 0.243722 0.828796 0.536747 0.535771C0.829773 0.242745 1.2272 0.078125 1.6416 0.078125H14.0635C14.4779 0.078125 14.8753 0.242745 15.1683 0.535771C15.4614 0.828796 15.626 1.22622 15.626 1.64062C15.626 2.05503 15.4614 2.45245 15.1683 2.74548C14.8753 3.03851 14.4779 3.20312 14.0635 3.20312H5.41348L18.2135 16.0031C18.5064 16.2961 18.671 16.6935 18.671 17.1078C18.671 17.5221 18.5064 17.9195 18.2135 18.2125Z" fill="#00A679"/>
</svg>
