<svg width="50" height="50" viewBox="0 0 50 50" fill="none" xmlns="http://www.w3.org/2000/svg">
<circle cx="25" cy="25" r="25" fill="#FC7318"/>
<path fill-rule="evenodd" clip-rule="evenodd" d="M21.2593 15.5723C21.3319 15.4995 21.4181 15.4418 21.513 15.4024C21.6079 15.363 21.7097 15.3428 21.8124 15.3428C21.9152 15.3428 22.0169 15.363 22.1119 15.4024C22.2068 15.4418 22.293 15.4995 22.3656 15.5723L31.7406 24.9473C31.8133 25.0199 31.871 25.1061 31.9104 25.201C31.9498 25.2959 31.9701 25.3977 31.9701 25.5004C31.9701 25.6032 31.9498 25.7049 31.9104 25.7998C31.871 25.8948 31.8133 25.981 31.7406 26.0535L22.3656 35.4285C22.2189 35.5752 22.0199 35.6577 21.8124 35.6577C21.605 35.6577 21.406 35.5752 21.2593 35.4285C21.1126 35.2818 21.0302 35.0829 21.0302 34.8754C21.0302 34.668 21.1126 34.469 21.2593 34.3223L30.0827 25.5004L21.2593 16.6785C21.1866 16.606 21.1288 16.5198 21.0894 16.4248C21.0501 16.3299 21.0298 16.2282 21.0298 16.1254C21.0298 16.0227 21.0501 15.9209 21.0894 15.826C21.1288 15.7311 21.1866 15.6449 21.2593 15.5723Z" fill="white"/>
</svg>
