<svg width="50" height="50" viewBox="0 0 50 50" fill="none" xmlns="http://www.w3.org/2000/svg">
<circle cx="25" cy="25" r="25" transform="rotate(-180 25 25)" fill="#FC7318"/>
<path fill-rule="evenodd" clip-rule="evenodd" d="M28.7407 34.4277C28.6681 34.5005 28.5819 34.5582 28.487 34.5976C28.3921 34.637 28.2903 34.6572 28.1876 34.6572C28.0848 34.6572 27.9831 34.637 27.8881 34.5976C27.7932 34.5582 27.707 34.5005 27.6344 34.4277L18.2594 25.0527C18.1867 24.9801 18.129 24.8939 18.0896 24.799C18.0502 24.7041 18.0299 24.6023 18.0299 24.4996C18.0299 24.3968 18.0502 24.2951 18.0896 24.2002C18.129 24.1052 18.1867 24.019 18.2594 23.9465L27.6344 14.5715C27.7811 14.4248 27.9801 14.3423 28.1876 14.3423C28.395 14.3423 28.594 14.4248 28.7407 14.5715C28.8874 14.7182 28.9698 14.9171 28.9698 15.1246C28.9698 15.332 28.8874 15.531 28.7407 15.6777L19.9173 24.4996L28.7407 33.3215C28.8134 33.394 28.8712 33.4802 28.9106 33.5752C28.9499 33.6701 28.9702 33.7718 28.9702 33.8746C28.9702 33.9773 28.9499 34.0791 28.9106 34.174C28.8712 34.2689 28.8134 34.3551 28.7407 34.4277Z" fill="white"/>
</svg>
