<svg width="31" height="31" viewBox="0 0 31 31" fill="none" xmlns="http://www.w3.org/2000/svg">
<path d="M12.4872 22.6455V12.3109H11.2607C10.3824 12.7791 9.53345 13.3006 8.71875 13.8725V15.2191C9.44531 14.7211 10.5962 14.0178 11.1561 13.7136H11.1794V22.6455H12.4872ZM14.7889 20.1171C14.88 21.3571 15.9398 22.8412 18.0885 22.8412C20.5259 22.8412 21.9635 20.7758 21.9635 17.2786C21.9635 13.5315 20.4503 12.1094 18.1796 12.1094C16.3854 12.1094 14.6979 13.4114 14.6979 15.6143C14.6979 17.8618 16.2944 19.0437 17.9451 19.0437C19.3905 19.0437 20.3283 18.3152 20.6247 17.5131H20.677C20.6692 20.0628 19.7838 21.7058 18.1486 21.7058C16.8621 21.7058 16.1956 20.8339 16.1142 20.1171H14.7889ZM20.5104 15.6279C20.5104 16.9764 19.4273 17.9141 18.2164 17.9141C17.0519 17.9141 15.9999 17.1721 15.9999 15.5891C15.9999 13.9946 17.1275 13.2447 18.2629 13.2447C19.4893 13.2447 20.5104 14.0159 20.5104 15.6279Z" fill="white"/>
<path d="M6.78125 0C7.03818 0 7.28458 0.102064 7.46626 0.28374C7.64794 0.465416 7.75 0.711821 7.75 0.96875V1.9375H23.25V0.96875C23.25 0.711821 23.3521 0.465416 23.5337 0.28374C23.7154 0.102064 23.9618 0 24.2188 0C24.4757 0 24.7221 0.102064 24.9038 0.28374C25.0854 0.465416 25.1875 0.711821 25.1875 0.96875V1.9375H27.125C28.1527 1.9375 29.1383 2.34576 29.865 3.07246C30.5917 3.79916 31 4.78479 31 5.8125V27.125C31 28.1527 30.5917 29.1383 29.865 29.865C29.1383 30.5917 28.1527 31 27.125 31H3.875C2.84729 31 1.86166 30.5917 1.13496 29.865C0.408258 29.1383 0 28.1527 0 27.125V5.8125C0 4.78479 0.408258 3.79916 1.13496 3.07246C1.86166 2.34576 2.84729 1.9375 3.875 1.9375H5.8125V0.96875C5.8125 0.711821 5.91456 0.465416 6.09624 0.28374C6.27792 0.102064 6.52432 0 6.78125 0V0ZM1.9375 7.75V27.125C1.9375 27.6389 2.14163 28.1317 2.50498 28.495C2.86833 28.8584 3.36114 29.0625 3.875 29.0625H27.125C27.6389 29.0625 28.1317 28.8584 28.495 28.495C28.8584 28.1317 29.0625 27.6389 29.0625 27.125V7.75H1.9375Z" fill="white"/>
</svg>
