<svg width="31" height="31" viewBox="0 0 31 31" fill="none" xmlns="http://www.w3.org/2000/svg">
<path d="M14.5312 1.97238C12.0202 2.15232 9.60879 3.02762 7.56697 4.50029C5.52516 5.97295 3.93353 7.98486 2.97026 10.3108C2.00699 12.6367 1.71011 15.1848 2.11286 17.6699C2.5156 20.1549 3.60206 22.4789 5.25063 24.3815L14.5312 15.0989V1.97238ZM16.4688 1.97238V14.5312H29.0276C28.7942 11.2776 27.396 8.2171 25.0895 5.91052C22.7829 3.60395 19.7224 2.20583 16.4688 1.97238ZM29.0276 16.4688H15.9011L6.62044 25.7494C8.5231 27.3974 10.8469 28.4834 13.3316 28.8858C15.8164 29.2882 18.3642 28.9912 20.6897 28.028C23.0153 27.0648 25.0269 25.4734 26.4995 23.4319C27.972 21.3904 28.8474 18.9794 29.0276 16.4688ZM0 15.5C0 11.3891 1.63303 7.44666 4.53984 4.53984C7.44666 1.63303 11.3891 0 15.5 0C19.6109 0 23.5533 1.63303 26.4602 4.53984C29.367 7.44666 31 11.3891 31 15.5C31 19.6109 29.367 23.5533 26.4602 26.4602C23.5533 29.367 19.6109 31 15.5 31C11.3891 31 7.44666 29.367 4.53984 26.4602C1.63303 23.5533 0 19.6109 0 15.5Z" fill="white"/>
</svg>
