<svg width="31" height="31" viewBox="0 0 31 31" fill="none" xmlns="http://www.w3.org/2000/svg">
<path fill-rule="evenodd" clip-rule="evenodd" d="M21.0299 13.8454C21.1201 13.9354 21.1917 14.0423 21.2405 14.16C21.2893 14.2777 21.3145 14.4038 21.3145 14.5313C21.3145 14.6587 21.2893 14.7849 21.2405 14.9026C21.1917 15.0203 21.1201 15.1272 21.0299 15.2171L15.2174 21.0296C15.1274 21.1199 15.0205 21.1914 14.9028 21.2403C14.7851 21.2891 14.6589 21.3143 14.5315 21.3143C14.4041 21.3143 14.2779 21.2891 14.1602 21.2403C14.0425 21.1914 13.9356 21.1199 13.8456 21.0296L10.9394 18.1234C10.8493 18.0333 10.7779 17.9264 10.7291 17.8087C10.6804 17.691 10.6553 17.5649 10.6553 17.4375C10.6553 17.3101 10.6804 17.184 10.7291 17.0663C10.7779 16.9486 10.8493 16.8417 10.9394 16.7516C11.1213 16.5697 11.368 16.4675 11.6252 16.4675C11.7526 16.4675 11.8788 16.4926 11.9964 16.5414C12.1141 16.5901 12.2211 16.6616 12.3111 16.7516L14.5315 18.974L19.6581 13.8454C19.7481 13.7552 19.855 13.6836 19.9727 13.6348C20.0904 13.5859 20.2166 13.5608 20.344 13.5608C20.4714 13.5608 20.5976 13.5859 20.7153 13.6348C20.833 13.6836 20.9399 13.7552 21.0299 13.8454Z" fill="white"/>
<path d="M7.75 2.90625H5.8125C4.78479 2.90625 3.79916 3.31451 3.07246 4.04121C2.34576 4.76791 1.9375 5.75354 1.9375 6.78125V27.125C1.9375 28.1527 2.34576 29.1383 3.07246 29.865C3.79916 30.5917 4.78479 31 5.8125 31H25.1875C26.2152 31 27.2008 30.5917 27.9275 29.865C28.6542 29.1383 29.0625 28.1527 29.0625 27.125V6.78125C29.0625 5.75354 28.6542 4.76791 27.9275 4.04121C27.2008 3.31451 26.2152 2.90625 25.1875 2.90625H23.25V4.84375H25.1875C25.7014 4.84375 26.1942 5.04788 26.5575 5.41123C26.9209 5.77458 27.125 6.26739 27.125 6.78125V27.125C27.125 27.6389 26.9209 28.1317 26.5575 28.495C26.1942 28.8584 25.7014 29.0625 25.1875 29.0625H5.8125C5.29864 29.0625 4.80583 28.8584 4.44248 28.495C4.07913 28.1317 3.875 27.6389 3.875 27.125V6.78125C3.875 6.26739 4.07913 5.77458 4.44248 5.41123C4.80583 5.04788 5.29864 4.84375 5.8125 4.84375H7.75V2.90625Z" fill="white"/>
<path d="M18.4062 1.9375C18.6632 1.9375 18.9096 2.03956 19.0913 2.22124C19.2729 2.40292 19.375 2.64932 19.375 2.90625V4.84375C19.375 5.10068 19.2729 5.34708 19.0913 5.52876C18.9096 5.71044 18.6632 5.8125 18.4062 5.8125H12.5938C12.3368 5.8125 12.0904 5.71044 11.9087 5.52876C11.7271 5.34708 11.625 5.10068 11.625 4.84375V2.90625C11.625 2.64932 11.7271 2.40292 11.9087 2.22124C12.0904 2.03956 12.3368 1.9375 12.5938 1.9375H18.4062ZM12.5938 0C11.823 0 11.0837 0.306193 10.5387 0.851221C9.99369 1.39625 9.6875 2.13546 9.6875 2.90625V4.84375C9.6875 5.61454 9.99369 6.35375 10.5387 6.89878C11.0837 7.44381 11.823 7.75 12.5938 7.75H18.4062C19.177 7.75 19.9163 7.44381 20.4613 6.89878C21.0063 6.35375 21.3125 5.61454 21.3125 4.84375V2.90625C21.3125 2.13546 21.0063 1.39625 20.4613 0.851221C19.9163 0.306193 19.177 0 18.4062 0L12.5938 0Z" fill="white"/>
</svg>
