<svg width="31" height="31" viewBox="0 0 31 31" fill="none" xmlns="http://www.w3.org/2000/svg">
<path d="M18.7334 1.674L15.4997 0L12.266 1.674L8.66615 2.22038L7.03477 5.47538L4.44434 8.03288L5.03721 11.625L4.44434 15.2171L7.03477 17.7746L8.66615 21.0296L12.266 21.576L15.4997 23.25L18.7334 21.576L22.3333 21.0296L23.9647 17.7746L26.5551 15.2171L25.9622 11.625L26.5551 8.03288L23.9647 5.47538L22.3333 2.22038L18.7334 1.674ZM21.0506 3.98544L22.3759 6.63013L24.48 8.70712L23.9995 11.625L24.48 14.5429L22.3759 16.6199L21.0506 19.2646L18.125 19.7083L15.4997 21.0684L12.8744 19.7083L9.94877 19.2646L8.62352 16.6199L6.5194 14.5429L7.00184 11.625L6.51746 8.70712L8.62352 6.63013L9.94877 3.98544L12.8744 3.54175L15.4997 2.18163L18.127 3.54175L21.0506 3.98544Z" fill="white"/>
<path d="M7.75 22.8509V31L15.5 29.0625L23.25 31V22.8509L19.3401 23.4438L15.5 25.4316L11.6599 23.4438L7.75 22.8509Z" fill="white"/>
</svg>
