<svg width="31" height="31" viewBox="0 0 31 31" fill="none" xmlns="http://www.w3.org/2000/svg">
<g clip-path="url(#clip0)">
<path d="M23.5135 0.631608C23.9418 0.524471 24.3889 0.516323 24.8208 0.607783C25.2527 0.699243 25.6581 0.887907 26.0062 1.15945C26.3544 1.431 26.636 1.77828 26.8299 2.17495C27.0237 2.57162 27.1247 3.00723 27.125 3.44873V5.81248H28.0938C28.8645 5.81248 29.6038 6.11868 30.1488 6.6637C30.6938 7.20873 31 7.94795 31 8.71873V26.1562C31 26.927 30.6938 27.6662 30.1488 28.2113C29.6038 28.7563 28.8645 29.0625 28.0938 29.0625H2.90625C2.13546 29.0625 1.39625 28.7563 0.851221 28.2113C0.306193 27.6662 1.90053e-07 26.927 1.90053e-07 26.1562V8.71873C-0.000270205 7.97057 0.287995 7.25113 0.804794 6.71015C1.32159 6.16917 2.02711 5.84834 2.7745 5.81442L23.5135 0.631608ZM10.7764 5.81248H25.1875V3.44873C25.1872 3.30175 25.1534 3.15676 25.0887 3.02476C25.0241 2.89276 24.9302 2.77721 24.8143 2.68685C24.6983 2.59649 24.5634 2.5337 24.4196 2.50323C24.2758 2.47276 24.1269 2.47541 23.9843 2.51098L10.7764 5.81248ZM2.90625 7.74998C2.64932 7.74998 2.40292 7.85205 2.22124 8.03372C2.03956 8.2154 1.9375 8.4618 1.9375 8.71873V26.1562C1.9375 26.4132 2.03956 26.6596 2.22124 26.8412C2.40292 27.0229 2.64932 27.125 2.90625 27.125H28.0938C28.3507 27.125 28.5971 27.0229 28.7788 26.8412C28.9604 26.6596 29.0625 26.4132 29.0625 26.1562V8.71873C29.0625 8.4618 28.9604 8.2154 28.7788 8.03372C28.5971 7.85205 28.3507 7.74998 28.0938 7.74998H2.90625Z" fill="white"/>
</g>
<defs>
<clipPath id="clip0">
<rect width="31" height="31" fill="white"/>
</clipPath>
</defs>
</svg>
