<svg width="959" height="532" viewBox="0 0 959 532" fill="none" xmlns="http://www.w3.org/2000/svg">
<path d="M169.57 223.051L169.674 220.791C171.045 220.854 172.45 220.881 173.85 220.87L173.866 223.132C173.659 223.134 173.452 223.135 173.245 223.135C172.012 223.133 170.778 223.106 169.57 223.051ZM178.027 220.73C179.398 220.649 180.801 220.532 182.194 220.382L182.437 222.631C181.006 222.785 179.567 222.906 178.159 222.988L178.027 220.73ZM161.014 222.168L161.378 219.935C162.732 220.157 164.125 220.341 165.512 220.482L165.28 222.732C163.85 222.586 162.414 222.396 161.014 222.168ZM186.345 219.836C187.706 219.625 189.095 219.379 190.469 219.103L190.913 221.321C189.505 221.603 188.085 221.856 186.692 222.072L186.345 219.836ZM152.617 220.262L153.259 218.093C154.57 218.48 155.927 218.833 157.288 219.142L156.788 221.349C155.38 221.029 153.976 220.664 152.616 220.262H152.617ZM194.561 218.192C195.902 217.865 197.266 217.502 198.614 217.115L199.238 219.29C197.861 219.685 196.468 220.056 195.098 220.39L194.561 218.192ZM144.531 217.268L145.461 215.206C146.712 215.77 148.007 216.301 149.309 216.782L148.524 218.904C147.172 218.404 145.829 217.854 144.531 217.268ZM202.623 215.881C203.935 215.45 205.27 214.985 206.587 214.499L207.37 216.621C206.027 217.117 204.667 217.591 203.329 218.03L202.623 215.881ZM136.938 213.161L138.158 211.257C139.314 211.998 140.518 212.707 141.736 213.365L140.66 215.353C139.394 214.671 138.142 213.932 136.938 213.161H136.938ZM210.501 212.977C211.782 212.453 213.082 211.897 214.364 211.324L215.287 213.389C213.983 213.972 212.66 214.538 211.356 215.071L210.501 212.977ZM218.173 209.547C219.418 208.944 220.682 208.307 221.929 207.655L222.977 209.66C221.71 210.322 220.426 210.969 219.161 211.583L218.173 209.547ZM130.039 207.961L131.535 206.265C132.566 207.174 133.647 208.056 134.751 208.888L133.39 210.695C132.239 209.828 131.112 208.908 130.039 207.961ZM225.629 205.654C226.839 204.977 228.065 204.268 229.273 203.549L230.431 205.493C229.204 206.223 227.961 206.941 226.734 207.628L225.629 205.654ZM124.034 201.753L125.779 200.314C126.653 201.375 127.582 202.414 128.541 203.403L126.915 204.976C125.914 203.945 124.947 202.859 124.034 201.753ZM409.335 201.252L411.302 200.134C412.021 201.4 412.698 202.683 413.312 203.951L411.277 204.938C410.685 203.714 410.031 202.474 409.337 201.252H409.335ZM232.861 201.348C234.031 200.609 235.219 199.838 236.393 199.055L237.648 200.938C236.459 201.731 235.255 202.512 234.069 203.261L232.861 201.348ZM239.869 196.677C241.005 195.88 242.154 195.053 243.29 194.218L244.631 196.04C243.483 196.886 242.318 197.723 241.169 198.529L239.869 196.677ZM119.086 194.66L121.038 193.517C121.734 194.708 122.487 195.883 123.273 197.011L121.418 198.305C120.597 197.131 119.812 195.904 119.086 194.66ZM404.784 194.255L406.608 192.916C407.463 194.079 408.287 195.27 409.059 196.454L407.163 197.689C406.414 196.541 405.614 195.386 404.784 194.257V194.255ZM246.657 191.682L246.992 191.424C248.01 190.636 249.025 189.862 250.038 189.103L251.392 190.914C250.388 191.666 249.381 192.432 248.37 193.214L248.032 193.474L246.657 191.682ZM399.486 187.79L401.16 186.267C402.123 187.327 403.069 188.421 403.969 189.519L402.22 190.954C401.344 189.888 400.424 188.821 399.486 187.791V187.79ZM115.324 186.875L117.432 186.054C117.932 187.34 118.489 188.619 119.087 189.857L117.05 190.841C116.426 189.55 115.846 188.216 115.324 186.875ZM253.475 186.583C254.63 185.752 255.802 184.926 256.958 184.129L258.243 185.991C257.101 186.78 255.939 187.598 254.797 188.419L253.475 186.583ZM393.559 181.887L395.075 180.207C396.133 181.164 397.182 182.158 398.191 183.162L396.595 184.766C395.612 183.787 394.59 182.82 393.557 181.888L393.559 181.887ZM260.491 181.742C261.684 180.955 262.89 180.177 264.073 179.432L265.279 181.346C264.108 182.083 262.917 182.852 261.737 183.631L260.491 181.742ZM112.814 178.608L115.022 178.116C115.324 179.47 115.679 180.821 116.076 182.131L113.912 182.788C113.497 181.425 113.129 180.018 112.814 178.609V178.608ZM387.086 176.582L388.435 174.766C389.58 175.617 390.719 176.505 391.819 177.408L390.385 179.157C389.313 178.279 388.203 177.414 387.086 176.584L387.086 176.582ZM267.706 177.2C268.925 176.47 270.164 175.747 271.39 175.051L272.507 177.018C271.297 177.706 270.073 178.419 268.869 179.141L267.706 177.2ZM275.125 172.99C276.378 172.319 277.652 171.658 278.913 171.023L279.928 173.044C278.684 173.67 277.427 174.323 276.192 174.984L275.125 172.99ZM111.821 172.799C111.712 171.895 111.622 170.977 111.553 170.07L113.809 169.901C113.875 170.774 113.962 171.658 114.066 172.53C114.127 173.033 114.195 173.534 114.268 174.033L112.03 174.363C111.954 173.845 111.885 173.323 111.821 172.8L111.821 172.799ZM380.137 171.918L381.307 169.982C382.528 170.72 383.746 171.496 384.928 172.29L383.666 174.168C382.514 173.396 381.327 172.639 380.138 171.92L380.137 171.918ZM282.753 169.157C284.045 168.55 285.353 167.957 286.643 167.394L287.547 169.467C286.278 170.021 284.988 170.605 283.716 171.202L282.753 169.157ZM372.78 167.935L373.762 165.897C375.046 166.515 376.332 167.172 377.583 167.85L376.506 169.839C375.285 169.179 374.032 168.538 372.779 167.935H372.78ZM290.58 165.744C291.905 165.213 293.246 164.696 294.569 164.212L295.348 166.336C294.048 166.813 292.725 167.32 291.423 167.843L290.58 165.744ZM365.076 164.669L365.86 162.546C367.194 163.039 368.536 163.571 369.848 164.127L368.966 166.21C367.687 165.667 366.378 165.149 365.077 164.668L365.076 164.669ZM111.486 161.447L113.744 161.578C113.663 162.97 113.628 164.37 113.637 165.742L111.375 165.759C111.366 164.338 111.403 162.887 111.486 161.448L111.486 161.447ZM298.607 162.804C299.965 162.356 301.339 161.927 302.689 161.529L303.327 163.7C302 164.09 300.652 164.511 299.317 164.952L298.607 162.804ZM357.1 162.148L357.679 159.96C359.057 160.324 360.443 160.727 361.8 161.156L361.118 163.313C359.795 162.895 358.444 162.503 357.1 162.148ZM306.813 160.391C308.192 160.036 309.593 159.703 310.976 159.401L311.459 161.61C310.103 161.906 308.729 162.235 307.376 162.583L306.813 160.391ZM348.92 160.388L349.292 158.157C350.7 158.391 352.118 158.661 353.506 158.96L353.031 161.172C351.677 160.882 350.295 160.619 348.922 160.391L348.92 160.388ZM315.174 158.565C316.582 158.311 318.005 158.084 319.405 157.888L319.718 160.13C318.349 160.322 316.955 160.545 315.576 160.792L315.174 158.565ZM340.611 159.395L340.777 157.139C342.197 157.243 343.634 157.381 345.046 157.55L344.778 159.796C343.399 159.634 341.997 159.499 340.611 159.397V159.395ZM323.657 157.38C325.076 157.24 326.512 157.126 327.927 157.046L328.058 159.305C326.674 159.384 325.268 159.494 323.88 159.632L323.657 157.38ZM332.243 159.152L332.21 156.891C333.64 156.87 335.083 156.879 336.495 156.92L336.43 159.181C335.049 159.144 333.641 159.134 332.243 159.155V159.152ZM111.871 157.152C112.04 155.763 112.252 154.351 112.506 152.954L114.743 153.292L114.727 153.38C114.486 154.709 114.278 156.077 114.115 157.422L111.871 157.152ZM113.374 148.694C113.688 147.303 114.036 145.902 114.407 144.535L116.591 145.128C116.227 146.464 115.888 147.831 115.58 149.192L113.374 148.694ZM115.623 140.424C116.057 139.064 116.527 137.7 117.019 136.37L119.141 137.155C118.661 138.453 118.203 139.785 117.778 141.113L115.623 140.424ZM188.577 137.86L188.683 135.601C190.042 135.661 191.404 135.626 192.758 135.495L192.969 137.747C191.954 137.844 190.944 137.892 189.955 137.892C189.492 137.892 189.033 137.882 188.577 137.86ZM179.95 135.928L180.859 133.855C182.086 134.389 183.364 134.799 184.672 135.082L184.19 137.292C182.736 136.978 181.316 136.521 179.952 135.927L179.95 135.928ZM196.806 134.855C198.147 134.558 199.47 134.189 200.771 133.75L201.495 135.895C200.116 136.36 198.713 136.75 197.293 137.064L196.806 134.855ZM204.609 132.237C205.852 131.674 207.09 131.042 208.288 130.356L209.412 132.319C208.152 133.039 206.851 133.705 205.542 134.297L204.609 132.237ZM172.805 130.606L174.536 129.15C175.389 130.165 176.357 131.077 177.421 131.868L176.073 133.684C174.868 132.788 173.771 131.756 172.805 130.606ZM118.596 132.386C119.15 131.072 119.742 129.756 120.353 128.474L122.395 129.447C121.798 130.698 121.221 131.981 120.68 133.264L118.596 132.386ZM211.776 128.139C212.903 127.346 214.002 126.495 215.04 125.608L216.509 127.328C215.417 128.261 214.262 129.156 213.077 129.99L211.776 128.139ZM168.636 122.787L170.797 122.115C171.192 123.399 171.703 124.646 172.324 125.838L170.321 126.89C169.636 125.576 169.072 124.202 168.636 122.786L168.636 122.787ZM122.289 124.648C122.96 123.393 123.671 122.136 124.399 120.914L126.343 122.073C125.631 123.265 124.939 124.491 124.284 125.716L122.289 124.648ZM218.051 122.779C219.011 121.786 219.924 120.741 220.765 119.675L222.542 121.077C221.654 122.202 220.691 123.304 219.678 124.352L218.051 122.779ZM126.681 117.28C127.464 116.095 128.287 114.91 129.128 113.756L130.956 115.088C130.135 116.214 129.332 117.371 128.569 118.526L126.681 117.28ZM167.488 117.299C167.366 116.288 167.282 115.23 167.241 114.153L169.501 114.065C169.541 115.081 169.619 116.078 169.734 117.027C169.779 117.408 169.832 117.782 169.889 118.151L167.654 118.499C167.592 118.105 167.536 117.705 167.487 117.298L167.488 117.299ZM223.142 116.315C223.873 115.155 224.537 113.956 225.134 112.722L227.171 113.706C226.538 115.016 225.831 116.289 225.056 117.52L223.142 116.315ZM131.734 110.347C132.623 109.238 133.551 108.133 134.493 107.063L136.191 108.557C135.272 109.602 134.366 110.68 133.498 111.762L131.734 110.347ZM167.254 109.827C167.311 108.381 167.416 106.934 167.571 105.526L169.819 105.772C169.672 107.126 169.569 108.522 169.515 109.915L167.254 109.827ZM226.696 108.93C227.141 107.638 227.508 106.32 227.793 104.984L230.005 105.455C229.701 106.881 229.31 108.288 228.834 109.667L226.696 108.93ZM137.398 103.907C138.387 102.881 139.411 101.864 140.444 100.886L142.002 102.527C140.995 103.482 139.994 104.473 139.03 105.477L137.398 103.907ZM168.198 101.26C168.46 99.8417 168.779 98.4252 169.147 97.049L171.333 97.6324C170.981 98.9519 170.674 100.311 170.423 101.671L168.198 101.26ZM228.399 100.934C228.515 99.5734 228.549 98.2064 228.5 96.8412L230.761 96.7596C230.813 98.2169 230.777 99.6761 230.652 101.129L228.399 100.934ZM143.619 98.003C144.692 97.0722 145.803 96.1508 146.919 95.2636L148.326 97.0359C147.234 97.9019 146.15 98.8022 145.102 99.711L143.619 98.003ZM150.337 92.6723C151.492 91.8358 152.678 91.0151 153.864 90.2324L155.11 92.1202C153.952 92.8846 152.793 93.6855 151.664 94.5042L150.337 92.6723ZM170.427 92.9227C170.908 91.5689 171.451 90.218 172.038 88.9133L174.101 89.844C173.539 91.0929 173.02 92.3825 172.559 93.6821L170.427 92.9227ZM226.662 89.1328L228.687 88.1242C229.353 89.4685 229.861 90.8857 230.2 92.3473L227.997 92.8622C227.698 91.5718 227.249 90.3206 226.661 89.1337L226.662 89.1328ZM157.494 87.9482C158.715 87.2159 159.969 86.5017 161.22 85.8231L162.297 87.8116C161.075 88.4737 159.85 89.1718 158.659 89.8867L157.494 87.9482ZM173.972 85.048C174.583 83.9409 175.244 82.8379 175.941 81.7633C175.196 82.0243 174.45 82.2955 173.713 82.5756L172.909 80.4602C174.247 79.9525 175.608 79.4715 176.957 79.0302L177.661 81.1799C177.282 81.3037 176.904 81.4306 176.525 81.5607L178.096 82.5993C177.334 83.7526 176.611 84.9448 175.95 86.1413L173.972 85.048ZM165.035 83.8634C166.317 83.2398 167.63 82.6365 168.934 82.073L169.832 84.1495C168.558 84.6994 167.276 85.2896 166.024 85.898L165.035 83.8634ZM221.6 83.0846L222.978 81.2911C224.165 82.199 225.251 83.2317 226.217 84.3715L224.487 85.8295C223.626 84.8142 222.658 83.8944 221.6 83.0858V83.0846ZM214.443 79.353L215.176 77.2131C216.566 77.6865 217.919 78.2594 219.226 78.9274L218.191 80.9392C216.981 80.3214 215.729 79.7917 214.443 79.3543V79.353ZM181.22 78.3419C180.981 78.6369 180.746 78.9331 180.514 79.2304L178.728 77.8423C179.599 76.7232 180.532 75.6105 181.502 74.5347L183.182 76.0497C182.728 76.5534 182.284 77.0642 181.848 77.5821C182.981 77.2825 184.119 77.0058 185.241 76.7583L185.729 78.9676C184.385 79.2638 183.02 79.6022 181.668 79.9724L181.22 78.3419ZM206.414 77.5943L206.673 75.3474C208.15 75.5166 209.593 75.7531 210.964 76.0493L210.487 78.2615C209.188 77.9823 207.818 77.7581 206.414 77.5952L206.414 77.5943ZM189.466 75.9452C190.902 75.71 192.335 75.5158 193.733 75.369L193.968 77.6189C192.615 77.7614 191.224 77.9485 189.832 78.1769L189.466 75.9452ZM198.033 75.0567C199.496 74.9979 200.95 74.9912 202.353 75.036L202.281 77.2973C200.932 77.255 199.531 77.261 198.124 77.3176L198.033 75.0567ZM184.501 71.4361C185.516 70.4554 186.588 69.4832 187.689 68.5473L189.155 70.2701C188.09 71.175 187.054 72.1151 186.073 73.0624L184.501 71.4361ZM191.044 65.8595C192.166 65.0134 193.343 64.1749 194.542 63.3685L195.805 65.2457C194.639 66.0296 193.496 66.8432 192.406 67.6656L191.044 65.8595ZM198.16 61.0665C199.363 60.3418 200.617 59.6251 201.889 58.9359L202.967 60.9244C201.725 61.5962 200.501 62.2956 199.328 63.0021L198.16 61.0665ZM205.705 56.975C206.966 56.3598 208.275 55.7531 209.595 55.1718L210.507 57.2415C209.213 57.8114 207.931 58.4054 206.697 59.0074L205.705 56.975ZM213.549 53.5176C214.853 52.9989 216.201 52.4895 217.556 52.0039L218.32 54.1332C216.989 54.6113 215.665 55.1109 214.386 55.6199L213.549 53.5176ZM221.61 50.6238C222.953 50.1901 224.33 49.7688 225.703 49.3711L226.333 51.5435C224.982 51.9357 223.625 52.3504 222.305 52.7768L221.61 50.6238ZM229.831 48.2393C231.199 47.8857 232.598 47.5447 233.991 47.2261L234.496 49.4316C233.123 49.7455 231.746 50.081 230.398 50.4296L229.831 48.2393ZM238.177 46.3296C239.585 46.0482 241.002 45.7859 242.389 45.5494L242.77 47.779C241.403 48.0122 240.008 48.2706 238.621 48.5478L238.177 46.3296ZM246.627 44.8937C249.314 44.5209 250.865 44.3957 250.913 44.3923L251.094 46.6473C251.083 46.6473 249.542 46.7742 246.938 47.1343L246.627 44.8937Z" fill="#FEB423"/>
<path d="M262.095 295.804H172.099V526.908H262.095V295.804Z" fill="#00DA9F"/>
<path d="M402.099 220.268H312.103V526.908H402.099V220.268Z" fill="#00DA9F"/>
<path d="M537.944 138.742H439.401V526.904H537.944V138.742Z" fill="#00DA9F"/>
<path d="M663.05 85.0074H573.054V526.908H663.05V85.0074Z" fill="#00DA9F"/>
<path d="M537.945 268.1L727.092 176.535L642.736 356.345L628.473 274.765L537.945 268.1Z" fill="#F77D48"/>
<path d="M494.429 206.802C492.772 199.991 493.171 192.841 495.577 186.257C497.983 179.673 502.288 173.951 507.946 169.813C513.604 165.675 520.362 163.309 527.366 163.012C534.369 162.715 541.304 164.502 547.292 168.146C553.28 171.791 558.053 177.129 561.007 183.486C563.961 189.843 564.964 196.933 563.888 203.859C562.813 210.786 559.707 217.239 554.965 222.401C550.222 227.562 544.055 231.202 537.244 232.859C528.111 235.081 518.47 233.584 510.44 228.698C502.411 223.811 496.652 215.935 494.429 206.802Z" fill="#FFB93E"/>
<path d="M528.907 231.133C525.988 231.134 523.082 230.733 520.271 229.943C517.426 229.141 514.703 227.953 512.179 226.414C506.723 223.094 502.374 218.231 499.683 212.439C496.991 206.647 496.077 200.188 497.057 193.877C498.037 187.566 500.866 181.687 505.186 176.984C509.507 172.281 515.125 168.964 521.331 167.454C523.85 166.839 526.433 166.528 529.026 166.525C531.945 166.525 534.851 166.926 537.662 167.715C540.507 168.518 543.23 169.705 545.754 171.245C551.21 174.565 555.559 179.429 558.25 185.221C560.942 191.013 561.855 197.473 560.875 203.784C559.895 210.095 557.066 215.974 552.745 220.677C548.423 225.38 542.805 228.696 536.599 230.205C534.081 230.819 531.499 231.131 528.907 231.133ZM528.964 168.461C521.329 168.449 513.969 171.308 508.344 176.469C502.718 181.631 499.239 188.718 498.595 196.326C497.951 203.933 500.19 211.505 504.868 217.538C509.546 223.572 516.321 227.627 523.849 228.898C531.376 230.17 539.107 228.566 545.508 224.404C551.908 220.242 556.51 213.826 558.401 206.429C560.292 199.033 559.333 191.195 555.716 184.472C552.098 177.749 546.085 172.632 538.871 170.135C535.684 169.031 532.336 168.465 528.964 168.461Z" fill="#FFA412"/>
<path d="M535.501 206.887C535.437 206.259 535.262 205.649 534.984 205.083C534.71 204.56 534.32 204.107 533.845 203.757C533.272 203.341 532.642 203.009 531.974 202.773C531.09 202.455 530.183 202.203 529.262 202.017C527.574 201.652 525.906 201.202 524.264 200.668C522.869 200.224 521.54 199.591 520.315 198.787C519.216 198.057 518.282 197.104 517.573 195.991C516.171 193.555 515.786 190.664 516.503 187.947C516.857 186.737 517.461 185.615 518.277 184.654C519.146 183.642 520.188 182.794 521.354 182.149C522.676 181.419 524.1 180.894 525.579 180.59L524.934 175.27L529.216 174.75L529.87 180.145C531.341 180.144 532.801 180.385 534.193 180.858C535.479 181.289 536.665 181.973 537.681 182.87C538.697 183.768 539.523 184.86 540.109 186.083C540.774 187.467 541.198 188.955 541.362 190.483L533.627 191.42C533.386 189.431 532.764 187.997 531.761 187.118C531.255 186.68 530.659 186.36 530.015 186.178C529.371 185.997 528.695 185.959 528.035 186.068C527.327 186.138 526.637 186.337 526.001 186.656C525.486 186.919 525.035 187.292 524.681 187.749C524.352 188.187 524.126 188.693 524.018 189.23C523.903 189.805 523.883 190.396 523.958 190.978C524.019 191.545 524.178 192.098 524.428 192.611C524.688 193.113 525.062 193.547 525.519 193.88C526.096 194.297 526.731 194.628 527.403 194.863C528.329 195.195 529.274 195.472 530.233 195.693C532.042 196.129 533.697 196.601 535.199 197.109C536.591 197.565 537.916 198.206 539.137 199.016C540.298 199.777 541.27 200.792 541.979 201.985C542.688 203.178 543.116 204.517 543.23 205.9C543.415 207.245 543.318 208.614 542.944 209.919C542.586 211.124 541.975 212.238 541.153 213.189C540.275 214.189 539.221 215.018 538.042 215.635C536.702 216.34 535.269 216.853 533.786 217.158L534.386 222.108L530.129 222.624L529.533 217.701C528.049 217.733 526.567 217.582 525.119 217.252C523.71 216.937 522.373 216.359 521.178 215.548C519.956 214.7 518.933 213.598 518.179 212.316C517.303 210.778 516.763 209.072 516.595 207.311L524.33 206.372C524.421 207.381 524.711 208.361 525.182 209.258C525.556 209.949 526.088 210.542 526.736 210.987C527.339 211.39 528.025 211.652 528.743 211.753C529.469 211.858 530.205 211.867 530.933 211.778C531.684 211.7 532.416 211.5 533.102 211.186C533.665 210.926 534.17 210.556 534.586 210.097C534.963 209.675 535.236 209.171 535.386 208.626C535.538 208.059 535.577 207.468 535.501 206.887Z" fill="#FFA412"/>
<path d="M680.889 106.34C680.621 99.5186 682.382 92.7708 685.948 86.95C689.515 81.1291 694.728 76.4967 700.928 73.6385C707.127 70.7803 714.035 69.8247 720.778 70.8925C727.521 71.9603 733.796 75.0036 738.809 79.6375C743.822 84.2714 747.348 90.2878 748.942 96.9259C750.536 103.564 750.126 110.526 747.763 116.931C745.4 123.335 741.191 128.896 735.669 132.909C730.146 136.922 723.557 139.207 716.736 139.475C712.206 139.653 707.686 138.937 703.433 137.368C699.181 135.8 695.278 133.409 691.95 130.332C688.621 127.255 685.931 123.552 684.033 119.436C682.135 115.319 681.067 110.87 680.889 106.34Z" fill="#FFB93E"/>
<path d="M715.366 136.841C707.134 136.834 699.233 133.6 693.359 127.833C687.485 122.065 684.107 114.225 683.949 105.995C683.792 97.7644 686.867 89.8004 692.516 83.8124C698.165 77.8244 705.936 74.2899 714.161 73.9677C714.582 73.9512 715.007 73.9427 715.428 73.9427C723.659 73.9498 731.56 77.1842 737.434 82.9514C743.308 88.7187 746.686 96.5591 746.844 104.789C747.001 113.02 743.926 120.984 738.277 126.972C732.628 132.959 724.857 136.494 716.632 136.816C716.212 136.833 715.786 136.841 715.366 136.841ZM715.412 75.8182C715.021 75.8182 714.625 75.8258 714.235 75.8415C710.287 75.9897 706.41 76.9344 702.836 78.619C695.87 81.9058 690.451 87.768 687.722 94.9708C686.008 99.5053 685.438 104.393 686.064 109.2C686.689 114.007 688.491 118.586 691.309 122.53C694.558 127.085 699.027 130.631 704.201 132.761C707.748 134.221 711.548 134.97 715.383 134.965C715.774 134.965 716.168 134.958 716.559 134.942C723.3 134.666 729.745 132.093 734.823 127.651C739.902 123.21 743.309 117.165 744.481 110.521C745.652 103.876 744.517 97.0308 741.264 91.1199C738.011 85.209 732.835 80.5877 726.595 78.0225C723.048 76.5622 719.248 75.8133 715.412 75.8182Z" fill="#FFA412"/>
<path d="M720.08 114.342C720.14 113.731 720.09 113.114 719.934 112.52C719.773 111.969 719.489 111.461 719.103 111.035C718.636 110.527 718.099 110.089 717.507 109.735C716.723 109.262 715.906 108.846 715.063 108.49C713.522 107.816 712.017 107.065 710.552 106.238C709.305 105.544 708.159 104.684 707.145 103.681C706.237 102.771 705.529 101.681 705.067 100.482C704.198 97.8862 704.389 95.0522 705.598 92.596C706.168 91.5095 706.961 90.5551 707.924 89.7949C708.949 88.9971 710.108 88.3886 711.346 87.9981C712.748 87.5558 714.209 87.3287 715.679 87.3246L716.09 82.1207L720.279 82.4516L719.862 87.7277C721.266 88.0106 722.613 88.5222 723.851 89.2423C724.995 89.9014 725.995 90.7834 726.792 91.8362C727.589 92.8889 728.167 94.0909 728.491 95.371C728.858 96.8212 728.976 98.3236 728.837 99.8133L721.272 99.2155C721.425 97.2713 721.108 95.7825 720.321 94.7491C719.922 94.2339 719.415 93.8128 718.836 93.5154C718.256 93.2181 717.618 93.0518 716.967 93.0284C716.278 92.9586 715.581 93.0159 714.912 93.1977C714.37 93.349 713.867 93.6183 713.441 93.9863C713.043 94.3409 712.729 94.7804 712.523 95.2724C712.302 95.7996 712.169 96.3594 712.129 96.9296C712.077 97.4831 712.122 98.0414 712.261 98.5796C712.413 99.1086 712.686 99.5951 713.059 100.001C713.529 100.51 714.07 100.948 714.666 101.302C715.486 101.798 716.335 102.245 717.208 102.641C718.85 103.406 720.339 104.176 721.674 104.951C722.916 105.654 724.057 106.522 725.066 107.531C726.027 108.481 726.76 109.638 727.207 110.914C727.654 112.19 727.804 113.55 727.647 114.893C727.564 116.213 727.207 117.501 726.598 118.675C726.023 119.756 725.226 120.702 724.258 121.451C723.227 122.236 722.06 122.824 720.815 123.186C719.4 123.601 717.933 123.814 716.457 123.82L716.077 128.659L711.914 128.331L712.295 123.516C710.873 123.26 709.487 122.831 708.169 122.237C706.884 121.664 705.72 120.854 704.736 119.848C703.733 118.804 702.969 117.554 702.497 116.185C701.956 114.549 701.77 112.816 701.95 111.101L709.515 111.699C709.407 112.68 709.495 113.672 709.772 114.618C709.995 115.35 710.389 116.019 710.921 116.569C711.419 117.07 712.024 117.452 712.69 117.687C713.362 117.928 714.063 118.078 714.775 118.134C715.506 118.205 716.244 118.156 716.96 117.988C717.547 117.849 718.1 117.594 718.586 117.236C719.027 116.905 719.386 116.477 719.634 115.985C719.889 115.472 720.04 114.914 720.08 114.342Z" fill="#FFA412"/>
<path d="M632.184 167.569C632.1 162.861 633.415 158.234 635.962 154.273C638.508 150.312 642.172 147.195 646.49 145.317C650.808 143.438 655.586 142.882 660.219 143.719C664.853 144.556 669.135 146.748 672.523 150.018C675.911 153.288 678.253 157.49 679.253 162.091C680.253 166.693 679.866 171.487 678.141 175.869C676.417 180.25 673.431 184.022 669.563 186.707C665.695 189.392 661.117 190.869 656.409 190.952C650.096 191.064 643.997 188.663 639.453 184.278C634.91 179.892 632.295 173.882 632.184 167.569Z" fill="#FFB93E"/>
<path d="M655.981 189.121C650.262 189.117 644.776 186.856 640.716 182.828C636.656 178.801 634.351 173.333 634.302 167.614C634.253 161.896 636.465 156.389 640.455 152.293C644.446 148.196 649.892 145.841 655.61 145.74C655.741 145.738 655.874 145.737 656.005 145.737C661.724 145.74 667.211 148.001 671.271 152.029C675.331 156.056 677.636 161.524 677.685 167.243C677.734 172.962 675.523 178.468 671.532 182.565C667.542 186.661 662.095 189.016 656.377 189.117C656.243 189.12 656.112 189.121 655.981 189.121ZM655.998 147.031C655.877 147.031 655.754 147.031 655.632 147.034C650.252 147.126 645.127 149.339 641.371 153.192C637.616 157.045 635.536 162.226 635.582 167.606C635.629 172.986 637.8 178.13 641.621 181.917C645.443 185.705 650.606 187.829 655.987 187.827C656.109 187.827 656.232 187.827 656.353 187.823C661.034 187.734 665.542 186.038 669.12 183.02C672.699 180.001 675.131 175.843 676.007 171.244C676.884 166.645 676.153 161.885 673.935 157.761C671.718 153.638 668.15 150.402 663.83 148.597C661.35 147.559 658.687 147.027 655.998 147.031V147.031Z" fill="#FFA412"/>
<path d="M659.09 173.671C659.14 173.25 659.115 172.824 659.016 172.412C658.914 172.03 658.726 171.675 658.466 171.376C658.152 171.018 657.788 170.708 657.385 170.455C656.852 170.117 656.295 169.818 655.719 169.56C654.666 169.073 653.64 168.532 652.642 167.94C651.793 167.444 651.015 166.833 650.331 166.125C649.718 165.485 649.246 164.723 648.945 163.89C648.385 162.086 648.558 160.135 649.429 158.459C649.838 157.718 650.4 157.072 651.076 156.562C651.794 156.027 652.602 155.625 653.462 155.374C654.436 155.09 655.447 154.955 656.46 154.975L656.822 151.392L659.705 151.682L659.339 155.315C660.303 155.531 661.224 155.903 662.067 156.418C662.847 156.89 663.523 157.513 664.057 158.251C664.591 158.989 664.971 159.826 665.175 160.714C665.408 161.72 665.466 162.758 665.348 163.783L660.14 163.259C660.275 161.92 660.079 160.888 659.551 160.164C659.283 159.803 658.94 159.505 658.545 159.291C658.15 159.078 657.712 158.953 657.263 158.928C656.789 158.869 656.308 158.898 655.844 159.012C655.468 159.108 655.117 159.286 654.818 159.534C654.537 159.772 654.314 160.071 654.165 160.407C654.005 160.767 653.905 161.151 653.869 161.544C653.825 161.925 653.848 162.31 653.936 162.683C654.033 163.05 654.214 163.39 654.464 163.675C654.782 164.033 655.149 164.344 655.555 164.597C656.113 164.951 656.693 165.272 657.289 165.558C658.41 166.11 659.426 166.663 660.335 167.217C661.181 167.721 661.955 168.336 662.636 169.047C663.285 169.717 663.772 170.525 664.061 171.412C664.35 172.298 664.433 173.238 664.305 174.162C664.227 175.071 663.959 175.955 663.52 176.755C663.108 177.492 662.544 178.133 661.866 178.635C661.143 179.161 660.329 179.549 659.466 179.78C658.483 180.044 657.469 180.17 656.452 180.152L656.116 183.483L653.251 183.194L653.585 179.88C652.608 179.683 651.658 179.365 650.759 178.936C649.881 178.522 649.09 177.946 648.426 177.238C647.75 176.503 647.242 175.629 646.937 174.678C646.589 173.542 646.486 172.345 646.635 171.167L651.843 171.691C651.755 172.366 651.8 173.051 651.976 173.708C652.12 174.216 652.382 174.683 652.74 175.071C653.077 175.423 653.488 175.696 653.944 175.868C654.404 176.044 654.885 176.157 655.375 176.206C655.878 176.267 656.388 176.244 656.884 176.139C657.291 176.052 657.676 175.883 658.017 175.644C658.326 175.423 658.579 175.133 658.758 174.798C658.941 174.447 659.054 174.064 659.09 173.671Z" fill="#FFA412"/>
<path d="M531.926 94.0806C528.314 83.1728 528.018 71.4389 531.075 60.3627C534.132 49.2866 540.405 39.3656 549.1 31.8545C557.795 24.3433 568.523 19.5793 579.925 18.1649C591.328 16.7505 602.895 18.7492 613.162 23.9083C623.428 29.0673 631.935 37.155 637.605 47.1486C643.276 57.1423 645.855 68.5929 645.018 80.0526C644.181 91.5123 639.964 102.466 632.901 111.53C625.838 120.593 616.246 127.358 605.338 130.97C590.711 135.813 574.76 134.647 560.992 127.729C547.225 120.811 536.77 108.707 531.926 94.0806Z" fill="#FFB93E"/>
<path d="M587.241 129.429C583.165 129.428 579.104 128.951 575.138 128.008C571.117 127.048 567.22 125.625 563.527 123.767C551.93 117.948 542.874 108.073 538.078 96.0167C533.283 83.9606 533.082 70.5632 537.513 58.3686C541.945 46.1741 550.701 36.0319 562.119 29.868C573.536 23.7042 586.819 21.948 599.446 24.933C603.468 25.8928 607.366 27.3163 611.06 29.1748C621.696 34.5395 630.213 43.3331 635.235 54.1353C640.258 64.9374 641.492 77.1173 638.738 88.7072C635.984 100.297 629.404 110.62 620.06 118.009C610.716 125.398 599.153 129.421 587.241 129.429ZM587.254 26.6922C576.698 26.6862 566.414 30.0384 557.889 36.2637C549.365 42.4891 543.041 51.2649 539.834 61.3217C536.627 71.3785 536.702 82.1949 540.048 92.2062C543.395 102.218 549.839 110.905 558.449 117.011C562.625 119.975 567.231 122.282 572.106 123.851C581.838 126.991 592.303 127.049 602.069 124.014C611.835 120.98 620.425 115.002 626.664 106.899C632.562 99.2497 636.121 90.0568 636.91 80.4298C637.605 71.8476 636.055 63.2321 632.413 55.4299C628.771 47.6278 623.162 40.9074 616.137 35.9292C611.961 32.965 607.355 30.6584 602.48 29.0897C597.561 27.5024 592.424 26.6936 587.255 26.6926L587.254 26.6922Z" fill="#FFA412"/>
<path d="M599.041 88.7643C598.852 87.7487 598.485 86.7746 597.956 85.8874C597.438 85.0704 596.742 84.3815 595.92 83.8727C594.929 83.2682 593.855 82.8102 592.733 82.5129C591.245 82.112 589.73 81.8196 588.201 81.638C585.395 81.266 582.609 80.7514 579.856 80.0959C577.517 79.5555 575.262 78.6984 573.154 77.5481C571.262 76.5007 569.609 75.0686 568.303 73.3441C565.688 69.5503 564.676 64.8781 565.487 60.3426C565.904 58.3188 566.742 56.4056 567.948 54.7275C569.232 52.9595 570.823 51.4352 572.644 50.2265C574.706 48.8582 576.963 47.8105 579.339 47.119L577.579 38.5111L584.507 37.0947L586.292 45.8227C588.694 45.6254 591.112 45.8246 593.449 46.4124C595.607 46.9455 597.635 47.9061 599.415 49.2375C601.194 50.5688 602.688 52.2438 603.808 54.1632C605.079 56.3379 605.969 58.714 606.439 61.1887L593.926 63.747C593.268 60.5294 592.062 58.2687 590.306 56.9648C588.551 55.6608 586.475 55.254 584.08 55.7442C582.932 55.9517 581.832 56.3686 580.835 56.9741C580.028 57.4715 579.341 58.1413 578.822 58.9354C578.343 59.6944 578.041 60.5511 577.936 61.4426C577.825 62.3981 577.87 63.3654 578.071 64.3064C578.246 65.2254 578.579 66.1071 579.055 66.9125C579.547 67.6973 580.214 68.357 581.005 68.8396C582.004 69.4436 583.085 69.8996 584.214 70.1934C585.771 70.6133 587.352 70.9408 588.948 71.1741C591.961 71.6477 594.728 72.1994 597.248 72.8292C599.584 73.3881 601.834 74.2603 603.936 75.4222C605.934 76.511 607.656 78.0409 608.974 79.8957C610.291 81.7505 611.168 83.8813 611.537 86.126C612.019 88.2997 612.041 90.5499 611.602 92.7327C611.177 94.748 610.328 96.6499 609.111 98.3122C607.809 100.062 606.196 101.557 604.351 102.722C602.256 104.053 599.983 105.082 597.601 105.779L599.237 113.782L592.353 115.19L590.724 107.226C588.304 107.475 585.862 107.426 583.454 107.078C581.109 106.751 578.848 105.983 576.789 104.816C574.68 103.593 572.862 101.928 571.461 99.9334C569.95 97.8395 568.866 95.1837 568.208 91.9661L580.722 89.4082C581.006 91.0442 581.609 92.6082 582.499 94.0104C583.202 95.0898 584.15 95.9873 585.267 96.6296C586.306 97.2079 587.462 97.5445 588.649 97.6145C589.848 97.69 591.052 97.6057 592.229 97.3637C593.445 97.1382 594.615 96.7151 595.694 96.111C596.579 95.6127 597.355 94.941 597.974 94.136C598.533 93.3958 598.914 92.5363 599.085 91.6247C599.258 90.6775 599.243 89.7056 599.041 88.7643Z" fill="#FFA412"/>
<path d="M357.79 59.8451C352.568 61.1495 347.583 62.3946 342.92 63.1925C327.821 65.7732 316.156 63.6447 311.128 43.5166C306.101 23.3884 315.394 16.021 329.934 11.2001C334.424 9.71212 339.41 8.467 344.631 7.16267C355.792 4.37461 368.145 5.60576 377.983 8.83551C387.66 12.0162 394.902 17.1316 396.186 22.2715C397.648 28.1243 393.663 36.0502 386.573 43.228C379.366 50.5303 368.951 57.0575 357.79 59.8451Z" fill="#00DA9F"/>
<path d="M329.934 11.2L312.783 0L285.706 5.76904L313.829 25.5266L329.934 11.2Z" fill="#163560"/>
<path d="M342.879 63.0279L333.008 80.9773L306.401 88.6167L321.93 57.9565L342.879 63.0279Z" fill="#163560"/>
<path d="M342.92 63.1925C327.821 65.7733 316.156 63.6448 311.128 43.5166C306.101 23.3885 315.394 16.0211 329.934 11.2001L342.92 63.1925Z" fill="#163560"/>
<path d="M275.874 52.3212C280.898 40.6133 287.809 35.661 296.604 37.4641C310.064 40.2226 308.366 54.7255 298.267 56.0548C288.168 57.3841 281.766 50.8493 275.874 52.3212Z" fill="#F77D48"/>
<path d="M356.137 18.0352C358.634 17.4116 361.26 17.5424 363.683 18.4111C366.105 19.2798 368.216 20.8475 369.748 22.9158C371.28 24.9841 372.164 27.4602 372.289 30.031C372.413 32.6018 371.773 35.1519 370.448 37.3587C369.124 39.5655 367.174 41.3299 364.847 42.4289C362.52 43.5279 359.919 43.9121 357.373 43.5329C354.827 43.1537 352.451 42.0281 350.545 40.2985C348.639 38.5689 347.289 36.3129 346.665 33.8159C346.25 32.1578 346.167 30.4343 346.418 28.7438C346.67 27.0533 347.252 25.429 348.132 23.9636C349.012 22.4982 350.171 21.2204 351.545 20.2032C352.918 19.186 354.479 18.4493 356.137 18.0352Z" fill="#163560"/>
<path d="M359.29 44.5437C357.756 44.5437 356.233 44.2878 354.783 43.7864C351.894 42.79 349.412 40.8726 347.718 38.3288C346.113 35.912 345.306 33.0529 345.411 30.1537C345.515 27.2545 346.526 24.4609 348.301 22.166C350.075 19.8711 352.525 18.1902 355.305 17.3599C358.085 16.5296 361.055 16.5916 363.797 17.5372C366.688 18.5337 369.171 20.4519 370.865 22.997C372.25 25.089 373.042 27.5171 373.157 30.0232C373.272 32.5293 372.706 35.0197 371.519 37.2298C370.332 39.44 368.568 41.2872 366.416 42.5753C364.263 43.8634 361.801 44.5442 359.293 44.5454L359.29 44.5437ZM359.29 18.5132C356.235 18.5086 353.29 19.6527 351.04 21.7185C348.789 23.7843 347.398 26.6208 347.141 29.6649C346.885 32.7091 347.782 35.7384 349.656 38.1516C351.529 40.5648 354.241 42.1854 357.254 42.6919C360.266 43.1983 363.359 42.5535 365.919 40.8854C368.478 39.2173 370.317 36.648 371.07 33.6872C371.823 30.7265 371.435 27.591 369.983 24.9028C368.532 22.2147 366.123 20.1706 363.234 19.1762C361.965 18.7382 360.631 18.5141 359.288 18.5132H359.29Z" fill="#00DA9F"/>
<path d="M386.573 43.2281L377.984 8.83557C387.662 12.0162 394.903 17.1316 396.187 22.2716C397.647 28.1244 393.662 36.0494 386.573 43.2281Z" fill="#F77D48"/>
<path d="M775.733 232.081C793.263 250.257 802.443 262.766 803.271 269.608C804.1 276.45 799.901 285.21 790.675 295.889L775.733 232.081Z" fill="#ED7D2B"/>
<path d="M763.85 514.638C763.231 524.279 761.989 529.166 760.123 529.301C759.875 529.318 755.144 529.317 745.93 529.297L728.288 529.157C728.372 526.323 730.133 524.61 733.572 524.018C738.731 523.13 747.37 519.525 750.509 512.716C752.71 507.941 757.157 508.581 763.85 514.638Z" fill="#2E5A99"/>
<path d="M803.145 514.723C802.527 524.364 801.285 529.252 799.419 529.386C799.171 529.403 794.44 529.402 785.226 529.382L767.584 529.242C767.667 526.408 769.428 524.695 772.867 524.103C778.026 523.215 786.666 519.61 789.804 512.801C792.006 508.026 796.453 508.667 803.145 514.723Z" fill="#18417C"/>
<path d="M744.65 359.151C747.683 378.831 754.9 406.146 766.299 441.095C777.698 476.044 784.163 501.082 785.694 516.209L804.161 515.731C804.349 477.563 801.818 449.693 796.568 432.119C791.318 414.545 790.815 382.888 795.061 337.145L744.65 359.151Z" fill="#163560"/>
<path d="M735.708 338.632C735.208 368.278 737.483 401.308 742.534 437.721C747.585 474.134 749.224 500.064 747.451 515.512L765.878 516.165C773.299 479.765 775.977 452.454 773.911 434.229C771.845 416.005 776.94 384.756 789.196 340.481L735.708 338.632Z" fill="#1C468A"/>
<path d="M771.609 234.644L761.776 241.059L747.593 238.384C747.791 237.239 748.738 232.493 749.601 228.195C749.653 227.941 749.705 227.687 749.754 227.44C750.246 225.002 750.705 222.735 751.131 220.641L764.397 214.822L769.342 212.653C769.329 212.73 768.951 216.712 768.898 217.294C768.264 224.176 769.168 229.959 771.609 234.644Z" fill="#FFB27D"/>
<path d="M751.242 231.351C751.518 231.235 768.341 226.311 770.166 226.918C771.383 227.322 772.349 228.703 773.065 231.061L745.552 237.218C747.001 234.287 748.898 232.331 751.242 231.351Z" fill="#ED7D2B"/>
<path d="M796.27 344.255C793.393 357.249 745.96 358.687 733.76 346.86C732.373 345.512 732.318 339.254 732.861 330.817C733.922 314.334 737.271 289.543 737.426 276.873C737.566 270.805 738.256 264.762 739.489 258.818C740.893 251.459 742.922 244.232 745.552 237.216C761.006 232.257 770.177 230.205 773.064 231.06C793.935 237.242 799.148 331.261 796.27 344.255Z" fill="#F99746"/>
<path d="M732.861 330.817C733.923 314.334 737.271 289.543 737.427 276.873C737.567 270.805 738.257 264.762 739.49 258.818L753.43 256.389C762.432 293.509 755.575 318.318 732.861 330.817Z" fill="#ED7D2B"/>
<path d="M740.457 307.855C741.087 309.37 740.736 310.634 739.404 311.648C737.405 313.168 736.106 315.635 736.559 317.441C737.012 319.247 741.382 322.2 742.899 321.729C744.416 321.258 747.51 318.887 747.179 317.935C746.847 316.982 749.273 309.584 745.582 306.726C743.121 304.821 741.412 305.197 740.457 307.855Z" fill="#FFB27D"/>
<path d="M756.199 233.904C747.135 235.58 738.982 241.73 731.74 252.353C720.876 268.288 713.726 280.138 715.709 285.893C717.692 291.649 735.831 311.637 738.965 311.644C742.1 311.651 747.164 309.381 747.46 304.252C738.953 291.442 735.542 284.081 737.228 282.168C738.308 280.941 753.878 268.358 756.085 274.063C758.519 280.356 758.557 266.97 756.199 233.904Z" fill="#F99746"/>
<path d="M767.902 217.474C764.983 222.398 754.127 226.637 749.6 228.195C749.652 227.941 749.704 227.687 749.753 227.44C750.246 225.002 750.705 222.735 751.13 220.641L764.396 214.822C767.325 214.788 769.107 215.448 767.902 217.474Z" fill="#FCA56B"/>
<path d="M746.136 219.824C760.359 224.295 768.795 222.08 771.443 213.18C775.414 199.83 780.842 191.704 767.389 186.858C753.936 182.012 749.762 186.315 747.351 190.448C744.941 194.581 740.689 217.735 746.136 219.824Z" fill="#FFB27D"/>
<path d="M748.194 189.164C749.079 199.529 750.593 204.489 752.737 204.044C755.952 203.376 758.872 202.882 758.389 207.567C757.907 212.252 753.439 217.653 763.344 218.504C773.249 219.354 787.549 193.834 784.837 188.991C777.014 175.015 736.882 172.11 748.194 189.164Z" fill="#163560"/>
<path d="M644.744 520.329V525.923C644.74 526.363 644.584 526.788 644.303 527.126C643.988 527.504 643.57 527.783 643.1 527.929C642.947 527.983 642.79 528.021 642.63 528.043C642.479 528.066 642.328 528.077 642.176 528.076H536.103C534.821 528.076 533.75 527.277 533.562 526.243C533.552 526.174 533.542 526.104 533.539 526.032C533.539 525.995 533.535 525.959 533.535 525.922V520.329C533.535 520.292 533.539 520.256 533.539 520.219C533.542 520.147 533.552 520.077 533.562 520.008C533.75 518.974 534.821 518.176 536.103 518.176H642.176C642.328 518.175 642.479 518.186 642.63 518.209C642.789 518.232 642.947 518.27 643.1 518.321C643.57 518.468 643.987 518.747 644.303 519.125C644.584 519.463 644.74 519.889 644.744 520.329Z" fill="#FFB93E"/>
<path d="M592.655 528.076H535.828C535.338 528.084 534.859 527.932 534.461 527.645C534.064 527.357 533.77 526.949 533.624 526.481C533.598 526.403 533.577 526.324 533.562 526.243C533.552 526.174 533.542 526.104 533.539 526.032C533.539 525.995 533.535 525.959 533.535 525.923V520.329C533.535 520.292 533.539 520.256 533.539 520.22C533.542 520.147 533.552 520.077 533.562 520.008C533.577 519.927 533.598 519.848 533.624 519.77C533.77 519.302 534.064 518.894 534.461 518.607C534.859 518.319 535.338 518.168 535.828 518.175H585.678C586.739 522.207 589.216 525.721 592.655 528.076Z" fill="#FFA412"/>
<path d="M631.837 518.172H630.631V528.076H631.837V518.172Z" fill="#FFA412"/>
<path d="M627.754 518.172H626.548V528.076H627.754V518.172Z" fill="#FFA412"/>
<path d="M622.862 518.172H621.657V528.076H622.862V518.172Z" fill="#FFA412"/>
<path d="M615.362 518.172H614.156V528.076H615.362V518.172Z" fill="#FFA412"/>
<path d="M607.429 518.172H606.224V528.076H607.429V518.172Z" fill="#FFA412"/>
<path d="M595.269 518.172H594.063V528.076H595.269V518.172Z" fill="#FFA412"/>
<path d="M583.88 518.172H582.675V528.076H583.88V518.172Z" fill="#FFA412"/>
<path d="M573.714 518.172H572.508V528.076H573.714V518.172Z" fill="#FFA412"/>
<path d="M635.719 518.172H634.513V528.076H635.719V518.172Z" fill="#FFA412"/>
<path d="M638.288 518.172H637.083V528.076H638.288V518.172Z" fill="#FFA412"/>
<path d="M640.763 518.172H639.558V528.076H640.763V518.172Z" fill="#FFA412"/>
<path d="M642.629 518.208V528.042C642.479 528.065 642.328 528.076 642.176 528.076H641.423V518.174H642.176C642.328 518.174 642.479 518.185 642.629 518.208Z" fill="#FFA412"/>
<path d="M644.304 519.125V527.124C643.988 527.503 643.57 527.784 643.099 527.93V518.319C643.57 518.465 643.989 518.746 644.304 519.125Z" fill="#FFA412"/>
<path d="M633.4 510.427V516.017C633.396 516.457 633.242 516.883 632.963 517.223C632.888 517.313 632.807 517.398 632.721 517.477C632.317 517.832 631.818 518.061 631.286 518.137C631.137 518.161 630.986 518.173 630.835 518.173H524.76C523.481 518.173 522.41 517.37 522.221 516.337C522.211 516.268 522.202 516.198 522.198 516.129C522.195 516.092 522.195 516.056 522.195 516.016V510.426C522.195 510.389 522.195 510.35 522.198 510.313C522.202 510.243 522.211 510.174 522.221 510.104C522.41 509.071 523.481 508.268 524.76 508.268H630.835C630.901 508.268 630.971 508.272 631.038 508.278C631.062 508.279 631.087 508.281 631.111 508.285C631.112 508.283 631.115 508.282 631.117 508.282C631.119 508.282 631.122 508.283 631.123 508.285C631.156 508.285 631.188 508.289 631.22 508.295L631.286 508.305C631.446 508.328 631.603 508.364 631.757 508.414C631.846 508.444 631.932 508.477 632.015 508.513H632.019C632.075 508.54 632.131 508.567 632.184 508.593C632.214 508.61 632.247 508.63 632.277 508.647C632.306 508.662 632.334 508.68 632.361 508.699C632.472 508.765 632.577 508.842 632.673 508.928C632.706 508.955 632.732 508.984 632.762 509.013C632.782 509.029 632.798 509.046 632.815 509.062C632.825 509.071 632.834 509.081 632.842 509.092L632.865 509.115C632.9 509.149 632.932 509.186 632.962 509.225C633.241 509.563 633.396 509.988 633.4 510.427Z" fill="#FFB93E"/>
<path d="M581.313 518.174H524.485C523.995 518.181 523.516 518.028 523.119 517.74C522.723 517.452 522.43 517.043 522.285 516.575C522.259 516.498 522.238 516.419 522.223 516.339C522.213 516.269 522.204 516.2 522.2 516.13C522.197 516.093 522.197 516.057 522.197 516.017V510.427C522.197 510.391 522.197 510.351 522.2 510.315C522.204 510.245 522.213 510.175 522.223 510.106C522.238 510.026 522.259 509.947 522.285 509.87C522.43 509.401 522.723 508.993 523.119 508.704C523.516 508.416 523.995 508.264 524.485 508.27H574.335C574.355 508.355 574.378 508.433 574.405 508.515C575.498 512.448 577.944 515.869 581.313 518.174Z" fill="#FFA412"/>
<path d="M620.492 508.272H619.286V518.176H620.492V508.272Z" fill="#FFA412"/>
<path d="M616.415 508.272H615.209V518.176H616.415V508.272Z" fill="#FFA412"/>
<path d="M611.519 508.272H610.314V518.176H611.519V508.272Z" fill="#FFA412"/>
<path d="M604.019 508.272H602.813V518.176H604.019V508.272Z" fill="#FFA412"/>
<path d="M596.086 508.272H594.881V518.176H596.086V508.272Z" fill="#FFA412"/>
<path d="M583.926 508.272H582.72V518.176H583.926V508.272Z" fill="#FFA412"/>
<path d="M572.541 508.272H571.335V518.176H572.541V508.272Z" fill="#FFA412"/>
<path d="M562.376 508.273H561.17V518.177H562.376V508.273Z" fill="#FFA412"/>
<path d="M624.376 508.272H623.17V518.176H624.376V508.272Z" fill="#FFA412"/>
<path d="M626.945 508.272H625.74V518.176H626.945V508.272Z" fill="#FFA412"/>
<path d="M629.424 508.272H628.218V518.176H629.424V508.272Z" fill="#FFA412"/>
<path d="M631.286 508.305V518.139C631.136 518.162 630.985 518.173 630.834 518.173H630.08V508.271H630.834C630.985 508.27 631.136 508.282 631.286 508.305Z" fill="#FFA412"/>
<path d="M632.961 509.223V517.221C632.645 517.6 632.227 517.881 631.756 518.027V508.416C632.227 508.563 632.645 508.843 632.961 509.223Z" fill="#FFA412"/>
<path d="M638.882 500.768V506.361C638.878 506.801 638.723 507.226 638.441 507.564C638.127 507.943 637.709 508.223 637.238 508.368C637.085 508.418 636.927 508.456 636.768 508.481C636.619 508.502 636.468 508.513 636.318 508.514H530.242C529.834 508.515 529.431 508.432 529.057 508.269C528.722 508.136 528.424 507.925 528.188 507.652C527.952 507.38 527.786 507.054 527.703 506.704C527.693 506.658 527.69 506.611 527.683 506.565C527.68 506.535 527.676 506.502 527.676 506.468C527.676 506.435 527.673 506.396 527.673 506.359V500.765C527.673 500.729 527.673 500.692 527.676 500.656C527.679 500.586 527.687 500.516 527.7 500.447C527.888 499.41 528.959 498.612 530.238 498.612H636.317C636.467 498.611 636.618 498.622 636.767 498.645C636.927 498.667 637.084 498.704 637.237 498.754C637.708 498.903 638.125 499.183 638.441 499.563C638.723 499.901 638.879 500.327 638.882 500.768Z" fill="#FFB93E"/>
<path d="M586.797 508.515H529.968C529.603 508.515 529.242 508.431 528.915 508.27C528.604 508.123 528.333 507.904 528.123 507.632C527.914 507.36 527.772 507.042 527.709 506.704C527.699 506.658 527.696 506.612 527.688 506.565C527.686 506.536 527.682 506.502 527.682 506.469C527.682 506.436 527.679 506.396 527.679 506.36V500.766C527.679 500.73 527.679 500.693 527.682 500.656C527.685 500.586 527.693 500.517 527.705 500.448C527.72 500.37 527.74 500.292 527.765 500.217C527.908 499.747 528.201 499.336 528.599 499.046C528.996 498.757 529.477 498.605 529.969 498.612H579.819C580.845 502.501 583.188 505.913 586.449 508.268C586.561 508.353 586.677 508.435 586.797 508.515Z" fill="#FFA412"/>
<path d="M625.978 498.613H624.772V508.517H625.978V498.613Z" fill="#FFA412"/>
<path d="M621.895 498.613H620.689V508.517H621.895V498.613Z" fill="#FFA412"/>
<path d="M617 498.613H615.794V508.517H617V498.613Z" fill="#FFA412"/>
<path d="M609.498 498.613H608.293V508.517H609.498V498.613Z" fill="#FFA412"/>
<path d="M601.57 498.613H600.365V508.517H601.57V498.613Z" fill="#FFA412"/>
<path d="M589.406 498.613H588.2V508.517H589.406V498.613Z" fill="#FFA412"/>
<path d="M578.021 498.613H576.815V508.517H578.021V498.613Z" fill="#FFA412"/>
<path d="M567.856 498.614H566.65V508.518H567.856V498.614Z" fill="#FFA412"/>
<path d="M629.86 498.613H628.654V508.517H629.86V498.613Z" fill="#FFA412"/>
<path d="M632.425 498.613H631.219V508.517H632.425V498.613Z" fill="#FFA412"/>
<path d="M634.904 498.613H633.698V508.517H634.904V498.613Z" fill="#FFA412"/>
<path d="M636.77 498.647V508.48C636.62 508.503 636.469 508.515 636.317 508.515H635.564V498.613H636.317C636.469 498.612 636.62 498.624 636.77 498.647Z" fill="#FFA412"/>
<path d="M638.443 499.564V507.565C638.128 507.945 637.709 508.225 637.238 508.372V498.759C637.709 498.906 638.127 499.185 638.443 499.564Z" fill="#FFA412"/>
<path d="M641.425 490.867V496.457C641.422 496.897 641.266 497.322 640.984 497.66C640.948 497.706 640.908 497.749 640.868 497.793C640.659 498.014 640.411 498.195 640.137 498.326C640.021 498.381 639.903 498.429 639.782 498.469C639.628 498.519 639.471 498.556 639.311 498.578C639.238 498.588 639.165 498.598 639.089 498.605C639.013 498.612 638.933 498.615 638.857 498.615H532.785C531.503 498.615 530.433 497.811 530.243 496.779C530.232 496.71 530.224 496.64 530.22 496.571V490.755C530.286 489.705 531.253 488.851 532.48 488.727C532.579 488.717 532.682 488.711 532.785 488.711H638.857C638.933 488.711 639.012 488.714 639.089 488.72C639.165 488.727 639.238 488.734 639.311 488.747C639.47 488.77 639.628 488.806 639.781 488.856C640.251 489.003 640.669 489.282 640.984 489.66C641.266 489.999 641.422 490.426 641.425 490.867Z" fill="#FFB93E"/>
<path d="M589.338 498.615H532.51C532.019 498.621 531.54 498.469 531.142 498.181C530.745 497.893 530.452 497.485 530.305 497.016C530.279 496.939 530.258 496.86 530.243 496.779C530.232 496.71 530.224 496.64 530.22 496.571V490.755C530.265 490.234 530.492 489.745 530.861 489.375C531.229 489.004 531.717 488.774 532.237 488.727C532.328 488.717 532.419 488.711 532.509 488.711H582.359C582.359 488.717 582.363 488.72 582.363 488.727C583.427 492.752 585.903 496.262 589.338 498.615Z" fill="#FFA412"/>
<path d="M628.516 488.709H627.31V498.613H628.516V488.709Z" fill="#FFA412"/>
<path d="M624.439 488.709H623.233V498.613H624.439V488.709Z" fill="#FFA412"/>
<path d="M619.543 488.709H618.338V498.613H619.543V488.709Z" fill="#FFA412"/>
<path d="M612.042 488.709H610.837V498.613H612.042V488.709Z" fill="#FFA412"/>
<path d="M604.109 488.709H602.903V498.613H604.109V488.709Z" fill="#FFA412"/>
<path d="M591.95 488.709H590.744V498.613H591.95V488.709Z" fill="#FFA412"/>
<path d="M580.565 488.709H579.359V498.613H580.565V488.709Z" fill="#FFA412"/>
<path d="M570.399 488.709H569.193V498.613H570.399V488.709Z" fill="#FFA412"/>
<path d="M632.4 488.709H631.194V498.613H632.4V488.709Z" fill="#FFA412"/>
<path d="M634.969 488.709H633.763V498.613H634.969V488.709Z" fill="#FFA412"/>
<path d="M637.448 488.709H636.242V498.613H637.448V488.709Z" fill="#FFA412"/>
<path d="M639.31 488.744V498.578C639.16 498.601 639.009 498.612 638.858 498.612H638.104V488.71H638.858C639.009 488.71 639.16 488.721 639.31 488.744Z" fill="#FFA412"/>
<path d="M640.984 489.662V497.66C640.669 498.04 640.251 498.32 639.78 498.467V488.854C640.251 489.002 640.669 489.282 640.984 489.662Z" fill="#FFA412"/>
<path d="M633.624 480.979V486.568C633.622 487.008 633.468 487.433 633.187 487.771C632.872 488.153 632.453 488.434 631.98 488.58C631.828 488.63 631.672 488.667 631.513 488.689C631.464 488.699 631.414 488.706 631.364 488.709H631.344C631.318 488.713 631.291 488.716 631.264 488.716C631.241 488.72 631.222 488.72 631.195 488.723C631.148 488.723 631.105 488.726 631.059 488.726H524.987C523.619 488.726 522.491 487.815 522.422 486.682C522.419 486.645 522.419 486.609 522.419 486.569V480.979C522.419 480.942 522.419 480.902 522.422 480.866C522.422 480.837 522.426 480.806 522.429 480.777C522.514 480.301 522.745 479.864 523.09 479.526C523.435 479.188 523.877 478.966 524.354 478.891C524.379 478.884 524.405 478.879 524.431 478.875C524.614 478.84 524.8 478.823 524.987 478.822H631.059C631.139 478.822 631.212 478.825 631.288 478.832C631.321 478.835 631.354 478.839 631.384 478.842H631.394C631.434 478.845 631.474 478.852 631.513 478.858C631.672 478.881 631.828 478.918 631.98 478.968C632.453 479.114 632.872 479.395 633.187 479.776C633.467 480.114 633.622 480.539 633.624 480.979Z" fill="#FFB93E"/>
<path d="M581.537 488.725H524.71C524.14 488.74 523.586 488.536 523.161 488.157C522.736 487.777 522.471 487.25 522.421 486.682C522.417 486.645 522.417 486.608 522.417 486.568V480.979C522.417 480.942 522.417 480.902 522.421 480.866C522.421 480.836 522.424 480.806 522.427 480.776C522.485 480.312 522.688 479.879 523.008 479.537C523.328 479.196 523.747 478.965 524.207 478.878C524.238 478.868 524.27 478.861 524.302 478.858C524.437 478.834 524.574 478.822 524.711 478.821H574.557C574.564 478.848 574.57 478.868 574.577 478.895C575.646 482.888 578.105 486.368 581.513 488.71C581.521 488.716 581.529 488.719 581.537 488.725Z" fill="#FFA412"/>
<path d="M620.717 478.821H619.512V488.725H620.717V478.821Z" fill="#FFA412"/>
<path d="M616.634 478.821H615.429V488.725H616.634V478.821Z" fill="#FFA412"/>
<path d="M611.743 478.821H610.537V488.725H611.743V478.821Z" fill="#FFA412"/>
<path d="M604.242 478.821H603.036V488.725H604.242V478.821Z" fill="#FFA412"/>
<path d="M596.31 478.821H595.104V488.725H596.31V478.821Z" fill="#FFA412"/>
<path d="M584.152 478.821H582.946V488.725H584.152V478.821Z" fill="#FFA412"/>
<path d="M572.761 478.821H571.555V488.725H572.761V478.821Z" fill="#FFA412"/>
<path d="M562.595 478.821H561.39V488.726H562.595V478.821Z" fill="#FFA412"/>
<path d="M624.602 478.821H623.396V488.725H624.602V478.821Z" fill="#FFA412"/>
<path d="M627.169 478.821H625.963V488.725H627.169V478.821Z" fill="#FFA412"/>
<path d="M629.644 478.821H628.438V488.725H629.644V478.821Z" fill="#FFA412"/>
<path d="M631.509 478.857V488.69C631.359 488.713 631.208 488.725 631.057 488.725H630.304V478.823H631.057C631.208 478.823 631.359 478.834 631.509 478.857Z" fill="#FFA412"/>
<path d="M633.184 479.774V487.773C632.869 488.152 632.451 488.432 631.98 488.579V478.967C632.451 479.114 632.869 479.394 633.184 479.774Z" fill="#FFA412"/>
<path d="M633.4 471.148V476.739C633.396 477.178 633.242 477.603 632.963 477.942C632.888 478.032 632.807 478.119 632.721 478.2C632.442 478.449 632.113 478.636 631.757 478.75C631.638 478.789 631.516 478.82 631.392 478.843H631.383C631.351 478.85 631.319 478.855 631.287 478.859C631.138 478.883 630.987 478.895 630.836 478.896H524.76C524.649 478.896 524.539 478.889 524.429 478.876C524.387 478.872 524.344 478.866 524.302 478.859C523.808 478.809 523.342 478.607 522.969 478.281C522.595 477.954 522.333 477.519 522.218 477.037C522.208 476.974 522.202 476.914 522.198 476.85C522.195 476.811 522.195 476.774 522.195 476.738V471.148C522.195 471.108 522.195 471.072 522.198 471.036C522.202 470.966 522.211 470.897 522.221 470.827C522.41 469.793 523.481 468.991 524.76 468.991H630.835C630.901 468.991 630.971 468.994 631.038 468.998C631.047 468.998 631.057 469.001 631.064 469.001C631.084 469.004 631.104 469.005 631.123 469.005C631.153 469.008 631.187 469.012 631.22 469.018C631.242 469.018 631.265 469.021 631.286 469.028C631.446 469.05 631.603 469.087 631.757 469.137C631.846 469.167 631.932 469.2 632.015 469.236H632.019C632.338 469.376 632.626 469.579 632.865 469.832C632.898 469.869 632.931 469.906 632.961 469.942C633.241 470.282 633.396 470.708 633.4 471.148Z" fill="#FFB93E"/>
<path d="M581.315 478.895H524.487C524.444 478.895 524.397 478.891 524.354 478.891C524.304 478.888 524.255 478.881 524.208 478.878C523.721 478.83 523.263 478.624 522.904 478.292C522.545 477.959 522.305 477.518 522.22 477.036C522.21 476.973 522.204 476.914 522.2 476.85C522.197 476.81 522.197 476.774 522.197 476.738V471.148C522.197 471.108 522.197 471.071 522.2 471.035C522.204 470.966 522.213 470.896 522.223 470.826C522.238 470.746 522.259 470.667 522.285 470.589C522.43 470.121 522.723 469.713 523.119 469.424C523.516 469.136 523.995 468.984 524.485 468.99H574.337C574.357 469.075 574.379 469.153 574.407 469.235C575.488 473.126 577.896 476.517 581.213 478.822C581.245 478.848 581.282 478.869 581.315 478.895Z" fill="#FFA412"/>
<path d="M620.492 468.989H619.286V478.893H620.492V468.989Z" fill="#FFA412"/>
<path d="M616.415 468.989H615.209V478.893H616.415V468.989Z" fill="#FFA412"/>
<path d="M611.519 468.989H610.314V478.893H611.519V468.989Z" fill="#FFA412"/>
<path d="M604.019 468.989H602.813V478.893H604.019V468.989Z" fill="#FFA412"/>
<path d="M596.086 468.989H594.881V478.893H596.086V468.989Z" fill="#FFA412"/>
<path d="M583.926 468.989H582.72V478.893H583.926V468.989Z" fill="#FFA412"/>
<path d="M572.541 468.989H571.335V478.893H572.541V468.989Z" fill="#FFA412"/>
<path d="M562.376 468.989H561.17V478.894H562.376V468.989Z" fill="#FFA412"/>
<path d="M624.376 468.989H623.17V478.893H624.376V468.989Z" fill="#FFA412"/>
<path d="M626.945 468.989H625.74V478.893H626.945V468.989Z" fill="#FFA412"/>
<path d="M629.424 468.989H628.218V478.893H629.424V468.989Z" fill="#FFA412"/>
<path d="M631.286 469.025V478.858C631.136 478.881 630.985 478.893 630.834 478.893H630.08V468.991H630.834C630.985 468.991 631.136 469.002 631.286 469.025Z" fill="#FFA412"/>
<path d="M632.961 469.942V477.941C632.645 478.32 632.227 478.601 631.756 478.747V469.135C632.227 469.282 632.645 469.563 632.961 469.942Z" fill="#FFA412"/>
<path d="M638.882 461.489V467.078C638.879 467.519 638.723 467.945 638.441 468.284C638.127 468.663 637.709 468.942 637.238 469.088C637.085 469.139 636.928 469.175 636.768 469.198C636.619 469.221 636.468 469.233 636.318 469.234H530.242C529.834 469.235 529.431 469.151 529.057 468.989C528.722 468.856 528.424 468.644 528.188 468.372C527.952 468.099 527.786 467.774 527.703 467.423C527.693 467.377 527.69 467.331 527.683 467.284C527.68 467.251 527.676 467.221 527.676 467.188C527.676 467.155 527.673 467.115 527.673 467.075V461.489C527.673 461.452 527.673 461.412 527.676 461.376C527.679 461.306 527.687 461.236 527.7 461.167C527.888 460.133 528.959 459.331 530.238 459.331H636.317C636.468 459.331 636.618 459.344 636.767 459.367C636.927 459.39 637.084 459.426 637.237 459.477C637.709 459.623 638.127 459.904 638.441 460.286C638.723 460.623 638.879 461.049 638.882 461.489Z" fill="#FFB93E"/>
<path d="M586.797 469.235H529.968C529.603 469.236 529.242 469.152 528.915 468.99C528.604 468.843 528.333 468.624 528.123 468.352C527.914 468.08 527.772 467.762 527.709 467.425C527.699 467.378 527.696 467.332 527.688 467.285C527.686 467.252 527.682 467.223 527.682 467.189C527.682 467.156 527.679 467.116 527.679 467.076V461.488C527.679 461.452 527.679 461.412 527.682 461.375C527.685 461.305 527.693 461.236 527.705 461.167C527.72 461.089 527.74 461.012 527.765 460.937C527.908 460.466 528.201 460.055 528.599 459.765C528.996 459.475 529.477 459.322 529.969 459.329H579.819C580.844 463.219 583.187 466.633 586.449 468.988C586.561 469.073 586.677 469.153 586.797 469.235Z" fill="#FFA412"/>
<path d="M625.978 459.335H624.772V469.239H625.978V459.335Z" fill="#FFA412"/>
<path d="M621.895 459.335H620.689V469.239H621.895V459.335Z" fill="#FFA412"/>
<path d="M617 459.335H615.794V469.239H617V459.335Z" fill="#FFA412"/>
<path d="M609.498 459.335H608.293V469.239H609.498V459.335Z" fill="#FFA412"/>
<path d="M601.57 459.335H600.365V469.239H601.57V459.335Z" fill="#FFA412"/>
<path d="M589.406 459.335H588.2V469.239H589.406V459.335Z" fill="#FFA412"/>
<path d="M578.021 459.335H576.815V469.239H578.021V459.335Z" fill="#FFA412"/>
<path d="M567.856 459.335H566.65V469.239H567.856V459.335Z" fill="#FFA412"/>
<path d="M629.86 459.335H628.654V469.239H629.86V459.335Z" fill="#FFA412"/>
<path d="M632.425 459.335H631.219V469.239H632.425V459.335Z" fill="#FFA412"/>
<path d="M634.904 459.335H633.698V469.239H634.904V459.335Z" fill="#FFA412"/>
<path d="M636.77 459.367V469.201C636.62 469.223 636.469 469.235 636.317 469.235H635.564V459.332H636.317C636.469 459.332 636.62 459.344 636.77 459.367Z" fill="#FFA412"/>
<path d="M638.443 460.284V468.283C638.128 468.662 637.709 468.942 637.238 469.089V459.477C637.709 459.625 638.128 459.905 638.443 460.284Z" fill="#FFA412"/>
<path d="M647.551 451.585V457.178C647.547 457.617 647.392 458.04 647.114 458.378L647.11 458.381C647.074 458.427 647.034 458.471 646.994 458.514C646.829 458.689 646.638 458.839 646.428 458.958C646.319 459.02 646.206 459.074 646.089 459.12C646.087 459.12 646.086 459.12 646.086 459.124C646.029 459.147 645.97 459.17 645.907 459.19C645.754 459.241 645.596 459.277 645.437 459.299C645.287 459.322 645.137 459.333 644.986 459.332H538.911C537.632 459.332 536.561 458.534 536.372 457.5C536.36 457.431 536.352 457.36 536.349 457.289C536.346 457.253 536.346 457.216 536.346 457.179V451.586C536.346 451.549 536.346 451.513 536.349 451.477C536.412 450.429 537.38 449.573 538.609 449.449C538.709 449.436 538.81 449.431 538.911 449.432H644.986C645.137 449.433 645.288 449.444 645.437 449.465C645.597 449.49 645.754 449.528 645.908 449.578C646.32 449.708 646.693 449.94 646.994 450.251C647.034 450.293 647.073 450.335 647.11 450.383L647.113 450.386C647.392 450.724 647.547 451.147 647.551 451.585Z" fill="#FFB93E"/>
<path d="M595.465 459.331H538.636C538.145 459.339 537.664 459.187 537.267 458.898C536.869 458.609 536.576 458.199 536.432 457.729C536.408 457.654 536.388 457.577 536.372 457.5C536.36 457.43 536.352 457.359 536.349 457.288C536.346 457.252 536.346 457.215 536.346 457.178V451.585C536.346 451.549 536.346 451.512 536.349 451.476C536.393 450.955 536.619 450.466 536.987 450.095C537.356 449.724 537.843 449.495 538.364 449.448C538.454 449.435 538.545 449.43 538.636 449.431H588.486C588.487 449.436 588.489 449.442 588.49 449.448C589.553 453.473 592.029 456.981 595.465 459.331Z" fill="#FFA412"/>
<path d="M634.647 449.43H633.442V459.335H634.647V449.43Z" fill="#FFA412"/>
<path d="M630.564 449.43H629.359V459.335H630.564V449.43Z" fill="#FFA412"/>
<path d="M625.669 449.43H624.464V459.335H625.669V449.43Z" fill="#FFA412"/>
<path d="M618.168 449.43H616.962V459.335H618.168V449.43Z" fill="#FFA412"/>
<path d="M610.24 449.43H609.034V459.335H610.24V449.43Z" fill="#FFA412"/>
<path d="M598.076 449.43H596.87V459.335H598.076V449.43Z" fill="#FFA412"/>
<path d="M586.691 449.43H585.485V459.335H586.691V449.43Z" fill="#FFA412"/>
<path d="M576.525 449.431H575.319V459.335H576.525V449.431Z" fill="#FFA412"/>
<path d="M638.531 449.43H637.326V459.335H638.531V449.43Z" fill="#FFA412"/>
<path d="M641.095 449.43H639.889V459.335H641.095V449.43Z" fill="#FFA412"/>
<path d="M643.574 449.43H642.368V459.335H643.574V449.43Z" fill="#FFA412"/>
<path d="M645.439 449.464V459.297C645.29 459.32 645.138 459.332 644.987 459.332H644.234V449.429H644.987C645.138 449.429 645.29 449.441 645.439 449.464Z" fill="#FFA412"/>
<path d="M647.112 450.382V458.38C646.797 458.759 646.379 459.039 645.908 459.186V449.574C646.379 449.722 646.797 450.002 647.112 450.382Z" fill="#FFA412"/>
<path d="M633.624 441.7V447.289C633.622 447.729 633.467 448.154 633.186 448.493C632.872 448.874 632.453 449.155 631.98 449.301C631.828 449.351 631.671 449.388 631.513 449.411L631.364 449.431H631.344C631.311 449.437 631.277 449.437 631.244 449.441C631.225 449.441 631.205 449.444 631.184 449.444C631.142 449.444 631.102 449.448 631.057 449.448H524.987C524.568 449.458 524.153 449.37 523.774 449.192C523.395 449.013 523.063 448.749 522.803 448.42C522.58 448.126 522.448 447.773 522.423 447.405C522.419 447.365 522.419 447.328 522.419 447.291V441.702C522.418 441.664 522.42 441.627 522.423 441.589C522.482 441.114 522.69 440.671 523.017 440.321C523.344 439.971 523.772 439.733 524.242 439.641C524.485 439.576 524.736 439.544 524.987 439.545H631.06C631.106 439.545 631.149 439.548 631.195 439.548C631.218 439.548 631.24 439.551 631.262 439.555C631.346 439.558 631.43 439.567 631.513 439.581C631.672 439.604 631.828 439.641 631.981 439.691C632.056 439.713 632.129 439.742 632.199 439.775H632.203C632.476 439.885 632.727 440.043 632.945 440.241C632.949 440.244 632.953 440.249 632.955 440.254C632.965 440.264 632.975 440.27 632.985 440.28C633.057 440.347 633.125 440.419 633.187 440.496C633.467 440.834 633.622 441.26 633.624 441.7Z" fill="#FFB93E"/>
<path d="M581.537 449.446H524.71C524.336 449.449 523.967 449.362 523.633 449.191C523.3 449.021 523.012 448.773 522.795 448.468C522.572 448.156 522.442 447.786 522.421 447.402C522.417 447.362 522.417 447.325 522.417 447.288V441.699C522.416 441.661 522.418 441.624 522.421 441.586C522.46 441.098 522.661 440.637 522.992 440.275C523.322 439.913 523.763 439.671 524.246 439.588C524.399 439.557 524.555 439.542 524.711 439.542H574.558C574.577 439.618 574.6 439.694 574.624 439.77C575.711 443.7 578.151 447.121 581.513 449.429C581.522 449.434 581.53 449.439 581.537 449.446Z" fill="#FFA412"/>
<path d="M620.719 439.543H619.513V449.447H620.719V439.543Z" fill="#FFA412"/>
<path d="M616.636 439.543H615.431V449.447H616.636V439.543Z" fill="#FFA412"/>
<path d="M611.745 439.543H610.539V449.447H611.745V439.543Z" fill="#FFA412"/>
<path d="M604.244 439.543H603.038V449.447H604.244V439.543Z" fill="#FFA412"/>
<path d="M596.312 439.543H595.106V449.447H596.312V439.543Z" fill="#FFA412"/>
<path d="M584.153 439.543H582.948V449.447H584.153V439.543Z" fill="#FFA412"/>
<path d="M572.763 439.543H571.557V449.447H572.763V439.543Z" fill="#FFA412"/>
<path d="M562.597 439.544H561.392V449.448H562.597V439.544Z" fill="#FFA412"/>
<path d="M624.603 439.543H623.397V449.447H624.603V439.543Z" fill="#FFA412"/>
<path d="M627.171 439.543H625.965V449.447H627.171V439.543Z" fill="#FFA412"/>
<path d="M629.646 439.543H628.44V449.447H629.646V439.543Z" fill="#FFA412"/>
<path d="M631.511 439.577V449.41C631.361 449.433 631.21 449.445 631.059 449.445H630.306V439.543H631.059C631.21 439.542 631.361 439.554 631.511 439.577Z" fill="#FFA412"/>
<path d="M633.186 440.494V448.493C632.871 448.872 632.452 449.153 631.981 449.299V439.687C632.452 439.834 632.871 440.115 633.186 440.494Z" fill="#FFA412"/>
<path d="M641.425 432.024V437.616C641.421 438.056 641.266 438.481 640.985 438.82C640.669 439.199 640.251 439.479 639.78 439.626C639.627 439.676 639.47 439.713 639.31 439.737C639.161 439.76 639.01 439.771 638.858 439.771H532.785C532.391 439.773 532.001 439.695 531.639 439.543C531.271 439.406 530.947 439.174 530.699 438.87C530.451 438.567 530.289 438.202 530.228 437.815C530.225 437.787 530.222 437.758 530.221 437.727C530.221 437.69 530.218 437.653 530.218 437.616V432.024C530.218 431.986 530.218 431.95 530.221 431.913C530.285 430.863 531.254 430.006 532.481 429.882C532.582 429.871 532.684 429.866 532.785 429.867H638.856C639.008 429.867 639.159 429.878 639.309 429.902C639.468 429.924 639.625 429.961 639.778 430.012C640.249 430.159 640.668 430.439 640.983 430.819C641.265 431.157 641.421 431.583 641.425 432.024Z" fill="#FFB93E"/>
<path d="M589.337 439.772H532.51C532.156 439.773 531.807 439.695 531.487 439.543C531.146 439.388 530.851 439.148 530.63 438.845C530.41 438.542 530.271 438.188 530.228 437.815C530.225 437.787 530.222 437.758 530.221 437.727C530.221 437.69 530.218 437.653 530.218 437.616V432.024C530.218 431.987 530.218 431.95 530.221 431.913C530.283 431.35 530.551 430.83 530.974 430.453C531.396 430.075 531.943 429.867 532.51 429.869H582.358C582.358 429.874 582.361 429.879 582.363 429.884C583.392 433.777 585.742 437.191 589.011 439.542C589.117 439.62 589.227 439.696 589.337 439.772Z" fill="#FFA412"/>
<path d="M628.516 429.868H627.31V439.772H628.516V429.868Z" fill="#FFA412"/>
<path d="M624.438 429.868H623.233V439.772H624.438V429.868Z" fill="#FFA412"/>
<path d="M619.543 429.868H618.337V439.772H619.543V429.868Z" fill="#FFA412"/>
<path d="M612.042 429.868H610.836V439.772H612.042V429.868Z" fill="#FFA412"/>
<path d="M604.108 429.868H602.903V439.772H604.108V429.868Z" fill="#FFA412"/>
<path d="M591.95 429.868H590.744V439.772H591.95V429.868Z" fill="#FFA412"/>
<path d="M580.565 429.868H579.359V439.772H580.565V429.868Z" fill="#FFA412"/>
<path d="M570.399 429.868H569.193V439.772H570.399V429.868Z" fill="#FFA412"/>
<path d="M632.4 429.868H631.194V439.772H632.4V429.868Z" fill="#FFA412"/>
<path d="M634.969 429.868H633.763V439.772H634.969V429.868Z" fill="#FFA412"/>
<path d="M637.448 429.868H636.242V439.772H637.448V429.868Z" fill="#FFA412"/>
<path d="M639.309 429.903V439.736C639.16 439.759 639.009 439.771 638.858 439.771H638.104V429.868H638.858C639.009 429.868 639.16 429.88 639.309 429.903Z" fill="#FFA412"/>
<path d="M640.984 430.819V438.818C640.669 439.198 640.251 439.478 639.78 439.624V430.012C640.251 430.16 640.669 430.44 640.984 430.819Z" fill="#FFA412"/>
<path d="M644.742 422.138V427.73C644.738 428.17 644.583 428.595 644.302 428.934C643.987 429.313 643.568 429.593 643.097 429.74C642.944 429.791 642.787 429.828 642.628 429.851C642.578 429.858 642.529 429.865 642.479 429.87L642.394 429.877C642.367 429.88 642.339 429.881 642.31 429.882C642.264 429.884 642.219 429.885 642.174 429.885H536.102C534.734 429.885 533.608 428.975 533.538 427.841C533.538 427.804 533.535 427.768 533.535 427.73V422.138C533.535 422.101 533.535 422.064 533.538 422.027C533.608 420.893 534.734 419.983 536.102 419.983H642.175C642.327 419.983 642.478 419.994 642.628 420.017C642.787 420.041 642.944 420.078 643.097 420.128C643.568 420.275 643.986 420.555 644.302 420.935C644.583 421.273 644.739 421.698 644.742 422.138Z" fill="#FFB93E"/>
<path d="M592.656 429.885H535.828C535.259 429.898 534.705 429.695 534.28 429.315C533.855 428.935 533.59 428.408 533.54 427.84C533.54 427.803 533.537 427.767 533.537 427.729V422.137C533.537 422.1 533.537 422.063 533.54 422.026C533.59 421.458 533.855 420.931 534.28 420.551C534.705 420.171 535.259 419.968 535.828 419.982H585.675C586.734 424.004 589.203 427.513 592.631 429.869C592.64 429.874 592.648 429.88 592.656 429.885Z" fill="#FFA412"/>
<path d="M631.835 419.981H630.629V429.885H631.835V419.981Z" fill="#FFA412"/>
<path d="M627.752 419.981H626.547V429.885H627.752V419.981Z" fill="#FFA412"/>
<path d="M622.861 419.981H621.655V429.885H622.861V419.981Z" fill="#FFA412"/>
<path d="M615.36 419.981H614.154V429.885H615.36V419.981Z" fill="#FFA412"/>
<path d="M607.428 419.981H606.222V429.885H607.428V419.981Z" fill="#FFA412"/>
<path d="M595.269 419.981H594.063V429.885H595.269V419.981Z" fill="#FFA412"/>
<path d="M583.879 419.981H582.673V429.885H583.879V419.981Z" fill="#FFA412"/>
<path d="M573.712 419.981H572.507V429.885H573.712V419.981Z" fill="#FFA412"/>
<path d="M635.717 419.981H634.512V429.885H635.717V419.981Z" fill="#FFA412"/>
<path d="M638.287 419.981H637.081V429.885H638.287V419.981Z" fill="#FFA412"/>
<path d="M640.762 419.981H639.556V429.885H640.762V419.981Z" fill="#FFA412"/>
<path d="M642.627 420.016V429.849C642.477 429.873 642.326 429.884 642.175 429.884H641.422V419.982H642.175C642.326 419.982 642.477 419.993 642.627 420.016Z" fill="#FFA412"/>
<path d="M644.302 420.933V428.932C643.987 429.311 643.568 429.592 643.097 429.738V420.126C643.569 420.273 643.987 420.554 644.302 420.933Z" fill="#FFA412"/>
<path d="M611.121 363.551C607.407 368.78 603.847 371.431 600.442 371.505C597.037 371.578 592.744 370.366 587.563 367.869C584.437 360.902 583.934 356.055 586.055 353.327C588.182 352.394 590.357 352.751 592.581 354.399C593.22 354.88 593.8 355.435 594.307 356.054C594.997 356.917 595.931 357.551 596.988 357.873C600.633 358.982 604.959 356.373 606.577 358.891C607.37 360.119 608.317 361.24 609.394 362.227C609.929 362.719 610.507 363.162 611.121 363.551Z" fill="#FFEDDC"/>
<path d="M538.487 420.127C551.615 388.316 569.994 372.108 593.625 371.502C615.438 373.926 626.95 390.134 628.162 420.127H538.487Z" fill="#FFEDDC"/>
<path d="M583.914 372.959C593.386 375.066 599.583 375.5 602.505 374.262C602.947 370.302 601.173 368.599 597.185 369.155C593.089 369.725 590.422 367.758 588.853 366.958C586.633 365.828 583.324 370.475 583.914 372.959Z" fill="#DB6A1D"/>
<path d="M596.278 364.004C595.672 364.459 594.439 361.257 592.58 354.397C593.219 354.878 593.799 355.433 594.306 356.052C594.996 356.915 595.93 357.549 596.987 357.871C596.997 358.169 597.16 363.34 596.278 364.004Z" fill="#E5C1A1"/>
<path d="M609.393 362.223C609.193 362.34 602.624 366.276 601.731 366.276C601.126 366.276 602.741 363.813 606.576 358.887C607.368 360.115 608.315 361.236 609.393 362.223Z" fill="#E5C1A1"/>
<path d="M557.724 406.797C557.36 406.485 571.66 385.741 575.598 385.59C579.537 385.439 588.385 390.134 594.792 390.74C601.198 391.346 607.408 389.528 608.621 393.315C609.833 397.102 613.165 410.528 611.12 412.677C609.074 414.825 565.587 413.516 557.724 406.797Z" fill="#F9DDBF"/>
<path opacity="0.502" d="M571.192 478.821C571.188 478.848 571.188 478.871 571.185 478.895C571 482.213 570.467 485.503 569.594 488.71C569.593 488.715 569.592 488.721 569.591 488.726C569.465 489.19 569.331 489.653 569.19 490.115C568.296 493.052 567.126 495.898 565.694 498.614C563.865 502.087 561.628 505.328 559.03 508.27C558.961 508.355 558.888 508.435 558.815 508.515C555.431 512.296 551.504 515.551 547.161 518.175C546.22 518.748 545.254 519.294 544.264 519.814C543.595 520.166 542.923 520.497 542.246 520.819C541.6 521.193 540.918 521.515 540.275 521.909C538.161 523.128 535.895 524.06 533.536 524.682V520.328C533.536 520.292 533.539 520.255 533.539 520.219C533.542 520.146 533.552 520.076 533.562 520.007C533.577 519.927 533.598 519.847 533.624 519.769C533.771 519.302 534.064 518.894 534.462 518.606C534.859 518.319 535.338 518.167 535.829 518.175H524.486C523.996 518.181 523.517 518.028 523.121 517.74C522.724 517.452 522.432 517.043 522.286 516.575C522.261 516.498 522.24 516.419 522.225 516.339C522.215 516.269 522.205 516.2 522.201 516.13C522.198 516.093 522.198 516.057 522.198 516.017V510.427C522.198 510.391 522.198 510.351 522.201 510.315C522.205 510.245 522.215 510.175 522.225 510.106C522.24 510.026 522.261 509.947 522.286 509.87C522.432 509.401 522.724 508.993 523.121 508.705C523.517 508.416 523.996 508.264 524.486 508.27H528.913C528.603 508.123 528.332 507.905 528.122 507.633C527.913 507.361 527.771 507.043 527.708 506.705C527.698 506.659 527.695 506.612 527.687 506.566C527.684 506.537 527.681 506.503 527.681 506.47C527.681 506.436 527.678 506.397 527.678 506.361V500.767C527.678 500.73 527.678 500.694 527.681 500.657C527.684 500.587 527.692 500.517 527.704 500.449C527.719 500.37 527.739 500.293 527.764 500.218C527.907 499.747 528.2 499.337 528.598 499.047C528.995 498.758 529.476 498.605 529.968 498.613H532.509C532.019 498.619 531.539 498.467 531.142 498.179C530.745 497.891 530.451 497.483 530.305 497.014C530.279 496.937 530.258 496.858 530.242 496.777C530.231 496.708 530.224 496.638 530.22 496.569V490.753C530.264 490.232 530.491 489.743 530.86 489.373C531.229 489.002 531.716 488.772 532.237 488.725H524.71C524.14 488.739 523.586 488.536 523.161 488.156C522.736 487.776 522.471 487.249 522.421 486.681C522.417 486.644 522.417 486.608 522.417 486.568V480.978C522.417 480.941 522.417 480.901 522.421 480.865C522.421 480.836 522.424 480.805 522.427 480.776C522.485 480.312 522.688 479.878 523.008 479.537C523.328 479.196 523.747 478.965 524.207 478.877C523.72 478.829 523.262 478.623 522.903 478.291C522.544 477.958 522.303 477.517 522.218 477.035C522.209 476.972 522.202 476.913 522.198 476.849C522.195 476.809 522.195 476.773 522.195 476.737V471.147C522.195 471.108 522.195 471.071 522.198 471.035C522.202 470.965 522.212 470.896 522.222 470.826C522.237 470.746 522.258 470.667 522.283 470.589C522.429 470.121 522.721 469.712 523.118 469.424C523.514 469.136 523.993 468.984 524.484 468.99H528.911C528.6 468.843 528.329 468.625 528.119 468.352C527.91 468.08 527.768 467.762 527.705 467.425C527.695 467.379 527.692 467.332 527.684 467.285C527.682 467.252 527.678 467.223 527.678 467.189C527.678 467.156 527.675 467.116 527.675 467.076V461.489C527.675 461.452 527.675 461.412 527.678 461.376C527.681 461.306 527.689 461.236 527.701 461.167C527.716 461.089 527.736 461.012 527.761 460.937C527.904 460.466 528.197 460.055 528.594 459.765C528.992 459.475 529.473 459.322 529.965 459.329H538.633C538.142 459.337 537.661 459.184 537.264 458.896C536.866 458.607 536.573 458.197 536.429 457.727C536.405 457.652 536.385 457.575 536.369 457.497C536.357 457.427 536.349 457.357 536.346 457.286C536.343 457.249 536.343 457.213 536.343 457.176V451.583C536.343 451.546 536.343 451.51 536.346 451.474C536.39 450.952 536.616 450.464 536.984 450.093C537.353 449.722 537.84 449.493 538.361 449.445H524.71C524.336 449.448 523.966 449.361 523.633 449.191C523.3 449.02 523.012 448.772 522.795 448.468L522.802 448.418L524.24 439.637L524.247 439.587L526.295 427.059C528.666 427.376 531.014 427.849 533.323 428.474L533.727 428.583C533.736 428.587 533.744 428.59 533.753 428.593C535.096 428.968 536.42 429.393 537.727 429.869C537.74 429.872 537.752 429.877 537.764 429.882C543.797 432.069 549.379 435.343 554.232 439.542C554.317 439.614 554.404 439.691 554.486 439.77C557.036 442.007 559.35 444.5 561.392 447.209C561.806 447.753 562.207 448.306 562.594 448.869C562.724 449.055 562.853 449.241 562.975 449.429C562.978 449.431 562.981 449.433 562.982 449.436C562.984 449.439 562.985 449.442 562.985 449.446C563.611 450.37 564.206 451.319 564.768 452.292C566.073 454.545 567.195 456.898 568.124 459.33C569.322 462.45 570.184 465.688 570.696 468.99C570.712 469.074 570.723 469.153 570.736 469.235C571.212 472.406 571.365 475.619 571.192 478.821Z" fill="#E2810E"/>
<path d="M461.623 498.899C456.641 489.862 454.451 479.551 455.33 469.269C456.209 458.988 460.116 449.197 466.559 441.137C473.002 433.076 481.69 427.107 491.526 423.984C501.361 420.861 511.901 420.725 521.814 423.592C531.727 426.46 540.567 432.202 547.216 440.094C553.865 447.986 558.024 457.672 559.168 467.927C560.312 478.183 558.39 488.547 553.643 497.71C548.897 506.873 541.54 514.422 532.503 519.404C526.503 522.712 519.909 524.805 513.1 525.565C506.29 526.325 499.398 525.736 492.816 523.832C486.234 521.927 480.092 518.746 474.74 514.468C469.388 510.19 464.93 504.9 461.623 498.899Z" fill="#E2810E"/>
<path d="M530.476 520.464C529.834 520.856 529.18 521.235 528.516 521.602C528.29 521.726 528.065 521.847 527.839 521.966C527.325 522.24 526.81 522.504 526.292 522.761C514.061 528.765 499.965 529.746 487.02 525.494C474.074 521.242 463.306 512.094 457.016 500.007C450.727 487.919 449.416 473.851 453.363 460.809C457.31 447.768 466.202 436.787 478.138 430.216C478.807 429.847 479.481 429.495 480.159 429.158C480.817 428.83 481.48 428.518 482.147 428.222C487.116 426.01 492.4 424.589 497.808 424.011C509.596 422.76 521.458 425.56 531.443 431.949C541.427 438.338 548.939 447.937 552.742 459.164C556.544 470.391 556.411 482.579 552.364 493.721C548.316 504.862 540.596 514.294 530.474 520.463L530.476 520.464Z" fill="#FFB93E"/>
<path d="M503.693 523.219C499.274 523.216 494.879 522.589 490.635 521.358C479.813 518.24 470.481 511.32 464.355 501.871C458.229 492.421 455.721 481.077 457.292 469.925C458.863 458.774 464.408 448.564 472.907 441.175C481.405 433.786 492.286 429.714 503.548 429.708C511.799 429.712 519.904 431.883 527.052 436.005C534.765 440.455 541.043 447.021 545.14 454.927C549.238 462.833 550.986 471.747 550.175 480.615C549.357 489.65 545.941 498.256 540.34 505.392C536.479 510.301 531.668 514.382 526.195 517.391C522.74 519.299 519.059 520.765 515.238 521.755C511.467 522.727 507.588 523.219 503.693 523.219ZM503.55 430.967C492.599 430.985 482.022 434.953 473.761 442.143C465.501 449.333 460.112 459.261 458.584 470.105C457.056 480.949 459.491 491.981 465.444 501.173C471.396 510.366 480.465 517.102 490.985 520.145C495.113 521.343 499.39 521.954 503.689 521.957H503.691C507.48 521.957 511.253 521.478 514.921 520.531C521.637 518.79 527.871 515.55 533.156 511.054C537.673 507.199 541.387 502.493 544.086 497.203C548.107 489.344 549.768 480.49 548.867 471.709C548.128 464.575 545.708 457.719 541.807 451.702C537.905 445.685 532.631 440.68 526.42 437.096C519.465 433.085 511.579 430.972 503.55 430.968L503.55 430.967Z" fill="#FFA412"/>
<path d="M526.617 480.99C526.514 480.733 526.406 480.482 526.294 480.24C525.557 478.534 524.48 476.995 523.129 475.719C521.688 474.409 519.992 473.411 518.148 472.788C516.101 472.107 513.972 471.706 511.818 471.598C509.489 471.455 506.955 471.422 504.216 471.5C502.769 471.556 501.319 471.527 499.875 471.412C498.83 471.337 497.801 471.112 496.82 470.743C496.042 470.448 495.343 469.974 494.78 469.361C494.228 468.729 493.789 468.005 493.484 467.223C493.152 466.425 492.953 465.578 492.894 464.716C492.84 463.912 492.967 463.106 493.265 462.357C493.592 461.571 494.089 460.867 494.72 460.296C495.5 459.596 496.402 459.047 497.381 458.676C499.416 457.849 501.316 457.867 503.08 458.73C504.845 459.593 506.281 461.39 507.389 464.122L518.019 459.807C517.196 457.7 516.019 455.748 514.54 454.037C513.235 452.526 511.641 451.293 509.851 450.41C508.061 449.527 506.112 449.013 504.12 448.897C501.96 448.761 499.792 448.983 497.705 449.552L494.694 442.139L488.811 444.528L491.778 451.838C489.795 452.84 487.973 454.136 486.377 455.682C484.969 457.05 483.816 458.657 482.972 460.428C482.184 462.108 481.757 463.936 481.721 465.791C481.751 469.929 483.413 473.888 486.345 476.807C487.782 478.115 489.477 479.108 491.321 479.721C493.369 480.392 495.5 480.778 497.654 480.87C500.193 480.996 502.737 480.993 505.275 480.861C506.656 480.768 508.042 480.778 509.421 480.888C510.461 480.966 511.485 481.194 512.46 481.565C513.269 481.88 513.997 482.373 514.587 483.009C515.201 483.706 515.685 484.506 516.018 485.372C516.352 486.171 516.525 487.027 516.526 487.892C516.526 488.725 516.331 489.547 515.958 490.292C515.544 491.105 514.97 491.826 514.27 492.411C513.416 493.121 512.452 493.687 511.416 494.087C510.417 494.493 509.368 494.765 508.297 494.897C507.237 495.029 506.161 494.921 505.149 494.582C504.058 494.198 503.073 493.562 502.276 492.724C501.259 491.633 500.468 490.351 499.949 488.953L489.322 493.268C490.238 495.707 491.663 497.922 493.502 499.767C495.067 501.297 496.946 502.469 499.009 503.201C501.018 503.894 503.141 504.2 505.265 504.103C507.449 504.015 509.614 503.657 511.71 503.038L514.455 509.803L520.302 507.429L517.542 500.632C519.531 499.626 521.368 498.344 523 496.825C524.332 495.587 525.446 494.133 526.293 492.525C526.357 492.4 526.42 492.276 526.479 492.149C527.279 490.482 527.716 488.663 527.76 486.814C527.789 484.814 527.4 482.831 526.617 480.99Z" fill="#FFA412"/>
<path d="M663.936 283.343C617.224 321.377 561.261 350.612 497.597 370.24C445.887 386.177 388.594 395.944 327.304 399.27C310.593 400.178 294.313 400.573 278.643 400.573C246.958 400.573 217.744 398.963 192.281 396.721L202.585 347.982C237.691 350.843 279.622 352.343 324.923 349.886C382.601 346.761 436.318 337.63 484.57 322.76C542.634 304.857 593.419 278.408 635.503 244.134L663.936 283.343Z" fill="#F77D48"/>
<path d="M315.648 186.151C311.318 183.905 307.418 183.487 303.947 184.899C284.073 182.565 278.274 205.744 278.544 213.72C278.814 221.696 279.723 230.262 270.848 240.622C253.756 260.575 263.108 270.991 298.905 271.871C299.359 247.959 328.023 256.683 326.767 259.107C363.512 267.926 330.42 193.814 315.648 186.151Z" fill="#163560"/>
<path d="M238.98 285.84C236.65 282.293 234.546 280.484 232.668 280.415C229.85 280.311 224.634 278.85 225.052 279.893C225.471 280.937 228.705 281.041 229.017 281.667C229.329 282.293 224.218 283.232 222.756 283.336C221.293 283.44 217.852 283.336 217.956 284.067C218.06 284.797 224.162 287.823 228.466 287.406C231.336 287.127 234.545 287.545 238.092 288.657L238.98 285.84Z" fill="#FFB27D"/>
<path d="M289.529 287.562C288.025 290.431 286.234 293.139 284.183 295.646C280.029 300.85 273.625 306.858 265.584 308.042C261.744 308.609 257.988 307.782 254.536 306.249C254.532 306.247 254.528 306.246 254.523 306.245C248.013 303.356 242.31 298.588 237.415 291.942C236.268 288.811 236.633 286.185 238.511 284.064C251.657 287.021 258.856 288.186 260.108 287.56C261.985 286.621 272.941 255.062 275.548 251.097C277.288 248.453 281.121 246.445 287.047 245.072L289.529 287.562Z" fill="#F99746"/>
<path d="M284.183 295.647C280.03 300.851 273.626 306.859 265.585 308.044C261.745 308.61 257.989 307.784 254.536 306.25C254.917 306.3 264.672 307.505 268.559 300.55C272.525 293.454 276.813 282.189 282.703 285.943C285.244 287.565 285.132 291.593 284.183 295.647Z" fill="#ED7D2B"/>
<path d="M363.095 500.415C367.106 504.076 368.72 507.207 367.937 509.808C366.763 513.709 361.333 516.31 360.6 521.078C359.866 525.847 356.931 528.448 354.289 528.448H341.695C340.398 526.211 341.315 524.756 344.445 524.081C349.142 523.069 350.912 517.466 350.619 512.265C350.443 508.213 350.59 504.154 351.059 500.126L361.038 497.814L363.095 500.415Z" fill="#36599E"/>
<path d="M312.168 502.745C313.61 518.253 313.451 526.441 311.691 527.308L277.885 527.239C277.885 524.637 279.695 523.048 283.314 522.47C288.744 521.603 298.283 518.424 299.899 511.343C300.974 506.623 305.064 503.757 312.168 502.745Z" fill="#2B478B"/>
<path d="M336.259 335.859C329.302 320.258 325.048 315.78 325.859 310.938C326.262 308.535 325.648 286.136 324.017 243.741C323.192 243.487 321.537 243.256 320.632 243.055C319.227 242.755 317.921 242.103 316.837 241.16C315.753 240.217 314.926 239.015 314.434 237.665C313.249 234.349 312.308 229.452 312.33 223.317L311.439 223.492L296.455 226.459C296.683 229.603 296.8 232.656 296.806 235.617C296.806 235.654 296.806 235.691 296.806 235.727C296.819 237.604 296.218 239.434 295.095 240.939C293.973 242.443 292.39 243.54 290.587 244.062C289.325 244.426 288.145 244.764 287.048 245.075C283.422 255.342 281.217 266.056 280.495 276.92C279.444 293.058 290.5 300.068 280.41 332.315C270.112 365.249 340.102 344.479 336.259 335.859Z" fill="#FFB27D"/>
<path d="M296.456 226.458C296.683 229.602 296.8 232.655 296.807 235.616C305.192 235.379 309.626 227.73 311.44 223.491L296.456 226.458Z" fill="#E8945B"/>
<path d="M293.655 230.663C306.881 230.881 313.498 226.871 313.507 218.633C313.521 206.276 316.091 197.995 303.425 197.264C290.759 196.532 288.293 201.245 287.286 205.368C286.279 209.492 288.495 230.262 293.655 230.663Z" fill="#FFB27D"/>
<path d="M294.388 196.964C298.009 206.629 302.598 212.176 308.155 213.605C313.712 215.034 317.696 215.004 320.107 213.515C315.844 210.129 313.271 205.48 312.386 199.569C303.12 193.232 297.121 192.363 294.388 196.964Z" fill="#163560"/>
<path d="M295.735 198.14C293.05 199.144 291.155 200.625 290.05 202.583C288.048 206.013 287.114 209.963 287.368 213.927C284.64 207.358 284.809 202.215 287.876 198.499C291.126 194.559 293.746 194.44 295.735 198.14Z" fill="#163560"/>
<path d="M297.972 222.999C297.06 224.2 295.69 224.757 293.864 224.671C293.211 224.68 292.57 224.492 292.025 224.132C291.48 223.772 291.056 223.257 290.808 222.652C293.509 222.003 295.897 222.118 297.972 222.999Z" fill="#EBF3FA"/>
<path d="M338.174 271.871C338.511 277.074 338.511 282.293 338.174 287.497C337.839 293.146 332.124 300.713 331.313 302.585C329.957 305.716 328.514 307.535 326.985 308.043L309.235 312.393L302.994 313.92L283.313 308.043C277.336 291.362 275.548 278.327 277.947 268.937C280.347 259.547 283.38 251.591 287.047 245.071C297.753 255.554 310.076 255.11 324.017 243.738L338.174 271.871Z" fill="#F99746"/>
<path d="M284.563 311.842C278.066 332.067 274.608 345.622 274.191 352.508C273.565 362.837 292.822 499.238 293.597 503.997C294.084 506.987 296.184 509.435 299.898 511.343C301.606 512.35 303.679 512.51 306.117 511.822C309.499 510.867 311.725 509.818 312.794 508.675C317.851 443.82 318.815 399.81 315.686 376.643C312.556 353.477 310.973 331.876 310.936 311.842H284.563Z" fill="#233862"/>
<path d="M325.859 310.938C335.77 324.236 341.188 335.38 342.112 344.37C343.498 357.855 344.286 405.221 347.239 418.366C350.192 431.511 361.041 456.809 361.041 497.811C360.289 499.378 358.752 500.579 356.429 501.413C355.1 501.862 353.746 502.236 352.375 502.535C350.98 502.853 349.518 502.692 348.225 502.078C346.932 501.464 345.883 500.433 345.248 499.15C337.912 484.382 314.548 436.752 313.35 426.865C312.504 419.868 305.125 373.558 289.034 346.386C286.458 342.038 287.248 331.215 291.403 313.92L325.859 310.938Z" fill="#2B478B"/>
<path d="M297.531 223.33C297.303 224.3 295.981 224.711 293.565 224.561C291.538 224.436 290.555 223.84 290.617 222.773C292.583 222.014 294.888 222.199 297.531 223.33Z" fill="white"/>
<path d="M283.008 307.158C285.616 309.222 289.512 310.306 294.693 310.41C300.883 310.535 311.647 309.746 326.984 308.043C327.662 309.925 327.994 311.914 327.965 313.915C309.233 318.64 294.439 318.985 283.584 314.95C282.185 312.316 281.992 309.719 283.008 307.158Z" fill="#233862"/>
<path d="M292.466 318.409C290.131 318.409 288.231 316.258 288.231 313.616C288.231 310.973 290.131 308.822 292.466 308.822C293.037 308.828 293.6 308.956 294.116 309.198C294.633 309.44 295.091 309.791 295.461 310.226C296.274 311.167 296.715 312.372 296.701 313.616C296.701 316.259 294.801 318.409 292.466 318.409ZM292.466 310.227C290.903 310.227 289.632 311.747 289.632 313.616C289.632 315.484 290.903 317.004 292.466 317.004C294.029 317.004 295.301 315.484 295.301 313.616C295.301 311.747 294.029 310.227 292.466 310.227Z" fill="white"/>
<path d="M357.231 312.647L328.445 337.714L294.134 298.308L322.921 273.241L357.231 312.647Z" fill="#B5453C"/>
<path d="M320.491 312.74C313.46 313.562 309.955 314.808 309.978 316.477C310.01 318.981 312.605 324.124 313.908 324.353C314.777 324.505 317.638 322.187 322.492 317.397L320.491 312.74Z" fill="#FFB27D"/>
<path d="M324.016 243.739C333.404 244.397 339.898 249.101 343.497 257.849C348.895 270.971 359.137 293.003 359.137 296.71C359.137 300.416 353.416 311.842 322.69 318.411C320.572 316.183 319.577 314.187 319.705 312.425C332.492 301.442 338.868 295.309 338.833 294.025C338.736 290.383 335.689 285.575 318.85 268.731C315.798 265.678 317.52 257.347 324.016 243.739Z" fill="#F99746"/>
<path d="M19.4057 528.416H19.2644C19.0697 528.416 18.8771 528.377 18.6977 528.302C18.5183 528.226 18.3558 528.115 18.2198 527.976C18.0838 527.837 17.977 527.672 17.9056 527.491C17.8343 527.31 17.7998 527.116 17.8043 526.922L20.0187 430.941L26.5417 430.18L20.9791 526.928C20.9561 527.33 20.7804 527.708 20.4879 527.985C20.1954 528.261 19.8083 528.416 19.4057 528.416Z" fill="#95C0F4"/>
<path d="M124.3 528.416H124.439C124.633 528.416 124.826 528.377 125.006 528.302C125.185 528.226 125.347 528.115 125.483 527.976C125.619 527.837 125.726 527.672 125.798 527.491C125.869 527.31 125.903 527.116 125.899 526.922L123.685 430.941L117.161 430.18L122.724 526.928C122.747 527.33 122.923 527.709 123.216 527.985C123.509 528.262 123.897 528.416 124.3 528.416Z" fill="#B0D4FF"/>
<path d="M15.0833 424.988V359.218C15.0833 353.661 17.2909 348.331 21.2205 344.401C25.1501 340.471 30.4799 338.264 36.0373 338.264H83.4241C88.9815 338.264 94.3112 340.471 98.2408 344.401C102.17 348.331 104.378 353.661 104.378 359.218V427.502L15.0833 424.988Z" fill="#B0D4FF"/>
<path d="M112.868 435.372H21.3753C19.7067 435.372 18.1065 434.709 16.9266 433.529C15.7467 432.349 15.0839 430.749 15.0837 429.08V424.988H112.869L112.868 435.372Z" fill="#95C0F4"/>
<path d="M123.833 435.372H54.6148C53.3805 435.372 52.1968 434.881 51.324 434.009C50.4513 433.136 49.9609 431.952 49.9609 430.718V429.639C49.9609 428.405 50.4513 427.221 51.324 426.348C52.1968 425.476 53.3805 424.985 54.6148 424.985H123.833C125.067 424.985 126.251 425.476 127.123 426.348C127.996 427.221 128.486 428.405 128.486 429.639V430.718C128.486 431.952 127.996 433.136 127.123 434.009C126.251 434.881 125.067 435.372 123.833 435.372Z" fill="#B0D4FF"/>
<path d="M121.144 408.601C116.618 416.477 111.509 421.935 105.817 424.976H70.2959C107.647 408.05 124.596 402.591 121.144 408.601Z" fill="#233862"/>
<path d="M93.8637 500.014C93.4388 500.481 93.1576 501.061 93.0537 501.684C92.9499 502.306 93.0278 502.946 93.2782 503.526C93.2788 503.532 93.2818 503.539 93.2867 503.543C94.1328 505.884 96.9327 508.499 100.183 511.11C100.599 511.446 100.968 511.75 101.29 512.033C101.374 512.107 101.459 512.181 101.538 512.255C101.603 512.313 101.665 512.373 101.73 512.428C104.761 515.223 103.621 515.863 109.067 521.534C115.278 527.996 119.554 528.113 120.77 527.524C121.8 527.021 119.708 523.595 117.392 519.742C117.279 519.557 117.17 519.369 117.053 519.181C116.744 518.669 116.439 518.149 116.132 517.634C113.417 512.998 114.114 510.823 114.758 503.924C115.106 500.186 118.014 489.745 123.48 472.601L111.578 470.551C109.188 484.202 106.677 492.079 104.045 494.182C101.933 495.863 99.5693 495.884 97.5398 497.13C97.396 497.217 97.255 497.306 97.1167 497.397C95.9202 498.12 94.826 499 93.8637 500.014Z" fill="#FFB27D"/>
<path d="M93.8637 500.014C93.4388 500.481 93.1576 501.061 93.0537 501.684C92.9499 502.306 93.0278 502.946 93.2782 503.526C93.2788 503.532 93.2818 503.539 93.2867 503.543C94.324 505.882 97.052 508.484 100.195 511.086C100.606 511.427 100.968 511.74 101.291 512.032C101.375 512.106 101.46 512.181 101.54 512.255C101.605 512.312 101.666 512.372 101.731 512.428C104.763 515.222 103.622 515.862 109.069 521.534C115.279 527.995 119.555 528.112 120.771 527.524C121.801 527.021 119.71 523.594 117.393 519.742C113.048 518.046 109.229 515.231 106.322 511.584C102.582 506.812 100.089 500.681 97.5424 497.129C97.3985 497.216 97.2575 497.305 97.1193 497.396C95.9217 498.119 94.8267 498.999 93.8637 500.014Z" fill="#233862"/>
<path d="M189.831 492.581C190.566 496.255 195.802 495.642 201.653 494.213C207.504 492.784 206.113 494.483 214.44 493.561C222.767 492.639 225.289 489.534 225.543 488.296C225.771 487.196 221.657 486.81 217.243 486.302C216.688 486.24 216.131 486.171 215.574 486.102C210.591 485.476 206.943 482.262 202.416 479.621C199.558 477.954 195.997 473.723 191.732 466.929L180.312 467.833C184.307 473.901 187.078 478.254 188.623 480.892C189.986 483.219 189.914 486.297 189.744 488.674C189.598 489.975 189.628 491.288 189.831 492.581Z" fill="#FFB27D"/>
<path d="M201.653 494.213C207.503 492.782 206.113 494.482 214.44 493.561C222.767 492.639 225.289 489.534 225.543 488.296C225.771 487.196 221.656 486.81 217.243 486.301L217.201 486.386C213.872 488.747 209.898 489.982 205.276 490.093C199.627 490.23 193.641 488.612 189.742 488.675C189.597 489.975 189.626 491.288 189.83 492.581C190.565 496.255 195.802 495.642 201.653 494.213Z" fill="#233862"/>
<path d="M146.07 419.563L135.394 448.289L121.458 485.796C118.969 486.042 116.457 485.813 114.054 485.119C111.507 484.321 109.093 483.146 106.893 481.634C109.473 454.786 113.169 433.656 117.982 418.244C119.832 412.311 121.905 407.511 124.194 404.809C131.654 395.991 138.946 400.909 146.07 419.563Z" fill="#233862"/>
<path d="M135.215 373.943C128.222 371.687 108.275 374.584 88.2374 378.506L84.0423 371.586L40.7618 368.207C31.2406 389.32 29.0863 406.604 34.2989 420.058C35.4484 423.024 37.7317 424.926 41.6244 424.989C41.6244 424.991 42.2548 424.989 42.259 424.989C59.4316 424.979 70.806 424.974 76.3821 424.974C97.9055 424.974 121.933 410.178 125.041 409.557C130.129 408.539 132.164 418.715 137.252 429.399C140.643 436.521 156.584 452.293 185.075 476.714C189.454 476.757 192.548 476.44 194.357 475.761C196.303 475.032 197.632 474.193 198.342 473.246C166.772 410.436 145.73 377.335 135.215 373.943Z" fill="#2B478B"/>
<path d="M82.3412 245.564C76.7964 242.653 68.3611 242.26 66.9904 242.075C50.5903 239.871 40.7196 263.702 40.1392 270.923C39.0692 284.233 32.028 286.262 22.1162 294.598C2.24441 311.309 8.07014 330.733 18.9376 337.949C23.2837 340.836 29.2873 340.836 36.9483 337.949C37.1112 338.063 68.376 320.471 83.7881 311.985C106.894 308.7 96.4694 252.983 82.3412 245.564Z" fill="#B5453C"/>
<path d="M70.8716 304.761C70.9397 304.804 63.2893 307.416 58.1735 305.151C53.3606 303.025 49.7149 295.106 49.7864 295.102C51.9758 295.001 54.3789 293.087 56.2303 280.528L57.161 280.863L72.8355 286.503C72.0785 289.855 71.455 293.128 70.9651 296.321C70.3483 300.341 70.0157 304.194 70.8716 304.761Z" fill="#FFB27D"/>
<path d="M72.8356 286.503C72.0786 289.855 71.4551 293.128 70.9652 296.321C61.9622 294.7 58.4287 285.73 57.1611 280.863L72.8356 286.503Z" fill="#ED975D"/>
<path d="M75.1712 291.494C60.8741 289.576 54.3917 284.174 55.7238 275.288C57.7215 261.961 56.2992 252.611 70.0766 253.887C83.854 255.163 85.7451 260.646 86.1606 265.256C86.576 269.866 80.8011 291.9 75.1712 291.494Z" fill="#FFB27D"/>
<path d="M85.3794 257.951C76.2271 265.839 68.5383 270.1 62.3129 270.736C56.0875 271.372 51.7963 270.691 49.4392 268.693C53.109 265.647 56.0478 261.665 58.2556 256.748C58.7312 255.679 59.4837 254.756 60.4354 254.076C61.387 253.395 62.5032 252.981 63.6685 252.877C70.3369 252.3 82.9771 252.038 85.3794 257.951Z" fill="#B5453C"/>
<path d="M76.7949 256.891C79.8571 259.853 81.8701 262.431 82.8339 264.626C84.23 267.804 84.6484 275.406 83.537 278.425C88.3073 269.149 89.3422 262.258 86.6415 257.751C83.7779 252.972 80.4957 252.686 76.7949 256.891Z" fill="#B5453C"/>
<path d="M88.9297 336.352C88.2811 379.763 88.7511 370.692 84.0025 374.81C82.8581 375.801 79.6415 376.393 75.4078 376.671C62.0966 377.555 38.6968 375.36 37.8071 372.901C34.7364 364.39 36.9042 361.745 34.3425 348.714C34.0756 347.328 33.7452 345.828 33.3572 344.194C31.2215 335.243 29.1425 332.199 36.7198 317.819C43.5918 304.794 50.7303 294.222 51.3725 294.604C63.4592 301.778 69.9901 302.35 70.9651 296.32C83.1533 308.892 89.1415 322.236 88.9297 336.352Z" fill="#8C9DF4"/>
<path d="M135.394 448.288L121.458 485.795C118.969 486.041 116.457 485.811 114.054 485.118C111.507 484.32 109.093 483.145 106.893 481.632C109.473 454.785 113.169 433.655 117.982 418.243L135.394 448.288Z" fill="#2B478B"/>
<path d="M70.9663 296.32C83.403 298.429 90.3516 302.161 91.812 307.515C93.2725 312.869 98.2997 331.286 106.894 362.765C100.571 363.901 95.9498 363.009 93.0292 360.088C90.1086 357.168 85.0272 343.619 77.785 319.442L70.9663 296.32Z" fill="#8C9DF4"/>
<path d="M75.4083 376.674C62.0971 377.558 38.6973 375.363 37.8076 372.905C34.7369 364.393 36.9047 361.749 34.343 348.717L40.7636 330.636C40.0556 344.057 41.6808 352.533 45.6391 356.062C51.5702 361.358 69.9481 366.284 72.8335 370.709C74.2258 372.835 75.1417 374.965 75.4083 376.674Z" fill="#6980E2"/>
<path d="M60.1575 368.204C68.9123 366.255 73.9961 365.669 75.4089 366.446C77.5276 367.612 82.7065 371.856 83.3546 373.333C84.0028 374.81 78.6378 372.211 76.8922 371.743C75.7617 371.44 72.7862 372.474 71.3135 372.965C67.1818 374.343 63.8498 374.677 61.3175 373.968L60.1575 368.204Z" fill="#FFB27D"/>
<path d="M51.362 294.597C39.6065 295.321 31.694 298.521 27.6246 304.197C19.032 316.182 1.9863 367.259 11.7551 374.07C19.0884 379.185 35.7789 379.854 61.8267 376.077C62.6935 372.026 62.5242 369.02 61.319 367.06C59.5104 364.121 30.1135 359.372 28.7567 358.015C27.3999 356.659 45.7165 331.558 45.7165 327.488C45.7157 324.775 47.5975 313.811 51.362 294.597Z" fill="#8C9DF4"/>
<path d="M76.0437 370.103C77.877 372.47 79.0949 373.794 79.6974 374.076C80.1488 374.33 80.6663 374.441 81.1819 374.394L79.3276 371.057L76.0437 370.103Z" fill="#FFB27D"/>
<path d="M75.4082 366.448L83.4085 370.333C83.1829 370.705 82.7411 370.875 82.083 370.845C81.425 370.816 80.2686 370.498 78.6138 369.891L75.4082 366.448Z" fill="#FFB27D"/>
<path d="M76.8052 379.513H144.3L164.604 332.174H97.2126L76.8052 379.513Z" fill="#F77D48"/>
<path d="M145.09 376.446H55.9631V379.436H144.301L145.09 376.446Z" fill="#F77D48"/>
<path d="M127.261 355.844C127.769 354.18 126.744 352.831 124.97 352.831C124.058 352.863 123.177 353.167 122.44 353.704C121.703 354.241 121.144 354.986 120.834 355.844C120.327 357.508 121.352 358.857 123.127 358.857C124.038 358.825 124.919 358.521 125.656 357.984C126.393 357.447 126.952 356.702 127.261 355.844Z" fill="#EBF3FA"/>
<path d="M244.098 529.734H244.282C244.552 529.72 244.818 529.652 245.062 529.534C245.306 529.416 245.524 529.251 245.704 529.048C245.883 528.845 246.021 528.609 246.108 528.352C246.196 528.096 246.232 527.824 246.213 527.554L243.282 387.512L234.656 386.401L242.013 527.565C242.017 528.124 242.235 528.661 242.623 529.065C243.011 529.468 243.539 529.708 244.098 529.734Z" fill="#233862"/>
<path d="M62.2554 529.734H62.0714C61.8008 529.72 61.5357 529.652 61.2917 529.534C61.0476 529.416 60.8294 529.251 60.6497 529.048C60.47 528.845 60.3325 528.609 60.245 528.352C60.1576 528.096 60.1221 527.825 60.1405 527.554L63.069 387.511L71.6959 386.4L64.339 527.565C64.335 528.124 64.1168 528.661 63.7292 529.064C63.3417 529.468 62.8143 529.708 62.2554 529.734Z" fill="#233862"/>
<path d="M247.494 389.534H50.984C50.5712 389.534 50.1624 389.453 49.781 389.295C49.3996 389.137 49.053 388.905 48.7611 388.613C48.4692 388.321 48.2377 387.975 48.0797 387.593C47.9218 387.212 47.8405 386.803 47.8406 386.39V382.657C47.8405 382.244 47.9218 381.835 48.0797 381.454C48.2377 381.072 48.4692 380.726 48.7611 380.434C49.053 380.142 49.3996 379.91 49.781 379.752C50.1624 379.594 50.5712 379.513 50.984 379.513H247.494C247.907 379.513 248.315 379.594 248.697 379.752C249.078 379.91 249.425 380.142 249.717 380.434C250.009 380.726 250.24 381.072 250.398 381.454C250.556 381.835 250.637 382.244 250.637 382.657V386.39C250.637 386.803 250.556 387.212 250.398 387.593C250.24 387.975 250.009 388.321 249.717 388.613C249.425 388.905 249.078 389.137 248.697 389.295C248.315 389.453 247.907 389.534 247.494 389.534Z" fill="#233862"/>
<path d="M824.816 532H1.1868C0.872311 531.999 0.570944 531.831 0.348562 531.534C0.12618 531.236 0.000863289 530.833 0 530.412V528.874C0.000949148 528.453 0.126293 528.05 0.348657 527.752C0.57102 527.454 0.872337 527.287 1.1868 527.285H824.816C825.13 527.287 825.432 527.454 825.654 527.752C825.876 528.05 826.002 528.453 826.003 528.874V530.412C826.002 530.833 825.877 531.236 825.654 531.534C825.432 531.831 825.13 531.999 824.816 532Z" fill="#2E3552"/>
</svg>
