<svg width="9" height="17" viewBox="0 0 9 17" fill="none" xmlns="http://www.w3.org/2000/svg">
<path fill-rule="evenodd" clip-rule="evenodd" d="M0.517209 0.95471C0.572364 0.899416 0.637885 0.855546 0.71002 0.825614C0.782154 0.795681 0.859486 0.780273 0.937585 0.780273C1.01568 0.780273 1.09301 0.795681 1.16515 0.825614C1.23728 0.855546 1.30281 0.899416 1.35796 0.95471L8.48296 8.07971C8.53825 8.13486 8.58212 8.20038 8.61206 8.27252C8.64199 8.34465 8.6574 8.42199 8.6574 8.50008C8.6574 8.57818 8.64199 8.65551 8.61206 8.72765C8.58212 8.79978 8.53825 8.8653 8.48296 8.92046L1.35796 16.0455C1.24647 16.1569 1.09526 16.2196 0.937585 16.2196C0.779913 16.2196 0.6287 16.1569 0.517209 16.0455C0.405719 15.934 0.343084 15.7828 0.343084 15.6251C0.343084 15.4674 0.405719 15.3162 0.517209 15.2047L7.22302 8.50008L0.517209 1.79546C0.461916 1.74031 0.418046 1.67478 0.388113 1.60265C0.358181 1.53051 0.342773 1.45318 0.342773 1.37508C0.342773 1.29699 0.358181 1.21965 0.388113 1.14752C0.418046 1.07539 0.461916 1.00986 0.517209 0.95471Z" fill="black"/>
</svg>
