<svg width="28" height="28" viewBox="0 0 28 28" fill="none" xmlns="http://www.w3.org/2000/svg">
<path d="M1.42194 1.42243C1.59612 1.24782 1.80302 1.10928 2.03082 1.01476C2.25861 0.920236 2.50282 0.871582 2.74944 0.871582C2.99607 0.871582 3.24028 0.920236 3.46807 1.01476C3.69587 1.10928 3.90277 1.24782 4.07695 1.42243L13.9994 11.3487L23.9219 1.42243C24.0963 1.2481 24.3032 1.10982 24.531 1.01547C24.7588 0.921123 25.0029 0.872564 25.2494 0.872564C25.496 0.872564 25.7401 0.921123 25.9679 1.01547C26.1957 1.10982 26.4026 1.2481 26.5769 1.42243C26.7513 1.59676 26.8896 1.80372 26.9839 2.03149C27.0783 2.25927 27.1268 2.50339 27.1268 2.74993C27.1268 2.99647 27.0783 3.2406 26.9839 3.46837C26.8896 3.69614 26.7513 3.9031 26.5769 4.07743L16.6507 13.9999L26.5769 23.9224C26.7513 24.0968 26.8896 24.3037 26.9839 24.5315C27.0783 24.7593 27.1268 25.0034 27.1268 25.2499C27.1268 25.4965 27.0783 25.7406 26.9839 25.9684C26.8896 26.1961 26.7513 26.4031 26.5769 26.5774C26.4026 26.7518 26.1957 26.89 25.9679 26.9844C25.7401 27.0787 25.496 27.1273 25.2494 27.1273C25.0029 27.1273 24.7588 27.0787 24.531 26.9844C24.3032 26.89 24.0963 26.7518 23.9219 26.5774L13.9994 16.6512L4.07695 26.5774C3.90262 26.7518 3.69566 26.89 3.46788 26.9844C3.24011 27.0787 2.99598 27.1273 2.74944 27.1273C2.50291 27.1273 2.25878 27.0787 2.03101 26.9844C1.80323 26.89 1.59627 26.7518 1.42194 26.5774C1.24761 26.4031 1.10933 26.1961 1.01498 25.9684C0.920635 25.7406 0.872075 25.4965 0.872075 25.2499C0.872075 25.0034 0.920635 24.7593 1.01498 24.5315C1.10933 24.3037 1.24761 24.0968 1.42194 23.9224L11.3482 13.9999L1.42194 4.07743C1.24733 3.90326 1.1088 3.69635 1.01427 3.46856C0.919748 3.24077 0.871094 2.99656 0.871094 2.74993C0.871094 2.50331 0.919748 2.2591 1.01427 2.03131C1.1088 1.80351 1.24733 1.5966 1.42194 1.42243Z" fill="black"/>
</svg>
