<svg width="192" height="168" viewBox="0 0 192 168" fill="none" xmlns="http://www.w3.org/2000/svg">
<g opacity="0.17">
<mask id="mask0" mask-type="alpha" maskUnits="userSpaceOnUse" x="0" y="0" width="11" height="11">
<path d="M5.22838 10.425C8.11594 10.425 10.4568 8.09121 10.4568 5.21245C10.4568 2.33368 8.11594 0 5.22838 0C2.34082 0 0 2.33368 0 5.21245C0 8.09121 2.34082 10.425 5.22838 10.425Z" fill="#FC7318"/>
</mask>
<g mask="url(#mask0)">
<path d="M5.22838 10.425C8.11594 10.425 10.4568 8.09121 10.4568 5.21245C10.4568 2.33368 8.11594 0 5.22838 0C2.34082 0 0 2.33368 0 5.21245C0 8.09121 2.34082 10.425 5.22838 10.425Z" fill="#FC7318"/>
</g>
<mask id="mask1" mask-type="alpha" maskUnits="userSpaceOnUse" x="30" y="0" width="11" height="11">
<path d="M35.5096 10.425C38.3972 10.425 40.738 8.09121 40.738 5.21245C40.738 2.33368 38.3972 0 35.5096 0C32.6221 0 30.2812 2.33368 30.2812 5.21245C30.2812 8.09121 32.6221 10.425 35.5096 10.425Z" fill="#FC7318"/>
</mask>
<g mask="url(#mask1)">
<path d="M35.5096 10.425C38.3972 10.425 40.738 8.09121 40.738 5.21245C40.738 2.33368 38.3972 0 35.5096 0C32.6221 0 30.2812 2.33368 30.2812 5.21245C30.2812 8.09121 32.6221 10.425 35.5096 10.425Z" fill="#FC7318"/>
</g>
<mask id="mask2" mask-type="alpha" maskUnits="userSpaceOnUse" x="60" y="0" width="12" height="11">
<path d="M65.7909 10.425C68.6784 10.425 71.0193 8.09121 71.0193 5.21245C71.0193 2.33368 68.6784 0 65.7909 0C62.9033 0 60.5625 2.33368 60.5625 5.21245C60.5625 8.09121 62.9033 10.425 65.7909 10.425Z" fill="#FC7318"/>
</mask>
<g mask="url(#mask2)">
<path d="M65.7909 10.425C68.6784 10.425 71.0193 8.09121 71.0193 5.21245C71.0193 2.33368 68.6784 0 65.7909 0C62.9033 0 60.5625 2.33368 60.5625 5.21245C60.5625 8.09121 62.9033 10.425 65.7909 10.425Z" fill="#FC7318"/>
</g>
<mask id="mask3" mask-type="alpha" maskUnits="userSpaceOnUse" x="90" y="0" width="12" height="11">
<path d="M96.0721 10.425C98.9597 10.425 101.301 8.09121 101.301 5.21245C101.301 2.33368 98.9597 0 96.0721 0C93.1846 0 90.8438 2.33368 90.8438 5.21245C90.8438 8.09121 93.1846 10.425 96.0721 10.425Z" fill="#FC7318"/>
</mask>
<g mask="url(#mask3)">
<path d="M96.0721 10.425C98.9597 10.425 101.301 8.09121 101.301 5.21245C101.301 2.33368 98.9597 0 96.0721 0C93.1846 0 90.8438 2.33368 90.8438 5.21245C90.8438 8.09121 93.1846 10.425 96.0721 10.425Z" fill="#FC7318"/>
</g>
<mask id="mask4" mask-type="alpha" maskUnits="userSpaceOnUse" x="121" y="0" width="11" height="11">
<path d="M126.353 10.425C129.241 10.425 131.582 8.09121 131.582 5.21245C131.582 2.33368 129.241 0 126.353 0C123.466 0 121.125 2.33368 121.125 5.21245C121.125 8.09121 123.466 10.425 126.353 10.425Z" fill="#FC7318"/>
</mask>
<g mask="url(#mask4)">
<path d="M126.353 10.425C129.241 10.425 131.582 8.09121 131.582 5.21245C131.582 2.33368 129.241 0 126.353 0C123.466 0 121.125 2.33368 121.125 5.21245C121.125 8.09121 123.466 10.425 126.353 10.425Z" fill="#FC7318"/>
</g>
<mask id="mask5" mask-type="alpha" maskUnits="userSpaceOnUse" x="0" y="26" width="11" height="11">
<path d="M5.22838 36.5958C8.11594 36.5958 10.4568 34.2621 10.4568 31.3833C10.4568 28.5046 8.11594 26.1709 5.22838 26.1709C2.34082 26.1709 0 28.5046 0 31.3833C0 34.2621 2.34082 36.5958 5.22838 36.5958Z" fill="#FC7318"/>
</mask>
<g mask="url(#mask5)">
<path d="M5.22838 36.5958C8.11594 36.5958 10.4568 34.2621 10.4568 31.3833C10.4568 28.5046 8.11594 26.1709 5.22838 26.1709C2.34082 26.1709 0 28.5046 0 31.3833C0 34.2621 2.34082 36.5958 5.22838 36.5958Z" fill="#FC7318"/>
</g>
<mask id="mask6" mask-type="alpha" maskUnits="userSpaceOnUse" x="30" y="26" width="11" height="11">
<path d="M35.5096 36.5958C38.3972 36.5958 40.738 34.2621 40.738 31.3833C40.738 28.5046 38.3972 26.1709 35.5096 26.1709C32.6221 26.1709 30.2812 28.5046 30.2812 31.3833C30.2812 34.2621 32.6221 36.5958 35.5096 36.5958Z" fill="#FC7318"/>
</mask>
<g mask="url(#mask6)">
<path d="M35.5096 36.5958C38.3972 36.5958 40.738 34.2621 40.738 31.3833C40.738 28.5046 38.3972 26.1709 35.5096 26.1709C32.6221 26.1709 30.2812 28.5046 30.2812 31.3833C30.2812 34.2621 32.6221 36.5958 35.5096 36.5958Z" fill="#FC7318"/>
</g>
<mask id="mask7" mask-type="alpha" maskUnits="userSpaceOnUse" x="60" y="26" width="12" height="11">
<path d="M65.7909 36.5958C68.6784 36.5958 71.0193 34.2621 71.0193 31.3833C71.0193 28.5046 68.6784 26.1709 65.7909 26.1709C62.9033 26.1709 60.5625 28.5046 60.5625 31.3833C60.5625 34.2621 62.9033 36.5958 65.7909 36.5958Z" fill="#FC7318"/>
</mask>
<g mask="url(#mask7)">
<path d="M65.7909 36.5958C68.6784 36.5958 71.0193 34.2621 71.0193 31.3833C71.0193 28.5046 68.6784 26.1709 65.7909 26.1709C62.9033 26.1709 60.5625 28.5046 60.5625 31.3833C60.5625 34.2621 62.9033 36.5958 65.7909 36.5958Z" fill="#FC7318"/>
</g>
<mask id="mask8" mask-type="alpha" maskUnits="userSpaceOnUse" x="90" y="26" width="12" height="11">
<path d="M96.0721 36.5958C98.9597 36.5958 101.301 34.2621 101.301 31.3833C101.301 28.5046 98.9597 26.1709 96.0721 26.1709C93.1846 26.1709 90.8438 28.5046 90.8438 31.3833C90.8438 34.2621 93.1846 36.5958 96.0721 36.5958Z" fill="#FC7318"/>
</mask>
<g mask="url(#mask8)">
<path d="M96.0721 36.5958C98.9597 36.5958 101.301 34.2621 101.301 31.3833C101.301 28.5046 98.9597 26.1709 96.0721 26.1709C93.1846 26.1709 90.8438 28.5046 90.8438 31.3833C90.8438 34.2621 93.1846 36.5958 96.0721 36.5958Z" fill="#FC7318"/>
</g>
<mask id="mask9" mask-type="alpha" maskUnits="userSpaceOnUse" x="121" y="26" width="11" height="11">
<path d="M126.353 36.5958C129.241 36.5958 131.582 34.2621 131.582 31.3833C131.582 28.5046 129.241 26.1709 126.353 26.1709C123.466 26.1709 121.125 28.5046 121.125 31.3833C121.125 34.2621 123.466 36.5958 126.353 36.5958Z" fill="#FC7318"/>
</mask>
<g mask="url(#mask9)">
<path d="M126.353 36.5958C129.241 36.5958 131.582 34.2621 131.582 31.3833C131.582 28.5046 129.241 26.1709 126.353 26.1709C123.466 26.1709 121.125 28.5046 121.125 31.3833C121.125 34.2621 123.466 36.5958 126.353 36.5958Z" fill="#FC7318"/>
</g>
<mask id="mask10" mask-type="alpha" maskUnits="userSpaceOnUse" x="0" y="52" width="11" height="11">
<path d="M5.22838 62.7124C8.11594 62.7124 10.4568 60.3787 10.4568 57.5C10.4568 54.6212 8.11594 52.2875 5.22838 52.2875C2.34082 52.2875 0 54.6212 0 57.5C0 60.3787 2.34082 62.7124 5.22838 62.7124Z" fill="#FC7318"/>
</mask>
<g mask="url(#mask10)">
<path d="M5.22838 62.7124C8.11594 62.7124 10.4568 60.3787 10.4568 57.5C10.4568 54.6212 8.11594 52.2875 5.22838 52.2875C2.34082 52.2875 0 54.6212 0 57.5C0 60.3787 2.34082 62.7124 5.22838 62.7124Z" fill="#FC7318"/>
</g>
<mask id="mask11" mask-type="alpha" maskUnits="userSpaceOnUse" x="30" y="52" width="11" height="11">
<path d="M35.5096 62.7124C38.3972 62.7124 40.738 60.3787 40.738 57.5C40.738 54.6212 38.3972 52.2875 35.5096 52.2875C32.6221 52.2875 30.2812 54.6212 30.2812 57.5C30.2812 60.3787 32.6221 62.7124 35.5096 62.7124Z" fill="#FC7318"/>
</mask>
<g mask="url(#mask11)">
<path d="M35.5096 62.7124C38.3972 62.7124 40.738 60.3787 40.738 57.5C40.738 54.6212 38.3972 52.2875 35.5096 52.2875C32.6221 52.2875 30.2812 54.6212 30.2812 57.5C30.2812 60.3787 32.6221 62.7124 35.5096 62.7124Z" fill="#FC7318"/>
</g>
<mask id="mask12" mask-type="alpha" maskUnits="userSpaceOnUse" x="60" y="52" width="12" height="11">
<path d="M65.7909 62.7124C68.6784 62.7124 71.0193 60.3787 71.0193 57.5C71.0193 54.6212 68.6784 52.2875 65.7909 52.2875C62.9033 52.2875 60.5625 54.6212 60.5625 57.5C60.5625 60.3787 62.9033 62.7124 65.7909 62.7124Z" fill="#FC7318"/>
</mask>
<g mask="url(#mask12)">
<path d="M65.7909 62.7124C68.6784 62.7124 71.0193 60.3787 71.0193 57.5C71.0193 54.6212 68.6784 52.2875 65.7909 52.2875C62.9033 52.2875 60.5625 54.6212 60.5625 57.5C60.5625 60.3787 62.9033 62.7124 65.7909 62.7124Z" fill="#FC7318"/>
</g>
<mask id="mask13" mask-type="alpha" maskUnits="userSpaceOnUse" x="90" y="52" width="12" height="11">
<path d="M96.0721 62.7124C98.9597 62.7124 101.301 60.3787 101.301 57.5C101.301 54.6212 98.9597 52.2875 96.0721 52.2875C93.1846 52.2875 90.8438 54.6212 90.8438 57.5C90.8438 60.3787 93.1846 62.7124 96.0721 62.7124Z" fill="#FC7318"/>
</mask>
<g mask="url(#mask13)">
<path d="M96.0721 62.7124C98.9597 62.7124 101.301 60.3787 101.301 57.5C101.301 54.6212 98.9597 52.2875 96.0721 52.2875C93.1846 52.2875 90.8438 54.6212 90.8438 57.5C90.8438 60.3787 93.1846 62.7124 96.0721 62.7124Z" fill="#FC7318"/>
</g>
<mask id="mask14" mask-type="alpha" maskUnits="userSpaceOnUse" x="121" y="52" width="11" height="11">
<path d="M126.353 62.7124C129.241 62.7124 131.582 60.3787 131.582 57.5C131.582 54.6212 129.241 52.2875 126.353 52.2875C123.466 52.2875 121.125 54.6212 121.125 57.5C121.125 60.3787 123.466 62.7124 126.353 62.7124Z" fill="#FC7318"/>
</mask>
<g mask="url(#mask14)">
<path d="M126.353 62.7124C129.241 62.7124 131.582 60.3787 131.582 57.5C131.582 54.6212 129.241 52.2875 126.353 52.2875C123.466 52.2875 121.125 54.6212 121.125 57.5C121.125 60.3787 123.466 62.7124 126.353 62.7124Z" fill="#FC7318"/>
</g>
<mask id="mask15" mask-type="alpha" maskUnits="userSpaceOnUse" x="0" y="78" width="11" height="11">
<path d="M5.22838 88.8833C8.11594 88.8833 10.4568 86.5496 10.4568 83.6708C10.4568 80.7921 8.11594 78.4584 5.22838 78.4584C2.34082 78.4584 0 80.7921 0 83.6708C0 86.5496 2.34082 88.8833 5.22838 88.8833Z" fill="#FC7318"/>
</mask>
<g mask="url(#mask15)">
<path d="M5.22838 88.8833C8.11594 88.8833 10.4568 86.5496 10.4568 83.6708C10.4568 80.7921 8.11594 78.4584 5.22838 78.4584C2.34082 78.4584 0 80.7921 0 83.6708C0 86.5496 2.34082 88.8833 5.22838 88.8833Z" fill="#FC7318"/>
</g>
<mask id="mask16" mask-type="alpha" maskUnits="userSpaceOnUse" x="30" y="78" width="11" height="11">
<path d="M35.5096 88.8833C38.3972 88.8833 40.738 86.5496 40.738 83.6708C40.738 80.7921 38.3972 78.4584 35.5096 78.4584C32.6221 78.4584 30.2812 80.7921 30.2812 83.6708C30.2812 86.5496 32.6221 88.8833 35.5096 88.8833Z" fill="#FC7318"/>
</mask>
<g mask="url(#mask16)">
<path d="M35.5096 88.8833C38.3972 88.8833 40.738 86.5496 40.738 83.6708C40.738 80.7921 38.3972 78.4584 35.5096 78.4584C32.6221 78.4584 30.2812 80.7921 30.2812 83.6708C30.2812 86.5496 32.6221 88.8833 35.5096 88.8833Z" fill="#FC7318"/>
</g>
<mask id="mask17" mask-type="alpha" maskUnits="userSpaceOnUse" x="60" y="78" width="12" height="11">
<path d="M65.7909 88.8833C68.6784 88.8833 71.0193 86.5496 71.0193 83.6708C71.0193 80.7921 68.6784 78.4584 65.7909 78.4584C62.9033 78.4584 60.5625 80.7921 60.5625 83.6708C60.5625 86.5496 62.9033 88.8833 65.7909 88.8833Z" fill="#FC7318"/>
</mask>
<g mask="url(#mask17)">
<path d="M65.7909 88.8833C68.6784 88.8833 71.0193 86.5496 71.0193 83.6708C71.0193 80.7921 68.6784 78.4584 65.7909 78.4584C62.9033 78.4584 60.5625 80.7921 60.5625 83.6708C60.5625 86.5496 62.9033 88.8833 65.7909 88.8833Z" fill="#FC7318"/>
</g>
<mask id="mask18" mask-type="alpha" maskUnits="userSpaceOnUse" x="90" y="78" width="12" height="11">
<path d="M96.0721 88.8833C98.9597 88.8833 101.301 86.5496 101.301 83.6708C101.301 80.7921 98.9597 78.4584 96.0721 78.4584C93.1846 78.4584 90.8438 80.7921 90.8438 83.6708C90.8438 86.5496 93.1846 88.8833 96.0721 88.8833Z" fill="#FC7318"/>
</mask>
<g mask="url(#mask18)">
<path d="M96.0721 88.8833C98.9597 88.8833 101.301 86.5496 101.301 83.6708C101.301 80.7921 98.9597 78.4584 96.0721 78.4584C93.1846 78.4584 90.8438 80.7921 90.8438 83.6708C90.8438 86.5496 93.1846 88.8833 96.0721 88.8833Z" fill="#FC7318"/>
</g>
<mask id="mask19" mask-type="alpha" maskUnits="userSpaceOnUse" x="121" y="78" width="11" height="11">
<path d="M126.353 88.8833C129.241 88.8833 131.582 86.5496 131.582 83.6708C131.582 80.7921 129.241 78.4584 126.353 78.4584C123.466 78.4584 121.125 80.7921 121.125 83.6708C121.125 86.5496 123.466 88.8833 126.353 88.8833Z" fill="#FC7318"/>
</mask>
<g mask="url(#mask19)">
<path d="M126.353 88.8833C129.241 88.8833 131.582 86.5496 131.582 83.6708C131.582 80.7921 129.241 78.4584 126.353 78.4584C123.466 78.4584 121.125 80.7921 121.125 83.6708C121.125 86.5496 123.466 88.8833 126.353 88.8833Z" fill="#FC7318"/>
</g>
<mask id="mask20" mask-type="alpha" maskUnits="userSpaceOnUse" x="0" y="104" width="11" height="11">
<path d="M5.22838 115C8.11594 115 10.4568 112.666 10.4568 109.788C10.4568 106.909 8.11594 104.575 5.22838 104.575C2.34082 104.575 0 106.909 0 109.788C0 112.666 2.34082 115 5.22838 115Z" fill="#FC7318"/>
</mask>
<g mask="url(#mask20)">
<path d="M5.22838 115C8.11594 115 10.4568 112.666 10.4568 109.788C10.4568 106.909 8.11594 104.575 5.22838 104.575C2.34082 104.575 0 106.909 0 109.788C0 112.666 2.34082 115 5.22838 115Z" fill="#FC7318"/>
</g>
<mask id="mask21" mask-type="alpha" maskUnits="userSpaceOnUse" x="0" y="131" width="11" height="11">
<path d="M5.22838 141.425C8.11594 141.425 10.4568 139.091 10.4568 136.213C10.4568 133.334 8.11594 131 5.22838 131C2.34082 131 0 133.334 0 136.213C0 139.091 2.34082 141.425 5.22838 141.425Z" fill="#FC7318"/>
</mask>
<g mask="url(#mask21)">
<path d="M5.22838 141.425C8.11594 141.425 10.4568 139.091 10.4568 136.213C10.4568 133.334 8.11594 131 5.22838 131C2.34082 131 0 133.334 0 136.213C0 139.091 2.34082 141.425 5.22838 141.425Z" fill="#FC7318"/>
</g>
<mask id="mask22" mask-type="alpha" maskUnits="userSpaceOnUse" x="0" y="157" width="11" height="11">
<path d="M5.22838 167.425C8.11594 167.425 10.4568 165.091 10.4568 162.213C10.4568 159.334 8.11594 157 5.22838 157C2.34082 157 0 159.334 0 162.213C0 165.091 2.34082 167.425 5.22838 167.425Z" fill="#FC7318"/>
</mask>
<g mask="url(#mask22)">
<path d="M5.22838 167.425C8.11594 167.425 10.4568 165.091 10.4568 162.213C10.4568 159.334 8.11594 157 5.22838 157C2.34082 157 0 159.334 0 162.213C0 165.091 2.34082 167.425 5.22838 167.425Z" fill="#FC7318"/>
</g>
<mask id="mask23" mask-type="alpha" maskUnits="userSpaceOnUse" x="30" y="104" width="11" height="11">
<path d="M35.5096 115C38.3972 115 40.738 112.666 40.738 109.788C40.738 106.909 38.3972 104.575 35.5096 104.575C32.6221 104.575 30.2812 106.909 30.2812 109.788C30.2812 112.666 32.6221 115 35.5096 115Z" fill="#FC7318"/>
</mask>
<g mask="url(#mask23)">
<path d="M35.5096 115C38.3972 115 40.738 112.666 40.738 109.788C40.738 106.909 38.3972 104.575 35.5096 104.575C32.6221 104.575 30.2812 106.909 30.2812 109.788C30.2812 112.666 32.6221 115 35.5096 115Z" fill="#FC7318"/>
</g>
<mask id="mask24" mask-type="alpha" maskUnits="userSpaceOnUse" x="30" y="131" width="11" height="11">
<path d="M35.5096 141.425C38.3972 141.425 40.738 139.091 40.738 136.213C40.738 133.334 38.3972 131 35.5096 131C32.6221 131 30.2812 133.334 30.2812 136.213C30.2812 139.091 32.6221 141.425 35.5096 141.425Z" fill="#FC7318"/>
</mask>
<g mask="url(#mask24)">
<path d="M35.5096 141.425C38.3972 141.425 40.738 139.091 40.738 136.213C40.738 133.334 38.3972 131 35.5096 131C32.6221 131 30.2812 133.334 30.2812 136.213C30.2812 139.091 32.6221 141.425 35.5096 141.425Z" fill="#FC7318"/>
</g>
<mask id="mask25" mask-type="alpha" maskUnits="userSpaceOnUse" x="30" y="157" width="11" height="11">
<path d="M35.5096 167.425C38.3972 167.425 40.738 165.091 40.738 162.213C40.738 159.334 38.3972 157 35.5096 157C32.6221 157 30.2812 159.334 30.2812 162.213C30.2812 165.091 32.6221 167.425 35.5096 167.425Z" fill="#FC7318"/>
</mask>
<g mask="url(#mask25)">
<path d="M35.5096 167.425C38.3972 167.425 40.738 165.091 40.738 162.213C40.738 159.334 38.3972 157 35.5096 157C32.6221 157 30.2812 159.334 30.2812 162.213C30.2812 165.091 32.6221 167.425 35.5096 167.425Z" fill="#FC7318"/>
</g>
<mask id="mask26" mask-type="alpha" maskUnits="userSpaceOnUse" x="60" y="104" width="12" height="11">
<path d="M65.7909 115C68.6784 115 71.0193 112.666 71.0193 109.788C71.0193 106.909 68.6784 104.575 65.7909 104.575C62.9033 104.575 60.5625 106.909 60.5625 109.788C60.5625 112.666 62.9033 115 65.7909 115Z" fill="#FC7318"/>
</mask>
<g mask="url(#mask26)">
<path d="M65.7909 115C68.6784 115 71.0193 112.666 71.0193 109.788C71.0193 106.909 68.6784 104.575 65.7909 104.575C62.9033 104.575 60.5625 106.909 60.5625 109.788C60.5625 112.666 62.9033 115 65.7909 115Z" fill="#FC7318"/>
</g>
<mask id="mask27" mask-type="alpha" maskUnits="userSpaceOnUse" x="60" y="131" width="12" height="11">
<path d="M65.7909 141.425C68.6784 141.425 71.0193 139.091 71.0193 136.213C71.0193 133.334 68.6784 131 65.7909 131C62.9033 131 60.5625 133.334 60.5625 136.213C60.5625 139.091 62.9033 141.425 65.7909 141.425Z" fill="#FC7318"/>
</mask>
<g mask="url(#mask27)">
<path d="M65.7909 141.425C68.6784 141.425 71.0193 139.091 71.0193 136.213C71.0193 133.334 68.6784 131 65.7909 131C62.9033 131 60.5625 133.334 60.5625 136.213C60.5625 139.091 62.9033 141.425 65.7909 141.425Z" fill="#FC7318"/>
</g>
<mask id="mask28" mask-type="alpha" maskUnits="userSpaceOnUse" x="60" y="157" width="12" height="11">
<path d="M65.7909 167.425C68.6784 167.425 71.0193 165.091 71.0193 162.213C71.0193 159.334 68.6784 157 65.7909 157C62.9033 157 60.5625 159.334 60.5625 162.213C60.5625 165.091 62.9033 167.425 65.7909 167.425Z" fill="#FC7318"/>
</mask>
<g mask="url(#mask28)">
<path d="M65.7909 167.425C68.6784 167.425 71.0193 165.091 71.0193 162.213C71.0193 159.334 68.6784 157 65.7909 157C62.9033 157 60.5625 159.334 60.5625 162.213C60.5625 165.091 62.9033 167.425 65.7909 167.425Z" fill="#FC7318"/>
</g>
<mask id="mask29" mask-type="alpha" maskUnits="userSpaceOnUse" x="90" y="104" width="12" height="11">
<path d="M96.0721 115C98.9597 115 101.301 112.666 101.301 109.788C101.301 106.909 98.9597 104.575 96.0721 104.575C93.1846 104.575 90.8438 106.909 90.8438 109.788C90.8438 112.666 93.1846 115 96.0721 115Z" fill="#FC7318"/>
</mask>
<g mask="url(#mask29)">
<path d="M96.0721 115C98.9597 115 101.301 112.666 101.301 109.788C101.301 106.909 98.9597 104.575 96.0721 104.575C93.1846 104.575 90.8438 106.909 90.8438 109.788C90.8438 112.666 93.1846 115 96.0721 115Z" fill="#FC7318"/>
</g>
<mask id="mask30" mask-type="alpha" maskUnits="userSpaceOnUse" x="90" y="131" width="12" height="11">
<path d="M96.0721 141.425C98.9597 141.425 101.301 139.091 101.301 136.213C101.301 133.334 98.9597 131 96.0721 131C93.1846 131 90.8438 133.334 90.8438 136.213C90.8438 139.091 93.1846 141.425 96.0721 141.425Z" fill="#FC7318"/>
</mask>
<g mask="url(#mask30)">
<path d="M96.0721 141.425C98.9597 141.425 101.301 139.091 101.301 136.213C101.301 133.334 98.9597 131 96.0721 131C93.1846 131 90.8438 133.334 90.8438 136.213C90.8438 139.091 93.1846 141.425 96.0721 141.425Z" fill="#FC7318"/>
</g>
<mask id="mask31" mask-type="alpha" maskUnits="userSpaceOnUse" x="90" y="157" width="12" height="11">
<path d="M96.0721 167.425C98.9597 167.425 101.301 165.091 101.301 162.213C101.301 159.334 98.9597 157 96.0721 157C93.1846 157 90.8438 159.334 90.8438 162.213C90.8438 165.091 93.1846 167.425 96.0721 167.425Z" fill="#FC7318"/>
</mask>
<g mask="url(#mask31)">
<path d="M96.0721 167.425C98.9597 167.425 101.301 165.091 101.301 162.213C101.301 159.334 98.9597 157 96.0721 157C93.1846 157 90.8438 159.334 90.8438 162.213C90.8438 165.091 93.1846 167.425 96.0721 167.425Z" fill="#FC7318"/>
</g>
<mask id="mask32" mask-type="alpha" maskUnits="userSpaceOnUse" x="121" y="104" width="11" height="11">
<path d="M126.353 115C129.241 115 131.582 112.666 131.582 109.788C131.582 106.909 129.241 104.575 126.353 104.575C123.466 104.575 121.125 106.909 121.125 109.788C121.125 112.666 123.466 115 126.353 115Z" fill="#FC7318"/>
</mask>
<g mask="url(#mask32)">
<path d="M126.353 115C129.241 115 131.582 112.666 131.582 109.788C131.582 106.909 129.241 104.575 126.353 104.575C123.466 104.575 121.125 106.909 121.125 109.788C121.125 112.666 123.466 115 126.353 115Z" fill="#FC7318"/>
</g>
<mask id="mask33" mask-type="alpha" maskUnits="userSpaceOnUse" x="121" y="131" width="11" height="11">
<path d="M126.353 141.425C129.241 141.425 131.582 139.091 131.582 136.213C131.582 133.334 129.241 131 126.353 131C123.466 131 121.125 133.334 121.125 136.213C121.125 139.091 123.466 141.425 126.353 141.425Z" fill="#FC7318"/>
</mask>
<g mask="url(#mask33)">
<path d="M126.353 141.425C129.241 141.425 131.582 139.091 131.582 136.213C131.582 133.334 129.241 131 126.353 131C123.466 131 121.125 133.334 121.125 136.213C121.125 139.091 123.466 141.425 126.353 141.425Z" fill="#FC7318"/>
</g>
<mask id="mask34" mask-type="alpha" maskUnits="userSpaceOnUse" x="121" y="157" width="11" height="11">
<path d="M126.353 167.425C129.241 167.425 131.582 165.091 131.582 162.213C131.582 159.334 129.241 157 126.353 157C123.466 157 121.125 159.334 121.125 162.213C121.125 165.091 123.466 167.425 126.353 167.425Z" fill="#FC7318"/>
</mask>
<g mask="url(#mask34)">
<path d="M126.353 167.425C129.241 167.425 131.582 165.091 131.582 162.213C131.582 159.334 129.241 157 126.353 157C123.466 157 121.125 159.334 121.125 162.213C121.125 165.091 123.466 167.425 126.353 167.425Z" fill="#FC7318"/>
</g>
<mask id="mask35" mask-type="alpha" maskUnits="userSpaceOnUse" x="151" y="105" width="11" height="11">
<path d="M161.425 110.228C161.425 107.341 159.091 105 156.213 105C153.334 105 151 107.341 151 110.228C151 113.116 153.334 115.457 156.213 115.457C159.091 115.457 161.425 113.116 161.425 110.228Z" fill="#FC7318"/>
</mask>
<g mask="url(#mask35)">
<path d="M161.425 110.228C161.425 107.341 159.091 105 156.213 105C153.334 105 151 107.341 151 110.228C151 113.116 153.334 115.457 156.213 115.457C159.091 115.457 161.425 113.116 161.425 110.228Z" fill="#FC7318"/>
</g>
<mask id="mask36" mask-type="alpha" maskUnits="userSpaceOnUse" x="151" y="79" width="11" height="11">
<path d="M161.425 84.2284C161.425 81.3408 159.091 79 156.213 79C153.334 79 151 81.3408 151 84.2284C151 87.116 153.334 89.4568 156.213 89.4568C159.091 89.4568 161.425 87.116 161.425 84.2284Z" fill="#FC7318"/>
</mask>
<g mask="url(#mask36)">
<path d="M161.425 84.2284C161.425 81.3408 159.091 79 156.213 79C153.334 79 151 81.3408 151 84.2284C151 87.116 153.334 89.4568 156.213 89.4568C159.091 89.4568 161.425 87.116 161.425 84.2284Z" fill="#FC7318"/>
</g>
<mask id="mask37" mask-type="alpha" maskUnits="userSpaceOnUse" x="151" y="52" width="11" height="11">
<path d="M161.425 57.2284C161.425 54.3408 159.091 52 156.213 52C153.334 52 151 54.3408 151 57.2284C151 60.116 153.334 62.4568 156.213 62.4568C159.091 62.4568 161.425 60.116 161.425 57.2284Z" fill="#FC7318"/>
</mask>
<g mask="url(#mask37)">
<path d="M161.425 57.2284C161.425 54.3408 159.091 52 156.213 52C153.334 52 151 54.3408 151 57.2284C151 60.116 153.334 62.4568 156.213 62.4568C159.091 62.4568 161.425 60.116 161.425 57.2284Z" fill="#FC7318"/>
</g>
<mask id="mask38" mask-type="alpha" maskUnits="userSpaceOnUse" x="151" y="27" width="11" height="11">
<path d="M161.425 32.2284C161.425 29.3408 159.091 27 156.213 27C153.334 27 151 29.3408 151 32.2284C151 35.116 153.334 37.4568 156.213 37.4568C159.091 37.4568 161.425 35.116 161.425 32.2284Z" fill="#FC7318"/>
</mask>
<g mask="url(#mask38)">
<path d="M161.425 32.2284C161.425 29.3408 159.091 27 156.213 27C153.334 27 151 29.3408 151 32.2284C151 35.116 153.334 37.4568 156.213 37.4568C159.091 37.4568 161.425 35.116 161.425 32.2284Z" fill="#FC7318"/>
</g>
<mask id="mask39" mask-type="alpha" maskUnits="userSpaceOnUse" x="151" y="0" width="11" height="11">
<path d="M161.425 5.22841C161.425 2.34084 159.091 8.22939e-06 156.213 8.35522e-06C153.334 8.48106e-06 151 2.34084 151 5.22841C151 8.11597 153.334 10.4568 156.213 10.4568C159.091 10.4568 161.425 8.11597 161.425 5.22841Z" fill="#FC7318"/>
</mask>
<g mask="url(#mask39)">
<path d="M161.425 5.22841C161.425 2.34084 159.091 8.22939e-06 156.213 8.35522e-06C153.334 8.48106e-06 151 2.34084 151 5.22841C151 8.11597 153.334 10.4568 156.213 10.4568C159.091 10.4568 161.425 8.11597 161.425 5.22841Z" fill="#FC7318"/>
</g>
<mask id="mask40" mask-type="alpha" maskUnits="userSpaceOnUse" x="181" y="79" width="11" height="11">
<path d="M191.425 84.2284C191.425 81.3408 189.091 79 186.213 79C183.334 79 181 81.3408 181 84.2284C181 87.116 183.334 89.4568 186.213 89.4568C189.091 89.4568 191.425 87.116 191.425 84.2284Z" fill="#FC7318"/>
</mask>
<g mask="url(#mask40)">
<path d="M191.425 84.2284C191.425 81.3408 189.091 79 186.213 79C183.334 79 181 81.3408 181 84.2284C181 87.116 183.334 89.4568 186.213 89.4568C189.091 89.4568 191.425 87.116 191.425 84.2284Z" fill="#FC7318"/>
</g>
<mask id="mask41" mask-type="alpha" maskUnits="userSpaceOnUse" x="181" y="52" width="11" height="11">
<path d="M191.425 57.2284C191.425 54.3408 189.091 52 186.213 52C183.334 52 181 54.3408 181 57.2284C181 60.116 183.334 62.4568 186.213 62.4568C189.091 62.4568 191.425 60.116 191.425 57.2284Z" fill="#FC7318"/>
</mask>
<g mask="url(#mask41)">
<path d="M191.425 57.2284C191.425 54.3408 189.091 52 186.213 52C183.334 52 181 54.3408 181 57.2284C181 60.116 183.334 62.4568 186.213 62.4568C189.091 62.4568 191.425 60.116 191.425 57.2284Z" fill="#FC7318"/>
</g>
<mask id="mask42" mask-type="alpha" maskUnits="userSpaceOnUse" x="181" y="27" width="11" height="11">
<path d="M191.425 32.2284C191.425 29.3408 189.091 27 186.213 27C183.334 27 181 29.3408 181 32.2284C181 35.116 183.334 37.4568 186.213 37.4568C189.091 37.4568 191.425 35.116 191.425 32.2284Z" fill="#FC7318"/>
</mask>
<g mask="url(#mask42)">
<path d="M191.425 32.2284C191.425 29.3408 189.091 27 186.213 27C183.334 27 181 29.3408 181 32.2284C181 35.116 183.334 37.4568 186.213 37.4568C189.091 37.4568 191.425 35.116 191.425 32.2284Z" fill="#FC7318"/>
</g>
<mask id="mask43" mask-type="alpha" maskUnits="userSpaceOnUse" x="181" y="0" width="11" height="11">
<path d="M191.425 5.22841C191.425 2.34084 189.091 8.22939e-06 186.213 8.35522e-06C183.334 8.48106e-06 181 2.34084 181 5.22841C181 8.11597 183.334 10.4568 186.213 10.4568C189.091 10.4568 191.425 8.11597 191.425 5.22841Z" fill="#FC7318"/>
</mask>
<g mask="url(#mask43)">
<path d="M191.425 5.22841C191.425 2.34084 189.091 8.22939e-06 186.213 8.35522e-06C183.334 8.48106e-06 181 2.34084 181 5.22841C181 8.11597 183.334 10.4568 186.213 10.4568C189.091 10.4568 191.425 8.11597 191.425 5.22841Z" fill="#FC7318"/>
</g>
<mask id="mask44" mask-type="alpha" maskUnits="userSpaceOnUse" x="151" y="131" width="11" height="11">
<path d="M161.425 136.228C161.425 133.341 159.091 131 156.213 131C153.334 131 151 133.341 151 136.228C151 139.116 153.334 141.457 156.213 141.457C159.091 141.457 161.425 139.116 161.425 136.228Z" fill="#FC7318"/>
</mask>
<g mask="url(#mask44)">
<path d="M161.425 136.228C161.425 133.341 159.091 131 156.213 131C153.334 131 151 133.341 151 136.228C151 139.116 153.334 141.457 156.213 141.457C159.091 141.457 161.425 139.116 161.425 136.228Z" fill="#FC7318"/>
</g>
<mask id="mask45" mask-type="alpha" maskUnits="userSpaceOnUse" x="151" y="157" width="11" height="11">
<path d="M161.425 162.228C161.425 159.341 159.091 157 156.213 157C153.334 157 151 159.341 151 162.228C151 165.116 153.334 167.457 156.213 167.457C159.091 167.457 161.425 165.116 161.425 162.228Z" fill="#FC7318"/>
</mask>
<g mask="url(#mask45)">
<path d="M161.425 162.228C161.425 159.341 159.091 157 156.213 157C153.334 157 151 159.341 151 162.228C151 165.116 153.334 167.457 156.213 167.457C159.091 167.457 161.425 165.116 161.425 162.228Z" fill="#FC7318"/>
</g>
<mask id="mask46" mask-type="alpha" maskUnits="userSpaceOnUse" x="181" y="157" width="11" height="11">
<path d="M191.425 162.228C191.425 159.341 189.091 157 186.213 157C183.334 157 181 159.341 181 162.228C181 165.116 183.334 167.457 186.213 167.457C189.091 167.457 191.425 165.116 191.425 162.228Z" fill="#FC7318"/>
</mask>
<g mask="url(#mask46)">
<path d="M191.425 162.228C191.425 159.341 189.091 157 186.213 157C183.334 157 181 159.341 181 162.228C181 165.116 183.334 167.457 186.213 167.457C189.091 167.457 191.425 165.116 191.425 162.228Z" fill="#FC7318"/>
</g>
<mask id="mask47" mask-type="alpha" maskUnits="userSpaceOnUse" x="181" y="131" width="11" height="11">
<path d="M191.425 136.228C191.425 133.341 189.091 131 186.213 131C183.334 131 181 133.341 181 136.228C181 139.116 183.334 141.457 186.213 141.457C189.091 141.457 191.425 139.116 191.425 136.228Z" fill="#FC7318"/>
</mask>
<g mask="url(#mask47)">
<path d="M191.425 136.228C191.425 133.341 189.091 131 186.213 131C183.334 131 181 133.341 181 136.228C181 139.116 183.334 141.457 186.213 141.457C189.091 141.457 191.425 139.116 191.425 136.228Z" fill="#FC7318"/>
</g>
<mask id="mask48" mask-type="alpha" maskUnits="userSpaceOnUse" x="181" y="105" width="11" height="11">
<path d="M191.425 110.228C191.425 107.341 189.091 105 186.213 105C183.334 105 181 107.341 181 110.228C181 113.116 183.334 115.457 186.213 115.457C189.091 115.457 191.425 113.116 191.425 110.228Z" fill="#FC7318"/>
</mask>
<g mask="url(#mask48)">
<path d="M191.425 110.228C191.425 107.341 189.091 105 186.213 105C183.334 105 181 107.341 181 110.228C181 113.116 183.334 115.457 186.213 115.457C189.091 115.457 191.425 113.116 191.425 110.228Z" fill="#FC7318"/>
</g>
</g>
</svg>
