<svg width="68" height="50" viewBox="0 0 68 50" fill="none" xmlns="http://www.w3.org/2000/svg">
<path d="M9.435 49.8499H58.446C64.669 49.8499 67.881 46.6089 67.881 40.4719V9.4989C67.881 3.3619 64.669 0.149902 58.446 0.149902H9.435C3.24 0.150902 0 3.3629 0 9.4989V40.4719C0 46.6379 3.24 49.8499 9.435 49.8499ZM9.806 5.8859H32.062V14.8049C30.284 11.3929 27.244 9.2989 23.831 9.2989C22.8963 9.27757 21.967 9.4464 21.0996 9.79516C20.2321 10.1439 19.4446 10.6653 18.7848 11.3277C18.125 11.9901 17.6068 12.7797 17.2614 13.6485C16.9161 14.5174 16.751 15.4473 16.776 16.3819C16.776 19.7949 19.042 22.6049 22.311 24.2109H5.706V10.0159C5.706 7.2629 7.169 5.8859 9.806 5.8859ZM45.596 24.2109C48.867 22.6059 51.106 19.7989 51.106 16.3829C51.1312 15.4481 50.9661 14.5178 50.6207 13.6488C50.2753 12.7797 49.7569 11.9899 49.0968 11.3273C48.4368 10.6648 47.649 10.1433 46.7813 9.79465C45.9135 9.44595 44.9839 9.27728 44.049 9.2989C40.636 9.2989 37.625 11.3919 35.818 14.8049V5.8859H58.073C60.711 5.8859 62.173 7.2629 62.173 10.0159V24.2159L45.596 24.2109ZM30.796 23.8669C25.548 23.8669 21.074 20.2249 21.074 16.8409C21.0343 16.4161 21.0875 15.9877 21.2297 15.5854C21.3719 15.1832 21.5998 14.8166 21.8977 14.5111C22.1956 14.2056 22.5563 13.9685 22.9549 13.8162C23.3534 13.6639 23.7803 13.6 24.206 13.6289C28.135 13.6289 31.576 18.0739 31.576 23.1209V23.8669H30.796ZM37.076 23.8669H36.306V23.1209C36.306 18.0739 39.776 13.6289 43.676 13.6289C44.1026 13.6003 44.5304 13.6642 44.9301 13.8163C45.3297 13.9684 45.6917 14.2051 45.9914 14.5101C46.291 14.8152 46.5212 15.1814 46.6661 15.5837C46.811 15.986 46.8673 16.4148 46.831 16.8409C46.831 20.2249 42.357 23.8669 37.08 23.8669H37.076ZM58.073 44.1139H35.819V29.9759H36.019C37.912 35.6249 44.278 40.3289 48.519 41.0169C48.8716 41.0871 49.2356 41.0772 49.5839 40.9879C49.9321 40.8985 50.2559 40.7321 50.5312 40.5008C50.8066 40.2696 51.0264 39.9794 51.1745 39.6518C51.3227 39.3241 51.3953 38.9674 51.387 38.6079C51.4045 37.9352 51.1549 37.283 50.6928 36.7939C50.2306 36.3048 49.5936 36.0186 48.921 35.9979C45.221 35.5109 40.232 30.9219 38.621 27.6809H62.173V39.9809C62.173 42.7369 60.711 44.1139 58.073 44.1139ZM9.808 44.1139C7.17 44.1139 5.708 42.7369 5.708 39.9839V27.6839H29.28C27.674 30.9249 22.655 35.5129 18.956 36.0009C18.6243 36.0115 18.298 36.0875 17.9958 36.2245C17.6935 36.3615 17.4213 36.5569 17.1948 36.7994C16.9683 37.0419 16.7919 37.3268 16.6757 37.6377C16.5596 37.9485 16.506 38.2793 16.518 38.6109C16.508 38.9682 16.5785 39.3232 16.7241 39.6496C16.8697 39.976 17.0868 40.2655 17.3593 40.4968C17.6319 40.728 17.9529 40.8951 18.2986 40.9857C18.6444 41.0762 19.0061 41.0879 19.357 41.0199C23.601 40.3319 29.997 35.6279 31.857 29.9789H32.057V44.1139H9.808Z" fill="#00A679"/>
</svg>
