<svg width="934" height="519" viewBox="0 0 934 519" fill="none" xmlns="http://www.w3.org/2000/svg">
<path d="M165.151 217.238L165.252 215.037C166.588 215.098 167.957 215.124 169.319 215.114L169.336 217.317C169.134 217.319 168.932 217.319 168.73 217.319C167.53 217.317 166.328 217.292 165.151 217.238ZM173.387 214.977C174.723 214.899 176.089 214.785 177.446 214.638L177.683 216.829C176.289 216.979 174.888 217.096 173.516 217.176L173.387 214.977ZM156.819 216.378L157.172 214.204C158.491 214.419 159.848 214.598 161.199 214.736L160.973 216.928C159.58 216.785 158.182 216.6 156.819 216.378ZM181.489 214.107C182.815 213.901 184.167 213.661 185.506 213.393L185.938 215.553C184.567 215.828 183.183 216.074 181.827 216.284L181.489 214.107ZM148.64 214.521L149.265 212.409C150.542 212.786 151.864 213.13 153.19 213.431L152.702 215.58C151.331 215.268 149.964 214.913 148.639 214.521H148.64ZM189.491 212.506C190.797 212.187 192.125 211.833 193.438 211.457L194.046 213.575C192.705 213.96 191.349 214.321 190.014 214.646L189.491 212.506ZM140.764 211.606L141.671 209.598C142.889 210.146 144.15 210.664 145.418 211.132L144.654 213.199C143.337 212.712 142.028 212.176 140.764 211.606ZM197.343 210.254C198.62 209.835 199.92 209.382 201.203 208.908L201.966 210.976C200.658 211.458 199.334 211.92 198.03 212.348L197.343 210.254ZM133.37 207.606L134.558 205.752C135.684 206.473 136.856 207.163 138.043 207.804L136.995 209.741C135.762 209.076 134.542 208.356 133.37 207.606H133.37ZM205.016 207.426C206.263 206.916 207.529 206.375 208.778 205.817L209.677 207.827C208.407 208.396 207.118 208.947 205.848 209.466L205.016 207.426ZM212.488 204.086C213.7 203.498 214.931 202.878 216.146 202.243L217.166 204.196C215.933 204.841 214.682 205.471 213.45 206.068L212.488 204.086ZM126.65 202.541L128.108 200.889C129.111 201.775 130.164 202.634 131.239 203.444L129.914 205.204C128.793 204.359 127.696 203.463 126.65 202.541ZM219.749 200.294C220.927 199.635 222.122 198.945 223.298 198.244L224.426 200.137C223.231 200.849 222.021 201.548 220.825 202.217L219.749 200.294ZM120.802 196.495L122.502 195.094C123.353 196.127 124.258 197.139 125.191 198.102L123.607 199.634C122.633 198.63 121.691 197.572 120.802 196.495ZM398.668 196.007L400.583 194.918C401.283 196.151 401.943 197.401 402.541 198.636L400.559 199.597C399.982 198.404 399.345 197.197 398.67 196.007H398.668ZM226.793 196.1C227.933 195.381 229.09 194.63 230.233 193.868L231.455 195.701C230.297 196.474 229.124 197.235 227.97 197.963L226.793 196.1ZM233.618 191.551C234.725 190.775 235.844 189.97 236.95 189.156L238.256 190.931C237.138 191.755 236.003 192.57 234.884 193.355L233.618 191.551ZM115.983 189.587L117.884 188.474C118.562 189.634 119.295 190.778 120.061 191.876L118.255 193.137C117.455 191.993 116.69 190.798 115.983 189.587ZM394.236 189.193L396.012 187.888C396.844 189.021 397.647 190.181 398.399 191.334L396.553 192.537C395.823 191.419 395.044 190.294 394.236 189.194V189.193ZM240.229 186.687L240.556 186.435C241.547 185.668 242.535 184.914 243.522 184.175L244.841 185.938C243.863 186.67 242.882 187.417 241.898 188.178L241.568 188.432L240.229 186.687ZM389.075 182.896L390.705 181.412C391.644 182.445 392.565 183.51 393.442 184.58L391.738 185.977C390.885 184.939 389.989 183.9 389.075 182.897V182.896ZM112.319 182.005L114.372 181.205C114.859 182.457 115.402 183.703 115.984 184.909L114 185.867C113.392 184.61 112.827 183.311 112.319 182.005ZM246.87 181.72C247.995 180.911 249.136 180.107 250.262 179.33L251.513 181.143C250.401 181.912 249.269 182.709 248.157 183.508L246.87 181.72ZM383.302 177.146L384.779 175.511C385.809 176.442 386.832 177.411 387.814 178.389L386.26 179.95C385.302 178.997 384.307 178.055 383.3 177.148L383.302 177.146ZM253.703 177.005C254.865 176.239 256.039 175.481 257.191 174.756L258.366 176.62C257.226 177.338 256.065 178.086 254.916 178.845L253.703 177.005ZM109.875 173.953L112.025 173.474C112.319 174.792 112.665 176.108 113.052 177.384L110.944 178.024C110.54 176.696 110.181 175.327 109.875 173.954V173.953ZM376.998 171.98L378.312 170.212C379.427 171.04 380.537 171.905 381.608 172.784L380.212 174.487C379.167 173.633 378.086 172.79 376.998 171.981L376.998 171.98ZM260.73 172.582C261.917 171.871 263.124 171.167 264.318 170.489L265.406 172.405C264.227 173.074 263.035 173.769 261.862 174.472L260.73 172.582ZM267.956 168.482C269.175 167.828 270.416 167.185 271.644 166.566L272.633 168.534C271.421 169.144 270.198 169.78 268.994 170.424L267.956 168.482ZM108.907 168.296C108.801 167.415 108.713 166.521 108.646 165.637L110.843 165.473C110.908 166.324 110.992 167.185 111.094 168.033C111.153 168.524 111.219 169.012 111.291 169.497L109.111 169.819C109.037 169.314 108.969 168.806 108.908 168.296L108.907 168.296ZM370.231 167.438L371.37 165.552C372.559 166.27 373.745 167.027 374.897 167.8L373.668 169.629C372.546 168.877 371.39 168.139 370.231 167.439L370.231 167.438ZM275.385 164.748C276.642 164.157 277.917 163.58 279.173 163.032L280.054 165.051C278.818 165.59 277.561 166.159 276.322 166.74L275.385 164.748ZM363.065 163.558L364.022 161.573C365.272 162.175 366.525 162.815 367.743 163.476L366.694 165.413C365.505 164.77 364.284 164.145 363.065 163.558H363.065ZM283.008 161.425C284.298 160.907 285.604 160.404 286.893 159.932L287.652 162.001C286.385 162.466 285.097 162.959 283.829 163.469L283.008 161.425ZM355.562 160.377L356.325 158.31C357.625 158.79 358.932 159.308 360.21 159.85L359.35 161.878C358.105 161.349 356.83 160.845 355.563 160.377L355.562 160.377ZM108.58 157.239L110.78 157.367C110.701 158.722 110.667 160.086 110.676 161.422L108.473 161.439C108.464 160.055 108.5 158.642 108.581 157.241L108.58 157.239ZM290.825 158.561C292.148 158.124 293.486 157.706 294.801 157.319L295.422 159.433C294.13 159.814 292.817 160.224 291.517 160.653L290.825 158.561ZM347.794 157.922L348.357 155.791C349.699 156.146 351.05 156.538 352.372 156.956L351.707 159.057C350.419 158.65 349.103 158.268 347.794 157.922ZM298.817 156.211C300.161 155.865 301.525 155.541 302.872 155.247L303.343 157.398C302.022 157.687 300.683 158.006 299.366 158.346L298.817 156.211ZM339.827 156.208L340.189 154.035C341.56 154.263 342.942 154.526 344.293 154.818L343.831 156.972C342.512 156.689 341.166 156.433 339.829 156.211L339.827 156.208ZM306.961 154.432C308.332 154.185 309.718 153.964 311.081 153.773L311.386 155.957C310.053 156.144 308.695 156.361 307.352 156.602L306.961 154.432ZM331.735 155.241L331.896 153.043C333.279 153.145 334.679 153.279 336.054 153.444L335.793 155.632C334.45 155.473 333.085 155.342 331.735 155.243V155.241ZM315.222 153.279C316.604 153.142 318.003 153.031 319.381 152.953L319.508 155.153C318.16 155.23 316.792 155.338 315.44 155.471L315.222 153.279ZM323.585 155.005L323.552 152.802C324.946 152.781 326.35 152.791 327.726 152.83L327.663 155.033C326.318 154.996 324.946 154.987 323.585 155.007V155.005ZM108.956 153.056C109.121 151.703 109.327 150.328 109.574 148.967L111.753 149.297L111.737 149.383C111.502 150.677 111.3 152.009 111.142 153.319L108.956 153.056ZM110.42 144.819C110.726 143.464 111.065 142.099 111.426 140.768L113.553 141.345C113.199 142.647 112.868 143.979 112.569 145.304L110.42 144.819ZM112.61 136.764C113.033 135.44 113.491 134.112 113.97 132.816L116.036 133.58C115.569 134.845 115.123 136.142 114.709 137.435L112.61 136.764ZM183.663 134.267L183.766 132.067C185.09 132.126 186.416 132.091 187.734 131.964L187.941 134.157C186.952 134.251 185.968 134.298 185.005 134.298C184.554 134.298 184.107 134.288 183.663 134.267ZM175.261 132.385L176.146 130.366C177.341 130.886 178.585 131.286 179.86 131.561L179.39 133.714C177.974 133.408 176.591 132.963 175.263 132.385L175.261 132.385ZM191.678 131.34C192.983 131.051 194.272 130.692 195.539 130.264L196.244 132.353C194.901 132.806 193.535 133.186 192.151 133.492L191.678 131.34ZM199.277 128.791C200.488 128.242 201.693 127.626 202.86 126.959L203.955 128.871C202.728 129.571 201.461 130.221 200.185 130.797L199.277 128.791ZM168.302 127.202L169.988 125.784C170.819 126.772 171.762 127.661 172.798 128.431L171.485 130.2C170.311 129.328 169.243 128.322 168.302 127.202ZM115.505 128.936C116.045 127.656 116.622 126.374 117.217 125.125L119.206 126.073C118.624 127.291 118.062 128.542 117.535 129.791L115.505 128.936ZM206.257 124.799C207.355 124.027 208.425 123.198 209.437 122.334L210.867 124.01C209.803 124.918 208.678 125.79 207.524 126.602L206.257 124.799ZM164.242 119.587L166.346 118.932C166.731 120.183 167.229 121.397 167.833 122.558L165.882 123.583C165.215 122.303 164.666 120.965 164.242 119.586L164.242 119.587ZM119.102 121.4C119.756 120.177 120.448 118.953 121.158 117.762L123.051 118.891C122.358 120.053 121.684 121.247 121.045 122.439L119.102 121.4ZM212.369 119.58C213.304 118.612 214.193 117.594 215.012 116.556L216.743 117.921C215.877 119.017 214.94 120.09 213.953 121.111L212.369 119.58ZM123.38 114.223C124.142 113.069 124.944 111.915 125.763 110.791L127.544 112.089C126.744 113.185 125.962 114.312 125.219 115.437L123.38 114.223ZM163.123 114.242C163.005 113.258 162.923 112.227 162.883 111.178L165.084 111.093C165.123 112.082 165.199 113.053 165.311 113.977C165.355 114.348 165.406 114.712 165.462 115.071L163.285 115.41C163.225 115.027 163.171 114.637 163.122 114.241L163.123 114.242ZM217.327 113.283C218.039 112.154 218.686 110.986 219.267 109.784L221.251 110.742C220.634 112.018 219.946 113.258 219.191 114.457L217.327 113.283ZM128.302 107.471C129.167 106.391 130.071 105.314 130.988 104.272L132.642 105.728C131.747 106.745 130.865 107.795 130.019 108.849L128.302 107.471ZM162.896 106.964C162.951 105.556 163.054 104.147 163.204 102.776L165.394 103.015C165.25 104.334 165.15 105.694 165.097 107.05L162.896 106.964ZM220.789 106.091C221.222 104.833 221.579 103.55 221.857 102.248L224.012 102.706C223.715 104.096 223.334 105.466 222.871 106.809L220.789 106.091ZM133.818 101.199C134.781 100.199 135.779 99.2096 136.785 98.2565L138.302 99.8553C137.321 100.785 136.346 101.751 135.407 102.728L133.818 101.199ZM163.815 98.6208C164.071 97.2396 164.381 95.8601 164.739 94.5197L166.868 95.0879C166.525 96.373 166.227 97.6965 165.982 99.0213L163.815 98.6208ZM222.447 98.3039C222.56 96.9783 222.593 95.647 222.546 94.3173L224.747 94.2378C224.798 95.6572 224.763 97.0783 224.642 98.4934L222.447 98.3039ZM139.877 95.4488C140.922 94.5423 142.003 93.6449 143.091 92.7808L144.46 94.5069C143.397 95.3503 142.341 96.2272 141.321 97.1123L139.877 95.4488ZM146.419 90.257C147.545 89.4424 148.7 88.643 149.854 87.8807L151.068 89.7193C149.941 90.4639 148.811 91.2439 147.712 92.0412L146.419 90.257ZM165.986 90.501C166.455 89.1824 166.983 87.8667 167.555 86.596L169.564 87.5025C169.016 88.7188 168.511 89.9748 168.062 91.2406L165.986 90.501ZM220.756 86.8098L222.727 85.8275C223.376 87.1367 223.871 88.517 224.201 89.9406L222.056 90.442C221.764 89.1853 221.327 87.9666 220.754 86.8107L220.756 86.8098ZM153.389 85.6561C154.579 84.9429 155.8 84.2473 157.018 83.5864L158.068 85.523C156.877 86.1679 155.685 86.8477 154.524 87.5441L153.389 85.6561ZM169.438 82.8315C170.033 81.7532 170.677 80.679 171.356 79.6324C170.631 79.8866 169.904 80.1507 169.187 80.4235L168.404 78.3633C169.707 77.8688 171.032 77.4003 172.346 76.9705L173.031 79.0641C172.663 79.1847 172.294 79.3084 171.925 79.435L173.455 80.4466C172.713 81.5698 172.009 82.731 171.365 83.8963L169.438 82.8315ZM160.735 81.6778C161.983 81.0704 163.261 80.4828 164.532 79.934L165.406 81.9563C164.165 82.492 162.917 83.0668 161.698 83.6593L160.735 81.6778ZM215.825 80.9192L217.167 79.1725C218.323 80.0567 219.381 81.0625 220.322 82.1726L218.637 83.5926C217.798 82.6038 216.856 81.7079 215.825 80.9204V80.9192ZM208.854 77.2849L209.569 75.2008C210.922 75.6618 212.24 76.2198 213.513 76.8704L212.505 78.8297C211.327 78.228 210.107 77.7122 208.854 77.2862V77.2849ZM176.498 76.3001C176.265 76.5875 176.036 76.8759 175.81 77.1654L174.071 75.8135C174.919 74.7236 175.827 73.64 176.772 72.5921L178.409 74.0677C177.967 74.5583 177.534 75.0558 177.109 75.5601C178.212 75.2684 179.321 74.9989 180.414 74.7578L180.89 76.9095C179.58 77.198 178.25 77.5276 176.934 77.8882L176.498 76.3001ZM201.035 75.572L201.288 73.3837C202.726 73.5485 204.131 73.7788 205.467 74.0673L205.002 76.2219C203.737 75.9499 202.403 75.7315 201.035 75.5729L201.035 75.572ZM184.528 73.9659C185.927 73.7368 187.323 73.5477 188.685 73.4047L188.914 75.5959C187.595 75.7348 186.241 75.9169 184.886 76.1394L184.528 73.9659ZM192.873 73.1006C194.298 73.0433 195.714 73.0367 197.08 73.0804L197.01 75.2828C195.696 75.2416 194.331 75.2474 192.961 75.3026L192.873 73.1006ZM179.693 69.5743C180.682 68.6192 181.726 67.6723 182.798 66.7608L184.225 68.4387C183.189 69.32 182.179 70.2356 181.224 71.1582L179.693 69.5743ZM186.066 64.1431C187.158 63.319 188.305 62.5023 189.473 61.7169L190.702 63.5452C189.566 64.3087 188.453 65.1011 187.392 65.9021L186.066 64.1431ZM192.996 59.475C194.167 58.7691 195.39 58.0711 196.628 57.3999L197.678 59.3365C196.468 59.9909 195.276 60.672 194.134 61.3601L192.996 59.475ZM200.345 55.4901C201.572 54.891 202.847 54.3001 204.133 53.7339L205.022 55.7497C203.761 56.3047 202.513 56.8832 201.311 57.4696L200.345 55.4901ZM207.984 52.1228C209.254 51.6176 210.567 51.1215 211.887 50.6485L212.631 52.7223C211.335 53.188 210.045 53.6746 208.799 54.1703L207.984 52.1228ZM215.835 49.3044C217.143 48.8821 218.484 48.4717 219.821 48.0843L220.435 50.2002C219.119 50.5822 217.798 50.986 216.512 51.4013L215.835 49.3044ZM223.842 46.9821C225.174 46.6376 226.537 46.3055 227.893 45.9952L228.385 48.1433C227.048 48.449 225.706 48.7757 224.394 49.1153L223.842 46.9821ZM231.97 45.1221C233.341 44.8481 234.722 44.5926 236.073 44.3623L236.443 46.5338C235.113 46.7608 233.753 47.0126 232.403 47.2825L231.97 45.1221ZM240.2 43.7236C242.817 43.3606 244.328 43.2386 244.374 43.2354L244.55 45.4316C244.54 45.4316 243.039 45.5552 240.503 45.9058L240.2 43.7236Z" fill="#FEB423"/>
<path d="M255.264 288.095H167.613V513.176H255.264V288.095Z" fill="#00DA9F"/>
<path d="M391.62 214.528H303.969V513.176H391.62V214.528Z" fill="#00DA9F"/>
<path d="M523.923 135.126H427.949V513.172H523.923V135.126Z" fill="#00DA9F"/>
<path d="M645.771 82.792H558.12V513.176H645.771V82.792Z" fill="#00DA9F"/>
<path d="M523.925 261.113L708.142 171.935L625.985 347.058L612.094 267.604L523.925 261.113Z" fill="#F77D48"/>
<path d="M481.543 201.412C479.929 194.779 480.318 187.815 482.661 181.403C485.005 174.991 489.197 169.417 494.708 165.387C500.218 161.357 506.801 159.052 513.622 158.763C520.443 158.474 527.196 160.215 533.028 163.764C538.86 167.313 543.508 172.512 546.386 178.703C549.263 184.895 550.239 191.8 549.192 198.546C548.145 205.293 545.12 211.577 540.501 216.604C535.882 221.632 529.876 225.176 523.242 226.79C514.347 228.954 504.957 227.496 497.137 222.737C489.317 217.978 483.708 210.307 481.543 201.412Z" fill="#FFB93E"/>
<path d="M515.122 225.109C512.278 225.11 509.448 224.72 506.711 223.95C503.94 223.169 501.288 222.012 498.829 220.513C493.516 217.28 489.281 212.543 486.659 206.902C484.038 201.261 483.148 194.97 484.102 188.824C485.056 182.677 487.811 176.952 492.019 172.371C496.227 167.79 501.699 164.56 507.743 163.089C510.196 162.491 512.712 162.187 515.237 162.185C518.081 162.185 520.911 162.575 523.649 163.344C526.42 164.126 529.071 165.282 531.53 166.781C536.843 170.015 541.079 174.752 543.7 180.393C546.321 186.034 547.211 192.326 546.257 198.472C545.302 204.619 542.547 210.345 538.338 214.925C534.129 219.506 528.657 222.735 522.613 224.205C520.161 224.803 517.646 225.107 515.122 225.109ZM515.177 164.07C507.741 164.059 500.573 166.843 495.094 171.87C489.616 176.897 486.226 183.8 485.599 191.209C484.972 198.618 487.153 205.992 491.709 211.868C496.265 217.745 502.863 221.694 510.195 222.932C517.527 224.171 525.056 222.609 531.29 218.555C537.523 214.501 542.005 208.253 543.847 201.049C545.688 193.845 544.755 186.212 541.232 179.664C537.708 173.116 531.852 168.132 524.826 165.7C521.722 164.625 518.461 164.074 515.177 164.07Z" fill="#FFA412"/>
<path d="M521.544 201.495C521.481 200.884 521.311 200.289 521.04 199.738C520.773 199.229 520.394 198.787 519.931 198.446C519.373 198.041 518.759 197.718 518.109 197.488C517.247 197.178 516.364 196.932 515.467 196.752C513.823 196.397 512.199 195.958 510.6 195.437C509.24 195.005 507.946 194.389 506.754 193.606C505.683 192.895 504.773 191.967 504.083 190.883C502.717 188.511 502.343 185.695 503.041 183.048C503.385 181.87 503.974 180.777 504.768 179.841C505.615 178.856 506.63 178.03 507.766 177.401C509.053 176.691 510.44 176.179 511.88 175.883L511.252 170.701L515.423 170.196L516.06 175.45C517.492 175.449 518.914 175.684 520.27 176.144C521.522 176.564 522.677 177.23 523.667 178.104C524.657 178.978 525.461 180.042 526.031 181.233C526.68 182.581 527.092 184.031 527.252 185.518L519.718 186.431C519.483 184.494 518.878 183.097 517.901 182.241C517.408 181.815 516.828 181.502 516.2 181.326C515.573 181.149 514.915 181.112 514.272 181.218C513.582 181.286 512.911 181.48 512.291 181.791C511.789 182.047 511.35 182.41 511.005 182.856C510.685 183.282 510.465 183.775 510.36 184.298C510.248 184.858 510.229 185.434 510.302 186.001C510.361 186.553 510.516 187.091 510.759 187.591C511.013 188.08 511.376 188.503 511.822 188.827C512.384 189.233 513.002 189.555 513.656 189.784C514.559 190.107 515.479 190.377 516.413 190.593C518.175 191.018 519.787 191.477 521.249 191.972C522.606 192.415 523.896 193.04 525.085 193.829C526.215 194.57 527.162 195.559 527.853 196.721C528.543 197.883 528.96 199.187 529.071 200.534C529.252 201.844 529.157 203.177 528.792 204.448C528.444 205.621 527.849 206.707 527.049 207.632C526.194 208.606 525.166 209.414 524.018 210.015C522.713 210.701 521.318 211.201 519.873 211.498L520.457 216.319L516.312 216.821L515.731 212.027C514.286 212.058 512.842 211.911 511.433 211.59C510.06 211.283 508.758 210.72 507.594 209.93C506.404 209.105 505.407 208.03 504.673 206.782C503.82 205.285 503.294 203.623 503.131 201.907L510.664 200.993C510.753 201.976 511.035 202.931 511.494 203.804C511.858 204.477 512.376 205.054 513.007 205.488C513.594 205.88 514.263 206.135 514.962 206.234C515.669 206.337 516.386 206.345 517.094 206.258C517.826 206.182 518.539 205.988 519.207 205.681C519.756 205.429 520.247 205.068 520.652 204.621C521.019 204.21 521.286 203.719 521.431 203.188C521.579 202.636 521.618 202.061 521.544 201.495Z" fill="#FFA412"/>
<path d="M663.143 103.569C662.882 96.9252 664.597 90.3532 668.071 84.6841C671.545 79.015 676.622 74.5033 682.66 71.7196C688.698 68.9359 695.426 68.0052 701.993 69.0452C708.56 70.0851 714.671 73.0491 719.553 77.5622C724.436 82.0753 727.87 87.9349 729.423 94.4C730.975 100.865 730.575 107.645 728.274 113.883C725.973 120.121 721.874 125.537 716.495 129.445C711.116 133.353 704.699 135.579 698.056 135.84C693.644 136.014 689.242 135.316 685.1 133.789C680.958 132.261 677.158 129.932 673.916 126.935C670.674 123.939 668.054 120.333 666.205 116.323C664.357 112.314 663.317 107.98 663.143 103.569Z" fill="#FFB93E"/>
<path d="M696.72 133.275C688.703 133.268 681.008 130.118 675.287 124.501C669.567 118.884 666.276 111.248 666.123 103.232C665.969 95.2165 668.965 87.46 674.466 81.6281C679.968 75.7962 687.536 72.3538 695.547 72.0399C695.957 72.0238 696.371 72.0156 696.781 72.0156C704.798 72.0225 712.493 75.1726 718.213 80.7895C723.934 86.4065 727.224 94.0425 727.378 102.058C727.531 110.074 724.536 117.831 719.035 123.662C713.533 129.494 705.964 132.937 697.953 133.25C697.544 133.267 697.129 133.275 696.72 133.275ZM696.765 73.8422C696.385 73.8422 695.999 73.8496 695.619 73.8649C691.774 74.0092 687.998 74.9293 684.517 76.57C677.732 79.7711 672.455 85.4806 669.797 92.4956C668.128 96.9119 667.573 101.672 668.182 106.354C668.791 111.036 670.546 115.495 673.29 119.337C676.455 123.773 680.808 127.227 685.847 129.301C689.301 130.723 693.002 131.452 696.737 131.448C697.118 131.448 697.502 131.44 697.882 131.425C704.448 131.156 710.724 128.651 715.671 124.325C720.617 119.998 723.936 114.112 725.077 107.64C726.218 101.169 725.112 94.502 721.944 88.7451C718.776 82.9883 713.735 78.4874 707.657 75.989C704.202 74.5668 700.501 73.8374 696.765 73.8422Z" fill="#FFA412"/>
<path d="M701.313 111.362C701.371 110.767 701.323 110.166 701.171 109.588C701.014 109.051 700.737 108.556 700.362 108.141C699.907 107.647 699.383 107.22 698.807 106.875C698.044 106.414 697.248 106.009 696.427 105.663C694.926 105.006 693.46 104.274 692.034 103.469C690.82 102.794 689.703 101.956 688.716 100.978C687.831 100.092 687.142 99.0314 686.692 97.8634C685.845 95.3351 686.031 92.5749 687.208 90.1828C687.764 89.1245 688.536 88.195 689.475 87.4546C690.472 86.6777 691.601 86.085 692.807 85.7047C694.172 85.2739 695.595 85.0527 697.027 85.0487L697.428 79.9805L701.507 80.3027L701.101 85.4414C702.468 85.7168 703.781 86.2151 704.986 86.9165C706.1 87.5583 707.074 88.4174 707.851 89.4427C708.627 90.468 709.189 91.6387 709.505 92.8854C709.863 94.2978 709.977 95.761 709.842 97.2119L702.474 96.6297C702.623 94.7362 702.315 93.2862 701.548 92.2797C701.16 91.778 700.666 91.3678 700.101 91.0782C699.537 90.7886 698.916 90.6267 698.282 90.6039C697.61 90.5358 696.932 90.5917 696.28 90.7687C695.752 90.9161 695.263 91.1784 694.847 91.5368C694.459 91.8822 694.154 92.3102 693.953 92.7894C693.738 93.3029 693.608 93.8481 693.569 94.4034C693.519 94.9425 693.563 95.4862 693.698 96.0104C693.847 96.5256 694.112 96.9994 694.475 97.3944C694.933 97.8904 695.46 98.3173 696.041 98.6619C696.839 99.1446 697.666 99.58 698.516 99.9656C700.116 100.711 701.566 101.461 702.866 102.215C704.075 102.901 705.186 103.746 706.169 104.729C707.106 105.654 707.819 106.781 708.254 108.023C708.69 109.266 708.836 110.591 708.683 111.899C708.602 113.184 708.254 114.439 707.661 115.582C707.102 116.635 706.325 117.556 705.382 118.286C704.378 119.05 703.241 119.623 702.029 119.975C700.651 120.38 699.222 120.588 697.785 120.593L697.414 125.306L693.361 124.986L693.731 120.297C692.346 120.048 690.996 119.629 689.713 119.051C688.462 118.493 687.327 117.704 686.369 116.725C685.392 115.708 684.648 114.491 684.188 113.157C683.662 111.563 683.48 109.875 683.656 108.206L691.023 108.788C690.919 109.743 691.004 110.709 691.274 111.631C691.492 112.344 691.875 112.995 692.393 113.531C692.878 114.019 693.467 114.391 694.115 114.62C694.77 114.854 695.453 115.001 696.146 115.055C696.859 115.124 697.577 115.076 698.274 114.913C698.846 114.778 699.385 114.529 699.859 114.18C700.288 113.858 700.637 113.441 700.878 112.962C701.127 112.462 701.275 111.919 701.313 111.362Z" fill="#FFA412"/>
<path d="M615.708 163.201C615.627 158.616 616.907 154.11 619.387 150.252C621.867 146.394 625.436 143.359 629.641 141.529C633.846 139.7 638.5 139.158 643.013 139.973C647.526 140.788 651.696 142.923 654.995 146.108C658.295 149.293 660.576 153.385 661.55 157.867C662.524 162.348 662.148 167.018 660.468 171.285C658.788 175.552 655.88 179.226 652.113 181.841C648.345 184.456 643.887 185.895 639.302 185.976C633.153 186.084 627.213 183.746 622.788 179.475C618.363 175.204 615.816 169.35 615.708 163.201Z" fill="#FFB93E"/>
<path d="M638.885 184.192C633.315 184.188 627.972 181.986 624.018 178.063C620.064 174.14 617.819 168.815 617.771 163.245C617.724 157.676 619.877 152.313 623.764 148.323C627.65 144.334 632.955 142.04 638.524 141.942C638.651 141.94 638.781 141.938 638.909 141.938C644.479 141.941 649.822 144.144 653.776 148.066C657.731 151.989 659.976 157.314 660.024 162.884C660.072 168.454 657.918 173.817 654.031 177.807C650.145 181.796 644.84 184.09 639.271 184.188C639.14 184.191 639.012 184.192 638.885 184.192ZM638.901 143.199C638.784 143.199 638.664 143.199 638.545 143.202C633.306 143.291 628.314 145.447 624.656 149.2C620.999 152.952 618.973 157.998 619.018 163.238C619.064 168.478 621.178 173.488 624.9 177.176C628.622 180.864 633.651 182.933 638.891 182.931C639.009 182.931 639.129 182.931 639.247 182.928C643.806 182.841 648.197 181.189 651.682 178.249C655.168 175.309 657.536 171.26 658.39 166.781C659.244 162.302 658.531 157.665 656.372 153.649C654.212 149.633 650.738 146.482 646.53 144.724C644.114 143.713 641.521 143.195 638.901 143.199V143.199Z" fill="#FFA412"/>
<path d="M641.913 169.144C641.962 168.735 641.937 168.32 641.841 167.919C641.741 167.546 641.558 167.201 641.305 166.909C640.999 166.561 640.645 166.259 640.252 166.013C639.733 165.684 639.191 165.392 638.63 165.141C637.605 164.666 636.604 164.14 635.633 163.563C634.806 163.08 634.048 162.485 633.382 161.796C632.785 161.172 632.325 160.43 632.032 159.618C631.486 157.862 631.656 155.962 632.503 154.33C632.902 153.608 633.449 152.978 634.107 152.482C634.807 151.961 635.594 151.569 636.432 151.324C637.38 151.048 638.364 150.917 639.352 150.936L639.704 147.446L642.511 147.729L642.155 151.267C643.094 151.477 643.992 151.84 644.813 152.341C645.572 152.801 646.231 153.408 646.75 154.126C647.27 154.845 647.641 155.661 647.84 156.525C648.066 157.505 648.123 158.516 648.008 159.515L642.935 159.004C643.067 157.7 642.876 156.695 642.361 155.99C642.101 155.638 641.767 155.348 641.382 155.14C640.997 154.932 640.571 154.811 640.134 154.786C639.672 154.728 639.204 154.756 638.752 154.868C638.385 154.962 638.044 155.135 637.752 155.376C637.479 155.608 637.262 155.899 637.116 156.227C636.961 156.577 636.863 156.951 636.828 157.334C636.785 157.705 636.807 158.08 636.893 158.443C636.988 158.801 637.164 159.132 637.408 159.41C637.717 159.758 638.074 160.061 638.47 160.307C639.014 160.652 639.578 160.964 640.159 161.243C641.251 161.781 642.24 162.32 643.126 162.859C643.949 163.35 644.703 163.949 645.366 164.641C645.998 165.293 646.473 166.081 646.754 166.944C647.036 167.807 647.117 168.723 646.992 169.623C646.916 170.509 646.655 171.369 646.228 172.149C645.826 172.866 645.277 173.49 644.616 173.979C643.912 174.491 643.12 174.869 642.279 175.094C641.322 175.352 640.334 175.474 639.343 175.457L639.016 178.701L636.226 178.42L636.552 175.192C635.6 175 634.675 174.691 633.799 174.272C632.944 173.869 632.173 173.308 631.527 172.619C630.868 171.903 630.373 171.052 630.076 170.126C629.737 169.019 629.637 167.854 629.782 166.706L634.855 167.216C634.769 167.873 634.813 168.541 634.985 169.181C635.125 169.676 635.38 170.13 635.729 170.508C636.056 170.851 636.457 171.117 636.901 171.284C637.349 171.456 637.817 171.566 638.294 171.614C638.785 171.673 639.281 171.65 639.764 171.548C640.161 171.463 640.536 171.3 640.868 171.066C641.169 170.851 641.415 170.569 641.589 170.242C641.768 169.901 641.878 169.528 641.913 169.144Z" fill="#FFA412"/>
<path d="M518.062 91.6288C514.545 81.0053 514.256 69.5772 517.234 58.7897C520.211 48.0022 526.32 38.3398 534.789 31.0244C543.257 23.709 553.705 19.0692 564.811 17.6916C575.917 16.314 587.181 18.2607 597.181 23.2853C607.18 28.3099 615.465 36.1868 620.988 45.92C626.51 55.6531 629.023 66.8054 628.207 77.9664C627.392 89.1275 623.285 99.796 616.406 108.623C609.527 117.45 600.185 124.039 589.561 127.557C575.316 132.273 559.78 131.138 546.371 124.4C532.963 117.662 522.78 105.874 518.062 91.6288Z" fill="#FFB93E"/>
<path d="M571.936 126.056C567.966 126.055 564.01 125.591 560.149 124.672C556.232 123.737 552.437 122.351 548.84 120.541C537.545 114.874 528.725 105.257 524.054 93.5146C519.384 81.7727 519.188 68.7244 523.504 56.8477C527.821 44.971 536.348 35.0931 547.468 29.0899C558.588 23.0866 571.525 21.3762 583.823 24.2835C587.74 25.2183 591.536 26.6046 595.134 28.4147C605.493 33.6395 613.788 42.204 618.679 52.7247C623.571 63.2453 624.772 75.1077 622.091 86.3955C619.409 97.6834 613 107.738 603.899 114.934C594.799 122.13 583.538 126.048 571.936 126.056ZM571.948 25.9968C561.668 25.991 551.652 29.2558 543.349 35.3189C535.046 41.382 528.888 49.9291 525.764 59.7238C522.64 69.5185 522.713 80.053 525.973 89.8034C529.232 99.5538 535.509 108.015 543.895 113.962C547.962 116.849 552.447 119.095 557.195 120.623C566.674 123.682 576.866 123.738 586.378 120.782C595.889 117.827 604.255 112.005 610.331 104.113C616.076 96.6633 619.542 87.71 620.31 78.3339C620.987 69.9753 619.478 61.5844 615.931 53.9856C612.384 46.3868 606.921 39.8415 600.079 34.993C596.011 32.1061 591.526 29.8597 586.778 28.3318C581.987 26.7859 576.984 25.9982 571.949 25.9972L571.948 25.9968Z" fill="#FFA412"/>
<path d="M583.427 86.4509C583.244 85.4618 582.886 84.5131 582.371 83.649C581.867 82.8533 581.189 82.1824 580.388 81.6868C579.423 81.0981 578.377 80.652 577.284 80.3625C575.835 79.9721 574.36 79.6873 572.87 79.5104C570.137 79.1481 567.424 78.6469 564.743 78.0085C562.464 77.4822 560.268 76.6474 558.216 75.5271C556.372 74.5069 554.763 73.1122 553.49 71.4326C550.944 67.7377 549.959 63.1873 550.748 58.77C551.154 56.799 551.971 54.9356 553.145 53.3013C554.396 51.5793 555.945 50.0947 557.718 48.9175C559.727 47.5849 561.925 46.5644 564.239 45.891L562.525 37.5075L569.273 36.1279L571.011 44.6285C573.35 44.4363 575.705 44.6304 577.982 45.2029C580.083 45.722 582.059 46.6576 583.792 47.9543C585.525 49.2509 586.98 50.8823 588.071 52.7516C589.309 54.8697 590.175 57.1838 590.633 59.594L578.446 62.0857C577.806 58.9519 576.63 56.7501 574.921 55.4802C573.211 54.2102 571.189 53.814 568.856 54.2914C567.739 54.4935 566.667 54.8995 565.697 55.4892C564.91 55.9737 564.241 56.626 563.736 57.3995C563.269 58.1387 562.975 58.9731 562.873 59.8413C562.765 60.7719 562.809 61.714 563.004 62.6304C563.174 63.5255 563.499 64.3842 563.962 65.1687C564.441 65.933 565.092 66.5755 565.862 67.0455C566.834 67.6337 567.887 68.0779 568.987 68.3641C570.504 68.773 572.044 69.092 573.598 69.3192C576.533 69.7804 579.227 70.3177 581.682 70.9311C583.957 71.4754 586.148 72.325 588.195 73.4566C590.141 74.517 591.819 76.007 593.101 77.8135C594.384 79.62 595.238 81.6952 595.598 83.8814C596.067 85.9985 596.089 88.1901 595.661 90.3159C595.247 92.2787 594.42 94.1311 593.236 95.75C591.967 97.4544 590.396 98.9104 588.6 100.045C586.559 101.341 584.345 102.343 582.025 103.022L583.619 110.817L576.914 112.188L575.328 104.431C572.97 104.674 570.592 104.626 568.247 104.288C565.963 103.968 563.761 103.221 561.755 102.084C559.702 100.894 557.931 99.2712 556.567 97.329C555.095 95.2896 554.039 92.7031 553.398 89.5693L565.586 87.0781C565.862 88.6715 566.45 90.1947 567.317 91.5603C568.001 92.6116 568.925 93.4857 570.013 94.1113C571.025 94.6745 572.15 95.0023 573.306 95.0705C574.474 95.1441 575.647 95.0619 576.793 94.8262C577.977 94.6067 579.117 94.1945 580.168 93.6061C581.03 93.1208 581.786 92.4666 582.389 91.6827C582.933 90.9617 583.304 90.1246 583.471 89.2368C583.639 88.3143 583.625 87.3677 583.427 86.4509Z" fill="#FFA412"/>
<path d="M348.464 58.2856C343.379 59.556 338.523 60.7687 333.983 61.5458C319.277 64.0593 307.916 61.9862 303.019 42.3827C298.123 22.7791 307.174 15.6037 321.334 10.9084C325.707 9.45921 330.564 8.24654 335.648 6.9762C346.519 4.2608 358.55 5.45987 368.131 8.60544C377.557 11.7032 384.61 16.6853 385.86 21.6913C387.284 27.3915 383.403 35.1108 376.497 42.1016C369.478 49.2136 359.335 55.5707 348.464 58.2856Z" fill="#00DA9F"/>
<path d="M321.334 10.9082L304.631 0L278.26 5.61869L305.649 24.8613L321.334 10.9082Z" fill="#163560"/>
<path d="M333.942 61.3855L324.329 78.867L298.415 86.3074L313.54 56.4463L333.942 61.3855Z" fill="#163560"/>
<path d="M333.983 61.5456C319.277 64.0591 307.916 61.9861 303.019 42.3825C298.123 22.7789 307.174 15.6035 321.334 10.9082L333.983 61.5456Z" fill="#163560"/>
<path d="M268.684 50.9577C273.577 39.5549 280.307 34.7316 288.874 36.4878C301.982 39.1743 300.329 53.2993 290.493 54.594C280.658 55.8887 274.422 49.5242 268.684 50.9577Z" fill="#F77D48"/>
<path d="M346.854 17.5652C349.286 16.9578 351.844 17.0852 354.204 17.9313C356.563 18.7774 358.619 20.3042 360.111 22.3186C361.603 24.333 362.464 26.7446 362.585 29.2484C362.707 31.7522 362.083 34.2358 360.793 36.3851C359.503 38.5343 357.604 40.2528 355.338 41.3232C353.071 42.3935 350.538 42.7677 348.058 42.3984C345.579 42.0291 343.265 40.9328 341.408 39.2483C339.552 37.5637 338.237 35.3666 337.629 32.9346C337.226 31.3197 337.144 29.6411 337.389 27.9947C337.634 26.3483 338.202 24.7663 339.058 23.3391C339.915 21.9118 341.044 20.6674 342.382 19.6767C343.72 18.686 345.239 17.9685 346.854 17.5652Z" fill="#163560"/>
<path d="M349.927 43.3828C348.433 43.3828 346.95 43.1336 345.538 42.6452C342.724 41.6749 340.306 39.8074 338.656 37.3298C337.093 34.9761 336.307 32.1915 336.409 29.3678C336.511 26.5441 337.495 23.8234 339.224 21.5883C340.952 19.3532 343.338 17.7162 346.046 16.9075C348.753 16.0988 351.646 16.1592 354.317 17.0801C357.132 18.0507 359.55 19.9189 361.2 22.3976C362.549 24.4352 363.32 26.8 363.432 29.2407C363.544 31.6815 362.993 34.107 361.837 36.2595C360.681 38.4121 358.963 40.2112 356.867 41.4657C354.77 42.7203 352.373 43.3833 349.929 43.3845L349.927 43.3828ZM349.927 18.0307C346.952 18.0262 344.084 19.1405 341.892 21.1524C339.7 23.1644 338.344 25.927 338.095 28.8918C337.845 31.8566 338.719 34.807 340.543 37.1573C342.368 39.5076 345.009 41.086 347.944 41.5792C350.878 42.0725 353.89 41.4444 356.383 39.8198C358.875 38.1953 360.666 35.6928 361.4 32.8093C362.133 29.9257 361.755 26.8719 360.342 24.2538C358.928 21.6358 356.582 19.6449 353.768 18.6764C352.532 18.2498 351.233 18.0316 349.925 18.0307H349.927Z" fill="#00DA9F"/>
<path d="M376.497 42.1017L368.133 8.60547C377.558 11.7032 384.611 16.6853 385.861 21.6913C387.284 27.3916 383.403 35.11 376.497 42.1017Z" fill="#F77D48"/>
<path d="M755.515 226.033C772.588 243.735 781.528 255.918 782.335 262.582C783.142 269.245 779.053 277.777 770.068 288.177L755.515 226.033Z" fill="#ED7D2B"/>
<path d="M743.942 501.225C743.34 510.615 742.13 515.375 740.313 515.506C740.071 515.524 735.463 515.522 726.49 515.503L709.308 515.366C709.389 512.606 711.104 510.938 714.453 510.361C719.478 509.496 727.892 505.985 730.949 499.354C733.093 494.703 737.424 495.327 743.942 501.225Z" fill="#2E5A99"/>
<path d="M782.214 501.309C781.611 510.698 780.402 515.459 778.585 515.589C778.343 515.606 773.735 515.605 764.762 515.586L747.579 515.449C747.66 512.689 749.375 511.021 752.725 510.445C757.75 509.579 766.164 506.069 769.221 499.437C771.365 494.786 775.696 495.41 782.214 501.309Z" fill="#18417C"/>
<path d="M725.242 349.791C728.197 368.958 735.225 395.561 746.327 429.599C757.429 463.638 763.726 488.023 765.217 502.756L783.203 502.29C783.385 465.117 780.92 437.973 775.807 420.857C770.694 403.742 770.205 372.909 774.34 328.359L725.242 349.791Z" fill="#163560"/>
<path d="M716.535 329.807C716.047 358.68 718.263 390.849 723.183 426.313C728.102 461.777 729.698 487.032 727.971 502.077L745.919 502.713C753.146 467.262 755.754 440.662 753.742 422.913C751.73 405.163 756.692 374.728 768.629 331.608L716.535 329.807Z" fill="#1C468A"/>
<path d="M751.499 228.528L741.923 234.777L728.108 232.171C728.302 231.056 729.224 226.434 730.064 222.248C730.115 222.001 730.166 221.753 730.214 221.513C730.693 219.138 731.14 216.93 731.554 214.891L744.475 209.223L749.291 207.111C749.279 207.186 748.91 211.064 748.858 211.631C748.242 218.334 749.122 223.966 751.499 228.528Z" fill="#FFB27D"/>
<path d="M731.663 225.322C731.931 225.209 748.316 220.413 750.094 221.004C751.279 221.398 752.22 222.743 752.917 225.039L726.121 231.036C727.532 228.181 729.38 226.276 731.663 225.322Z" fill="#ED7D2B"/>
<path d="M775.517 335.283C772.715 347.939 726.519 349.34 714.637 337.821C713.286 336.508 713.232 330.413 713.761 322.196C714.795 306.142 718.056 281.997 718.207 269.657C718.344 263.747 719.016 257.862 720.216 252.073C721.584 244.905 723.559 237.867 726.121 231.034C741.172 226.204 750.104 224.206 752.917 225.039C773.243 231.06 778.32 322.628 775.517 335.283Z" fill="#F99746"/>
<path d="M713.762 322.196C714.796 306.142 718.057 281.997 718.209 269.657C718.345 263.747 719.017 257.862 720.217 252.073L733.794 249.708C742.561 285.86 735.884 310.023 713.762 322.196Z" fill="#ED7D2B"/>
<path d="M721.158 299.832C721.772 301.308 721.43 302.539 720.133 303.526C718.186 305.007 716.921 307.41 717.362 309.168C717.803 310.927 722.06 313.804 723.537 313.345C725.014 312.886 728.028 310.577 727.705 309.649C727.382 308.721 729.745 301.516 726.15 298.733C723.753 296.877 722.089 297.244 721.158 299.832Z" fill="#FFB27D"/>
<path d="M736.491 227.809C727.664 229.441 719.723 235.43 712.669 245.777C702.088 261.296 695.125 272.837 697.056 278.442C698.987 284.048 716.654 303.515 719.707 303.522C722.759 303.529 727.692 301.318 727.98 296.323C719.695 283.847 716.373 276.677 718.014 274.814C719.067 273.619 734.231 261.364 736.38 266.92C738.75 273.049 738.787 260.012 736.491 227.809Z" fill="#F99746"/>
<path d="M747.889 211.806C745.046 216.602 734.473 220.731 730.064 222.248C730.115 222.001 730.166 221.754 730.214 221.513C730.693 219.138 731.14 216.931 731.554 214.891L744.475 209.223C747.327 209.191 749.063 209.833 747.889 211.806Z" fill="#FCA56B"/>
<path d="M726.69 214.095C740.542 218.449 748.758 216.292 751.337 207.624C755.204 194.622 760.492 186.708 747.389 181.988C734.286 177.269 730.221 181.46 727.873 185.485C725.526 189.51 721.385 212.061 726.69 214.095Z" fill="#FFB27D"/>
<path d="M728.693 184.234C729.555 194.329 731.03 199.16 733.118 198.726C736.25 198.076 739.093 197.595 738.623 202.157C738.153 206.72 733.802 211.981 743.449 212.809C753.096 213.638 767.023 188.783 764.381 184.065C756.763 170.454 717.676 167.625 728.693 184.234Z" fill="#163560"/>
<path d="M627.941 506.769V512.217C627.937 512.645 627.786 513.059 627.511 513.388C627.204 513.757 626.798 514.029 626.34 514.171C626.191 514.223 626.038 514.26 625.882 514.282C625.736 514.304 625.588 514.314 625.44 514.314H522.132C520.883 514.314 519.84 513.536 519.656 512.529C519.647 512.461 519.637 512.394 519.634 512.323C519.634 512.287 519.631 512.252 519.631 512.216V506.768C519.631 506.733 519.634 506.697 519.634 506.662C519.637 506.591 519.647 506.523 519.656 506.456C519.84 505.449 520.883 504.671 522.132 504.671H625.44C625.588 504.671 625.736 504.681 625.882 504.704C626.038 504.727 626.191 504.763 626.34 504.813C626.798 504.956 627.204 505.228 627.511 505.596C627.786 505.925 627.938 506.34 627.941 506.769Z" fill="#FFB93E"/>
<path d="M577.21 514.314H521.864C521.387 514.321 520.92 514.174 520.533 513.894C520.146 513.614 519.86 513.216 519.717 512.76C519.692 512.685 519.671 512.607 519.656 512.529C519.647 512.461 519.637 512.394 519.634 512.323C519.634 512.287 519.631 512.252 519.631 512.217V506.768C519.631 506.733 519.634 506.698 519.634 506.662C519.637 506.591 519.647 506.523 519.656 506.456C519.671 506.378 519.692 506.3 519.717 506.225C519.86 505.769 520.146 505.371 520.533 505.091C520.92 504.812 521.387 504.664 521.864 504.671H570.415C571.448 508.597 573.86 512.021 577.21 514.314Z" fill="#FFA412"/>
<path d="M615.371 504.667H614.196V514.314H615.371V504.667Z" fill="#FFA412"/>
<path d="M611.394 504.667H610.22V514.314H611.394V504.667Z" fill="#FFA412"/>
<path d="M606.63 504.667H605.456V514.314H606.63V504.667Z" fill="#FFA412"/>
<path d="M599.326 504.667H598.151V514.314H599.326V504.667Z" fill="#FFA412"/>
<path d="M591.599 504.667H590.425V514.314H591.599V504.667Z" fill="#FFA412"/>
<path d="M579.757 504.667H578.583V514.314H579.757V504.667Z" fill="#FFA412"/>
<path d="M568.665 504.667H567.49V514.314H568.665V504.667Z" fill="#FFA412"/>
<path d="M558.763 504.667H557.589V514.314H558.763V504.667Z" fill="#FFA412"/>
<path d="M619.153 504.667H617.979V514.314H619.153V504.667Z" fill="#FFA412"/>
<path d="M621.654 504.667H620.479V514.314H621.654V504.667Z" fill="#FFA412"/>
<path d="M624.065 504.667H622.891V514.314H624.065V504.667Z" fill="#FFA412"/>
<path d="M625.882 504.702V514.28C625.736 514.303 625.589 514.314 625.441 514.314H624.708V504.669H625.441C625.589 504.669 625.736 504.68 625.882 504.702Z" fill="#FFA412"/>
<path d="M627.512 505.596V513.386C627.205 513.756 626.798 514.029 626.339 514.172V504.811C626.798 504.954 627.205 505.227 627.512 505.596Z" fill="#FFA412"/>
<path d="M616.894 497.125V502.569C616.89 502.998 616.74 503.412 616.468 503.744C616.395 503.832 616.317 503.914 616.232 503.991C615.839 504.336 615.353 504.56 614.835 504.634C614.69 504.657 614.543 504.669 614.396 504.669H511.085C509.84 504.669 508.797 503.886 508.613 502.881C508.603 502.813 508.594 502.745 508.59 502.678C508.587 502.642 508.587 502.607 508.587 502.568V497.123C508.587 497.088 508.587 497.049 508.59 497.014C508.594 496.946 508.603 496.878 508.613 496.81C508.797 495.804 509.84 495.022 511.085 495.022H614.396C614.461 495.022 614.529 495.026 614.593 495.032C614.617 495.032 614.641 495.035 614.665 495.039C614.666 495.037 614.668 495.036 614.671 495.036C614.673 495.036 614.675 495.037 614.677 495.039C614.708 495.039 614.74 495.042 614.771 495.048L614.836 495.058C614.991 495.08 615.144 495.116 615.294 495.164C615.381 495.193 615.465 495.226 615.545 495.261H615.549C615.604 495.287 615.658 495.313 615.71 495.339C615.739 495.355 615.771 495.374 615.8 495.391C615.829 495.406 615.856 495.423 615.883 495.442C615.991 495.506 616.092 495.581 616.186 495.665C616.218 495.691 616.244 495.72 616.273 495.747C616.293 495.763 616.308 495.779 616.325 495.795C616.334 495.804 616.343 495.814 616.351 495.824L616.373 495.847C616.407 495.88 616.438 495.916 616.467 495.954C616.739 496.284 616.89 496.697 616.894 497.125Z" fill="#FFB93E"/>
<path d="M566.165 504.671H510.818C510.34 504.677 509.874 504.528 509.488 504.248C509.101 503.967 508.816 503.569 508.675 503.113C508.65 503.038 508.63 502.961 508.615 502.883C508.605 502.815 508.596 502.747 508.592 502.68C508.589 502.644 508.589 502.608 508.589 502.57V497.125C508.589 497.09 508.589 497.051 508.592 497.016C508.596 496.948 508.605 496.88 508.615 496.812C508.63 496.734 508.65 496.657 508.675 496.582C508.816 496.126 509.101 495.728 509.488 495.447C509.874 495.167 510.34 495.018 510.818 495.025H559.369C559.388 495.107 559.41 495.183 559.437 495.263C560.501 499.094 562.884 502.426 566.165 504.671Z" fill="#FFA412"/>
<path d="M604.323 495.026H603.148V504.672H604.323V495.026Z" fill="#FFA412"/>
<path d="M600.351 495.026H599.177V504.672H600.351V495.026Z" fill="#FFA412"/>
<path d="M595.584 495.026H594.409V504.672H595.584V495.026Z" fill="#FFA412"/>
<path d="M588.278 495.026H587.104V504.672H588.278V495.026Z" fill="#FFA412"/>
<path d="M580.552 495.026H579.378V504.672H580.552V495.026Z" fill="#FFA412"/>
<path d="M568.709 495.026H567.535V504.672H568.709V495.026Z" fill="#FFA412"/>
<path d="M557.622 495.026H556.447V504.672H557.622V495.026Z" fill="#FFA412"/>
<path d="M547.72 495.026H546.546V504.672H547.72V495.026Z" fill="#FFA412"/>
<path d="M608.106 495.026H606.932V504.672H608.106V495.026Z" fill="#FFA412"/>
<path d="M610.607 495.026H609.433V504.672H610.607V495.026Z" fill="#FFA412"/>
<path d="M613.022 495.026H611.848V504.672H613.022V495.026Z" fill="#FFA412"/>
<path d="M614.836 495.058V504.635C614.69 504.658 614.543 504.669 614.395 504.669H613.661V495.024H614.395C614.543 495.024 614.69 495.036 614.836 495.058Z" fill="#FFA412"/>
<path d="M616.466 495.952V503.741C616.159 504.111 615.752 504.384 615.293 504.527V495.166C615.752 495.309 616.159 495.582 616.466 495.952Z" fill="#FFA412"/>
<path d="M622.232 487.717V493.165C622.228 493.593 622.076 494.007 621.802 494.337C621.496 494.706 621.089 494.978 620.631 495.119C620.481 495.168 620.328 495.205 620.172 495.229C620.027 495.25 619.881 495.261 619.734 495.262H516.422C516.025 495.263 515.633 495.181 515.269 495.023C514.942 494.894 514.652 494.688 514.423 494.422C514.193 494.157 514.031 493.84 513.95 493.498C513.941 493.454 513.937 493.408 513.93 493.363C513.927 493.334 513.924 493.302 513.924 493.269C513.924 493.237 513.921 493.198 513.921 493.163V487.715C513.921 487.68 513.921 487.644 513.924 487.608C513.927 487.54 513.934 487.472 513.947 487.405C514.131 486.395 515.173 485.617 516.419 485.617H619.733C619.88 485.616 620.026 485.627 620.172 485.649C620.327 485.671 620.48 485.707 620.63 485.756C621.088 485.901 621.495 486.174 621.802 486.543C622.076 486.873 622.229 487.288 622.232 487.717Z" fill="#FFB93E"/>
<path d="M571.503 495.262H516.156C515.8 495.263 515.449 495.181 515.129 495.024C514.827 494.881 514.563 494.668 514.359 494.403C514.155 494.138 514.016 493.828 513.955 493.499C513.946 493.454 513.942 493.409 513.935 493.364C513.932 493.335 513.929 493.303 513.929 493.27C513.929 493.238 513.926 493.199 513.926 493.164V487.716C513.926 487.68 513.926 487.644 513.929 487.609C513.932 487.541 513.939 487.473 513.952 487.406C513.966 487.33 513.986 487.255 514.009 487.181C514.15 486.723 514.435 486.323 514.822 486.041C515.209 485.759 515.677 485.611 516.156 485.618H564.707C565.707 489.405 567.989 492.729 571.165 495.022C571.274 495.105 571.387 495.185 571.503 495.262Z" fill="#FFA412"/>
<path d="M609.663 485.619H608.488V495.265H609.663V485.619Z" fill="#FFA412"/>
<path d="M605.686 485.619H604.512V495.265H605.686V485.619Z" fill="#FFA412"/>
<path d="M600.918 485.619H599.744V495.265H600.918V485.619Z" fill="#FFA412"/>
<path d="M593.613 485.619H592.438V495.265H593.613V485.619Z" fill="#FFA412"/>
<path d="M585.891 485.619H584.717V495.265H585.891V485.619Z" fill="#FFA412"/>
<path d="M574.044 485.619H572.87V495.265H574.044V485.619Z" fill="#FFA412"/>
<path d="M562.957 485.619H561.782V495.265H562.957V485.619Z" fill="#FFA412"/>
<path d="M553.055 485.619H551.881V495.265H553.055V485.619Z" fill="#FFA412"/>
<path d="M613.445 485.619H612.271V495.265H613.445V485.619Z" fill="#FFA412"/>
<path d="M615.942 485.619H614.768V495.265H615.942V485.619Z" fill="#FFA412"/>
<path d="M618.356 485.619H617.182V495.265H618.356V485.619Z" fill="#FFA412"/>
<path d="M620.173 485.652V495.229C620.028 495.251 619.88 495.262 619.733 495.262H618.999V485.618H619.733C619.88 485.618 620.028 485.629 620.173 485.652Z" fill="#FFA412"/>
<path d="M621.803 486.545V494.338C621.496 494.707 621.089 494.98 620.63 495.123V485.761C621.088 485.904 621.496 486.176 621.803 486.545Z" fill="#FFA412"/>
<path d="M624.707 478.074V483.519C624.704 483.947 624.552 484.361 624.277 484.69C624.242 484.735 624.203 484.777 624.165 484.82C623.961 485.035 623.719 485.211 623.452 485.339C623.34 485.393 623.224 485.439 623.106 485.478C622.957 485.527 622.804 485.563 622.648 485.585C622.577 485.594 622.506 485.604 622.432 485.611C622.358 485.617 622.28 485.62 622.206 485.62H518.898C517.649 485.62 516.607 484.837 516.423 483.832C516.412 483.765 516.404 483.697 516.4 483.629V477.965C516.465 476.942 517.407 476.111 518.601 475.99C518.698 475.98 518.798 475.974 518.898 475.974H622.206C622.28 475.974 622.357 475.977 622.431 475.984C622.506 475.99 622.577 475.996 622.648 476.01C622.803 476.032 622.957 476.067 623.106 476.116C623.564 476.259 623.97 476.531 624.277 476.899C624.552 477.229 624.704 477.645 624.707 478.074Z" fill="#FFB93E"/>
<path d="M573.978 485.62H518.63C518.153 485.627 517.685 485.478 517.299 485.198C516.912 484.917 516.626 484.52 516.483 484.063C516.458 483.988 516.438 483.911 516.423 483.832C516.412 483.765 516.404 483.697 516.4 483.629V477.965C516.444 477.458 516.665 476.982 517.024 476.621C517.383 476.26 517.858 476.036 518.365 475.99C518.453 475.98 518.541 475.975 518.63 475.974H567.181C567.181 475.981 567.184 475.984 567.184 475.99C568.221 479.91 570.632 483.328 573.978 485.62Z" fill="#FFA412"/>
<path d="M612.134 475.972H610.96V485.618H612.134V475.972Z" fill="#FFA412"/>
<path d="M608.163 475.972H606.988V485.618H608.163V475.972Z" fill="#FFA412"/>
<path d="M603.395 475.972H602.221V485.618H603.395V475.972Z" fill="#FFA412"/>
<path d="M596.089 475.972H594.915V485.618H596.089V475.972Z" fill="#FFA412"/>
<path d="M588.364 475.972H587.189V485.618H588.364V475.972Z" fill="#FFA412"/>
<path d="M576.521 475.972H575.347V485.618H576.521V475.972Z" fill="#FFA412"/>
<path d="M565.433 475.972H564.259V485.618H565.433V475.972Z" fill="#FFA412"/>
<path d="M555.532 475.972H554.357V485.618H555.532V475.972Z" fill="#FFA412"/>
<path d="M615.918 475.972H614.743V485.618H615.918V475.972Z" fill="#FFA412"/>
<path d="M618.418 475.972H617.244V485.618H618.418V475.972Z" fill="#FFA412"/>
<path d="M620.834 475.972H619.659V485.618H620.834V475.972Z" fill="#FFA412"/>
<path d="M622.648 476.007V485.584C622.502 485.606 622.355 485.618 622.207 485.618H621.474V475.973H622.207C622.355 475.973 622.502 475.984 622.648 476.007Z" fill="#FFA412"/>
<path d="M624.279 476.9V484.69C623.972 485.06 623.564 485.333 623.105 485.475V476.114C623.564 476.257 623.972 476.53 624.279 476.9Z" fill="#FFA412"/>
<path d="M617.11 468.444V473.888C617.108 474.316 616.958 474.73 616.684 475.06C616.378 475.431 615.969 475.705 615.509 475.847C615.361 475.896 615.208 475.932 615.054 475.953C615.006 475.963 614.957 475.97 614.909 475.973H614.889C614.864 475.977 614.838 475.979 614.812 475.98C614.789 475.983 614.77 475.983 614.744 475.986C614.699 475.986 614.657 475.989 614.612 475.989H511.304C509.972 475.989 508.873 475.102 508.806 473.999C508.803 473.963 508.803 473.927 508.803 473.888V468.444C508.803 468.408 508.803 468.37 508.806 468.335C508.806 468.306 508.81 468.276 508.813 468.247C508.896 467.784 509.121 467.359 509.457 467.029C509.793 466.7 510.223 466.484 510.688 466.411C510.712 466.404 510.737 466.399 510.762 466.395C510.941 466.361 511.122 466.344 511.304 466.343H614.612C614.69 466.343 614.76 466.347 614.835 466.354C614.867 466.356 614.899 466.36 614.929 466.363H614.938C614.977 466.366 615.015 466.372 615.054 466.379C615.208 466.401 615.361 466.437 615.509 466.485C615.969 466.628 616.378 466.901 616.684 467.273C616.957 467.602 617.108 468.016 617.11 468.444Z" fill="#FFB93E"/>
<path d="M566.38 475.989H511.035C510.479 476.003 509.94 475.805 509.526 475.435C509.111 475.065 508.853 474.551 508.805 473.998C508.801 473.962 508.801 473.927 508.801 473.888V468.444C508.801 468.408 508.801 468.369 508.805 468.334C508.805 468.305 508.808 468.276 508.811 468.247C508.867 467.795 509.065 467.372 509.376 467.04C509.688 466.708 510.097 466.483 510.544 466.398C510.574 466.388 510.606 466.382 510.637 466.378C510.769 466.355 510.902 466.343 511.035 466.343H559.582C559.589 466.369 559.595 466.388 559.601 466.414C560.643 470.303 563.038 473.693 566.356 475.974C566.364 475.979 566.373 475.983 566.38 475.989Z" fill="#FFA412"/>
<path d="M604.541 466.343H603.366V475.989H604.541V466.343Z" fill="#FFA412"/>
<path d="M600.564 466.343H599.39V475.989H600.564V466.343Z" fill="#FFA412"/>
<path d="M595.8 466.343H594.626V475.989H595.8V466.343Z" fill="#FFA412"/>
<path d="M588.495 466.343H587.32V475.989H588.495V466.343Z" fill="#FFA412"/>
<path d="M580.769 466.343H579.595V475.989H580.769V466.343Z" fill="#FFA412"/>
<path d="M568.927 466.343H567.753V475.989H568.927V466.343Z" fill="#FFA412"/>
<path d="M557.834 466.343H556.66V475.989H557.834V466.343Z" fill="#FFA412"/>
<path d="M547.933 466.343H546.759V475.989H547.933V466.343Z" fill="#FFA412"/>
<path d="M608.323 466.343H607.148V475.989H608.323V466.343Z" fill="#FFA412"/>
<path d="M610.824 466.343H609.649V475.989H610.824V466.343Z" fill="#FFA412"/>
<path d="M613.235 466.343H612.061V475.989H613.235V466.343Z" fill="#FFA412"/>
<path d="M615.052 466.378V475.955C614.906 475.977 614.759 475.988 614.611 475.989H613.878V466.344H614.611C614.759 466.344 614.906 466.355 615.052 466.378Z" fill="#FFA412"/>
<path d="M616.683 467.27V475.061C616.376 475.43 615.968 475.703 615.51 475.846V466.484C615.968 466.628 616.376 466.901 616.683 467.27Z" fill="#FFA412"/>
<path d="M616.893 458.869V464.313C616.89 464.741 616.739 465.155 616.467 465.485C616.394 465.573 616.315 465.657 616.232 465.736C615.96 465.979 615.64 466.161 615.293 466.272C615.177 466.31 615.058 466.34 614.938 466.363H614.929C614.898 466.369 614.866 466.375 614.835 466.378C614.69 466.402 614.543 466.414 614.396 466.414H511.085C510.977 466.414 510.869 466.408 510.762 466.395C510.721 466.391 510.68 466.385 510.638 466.378C510.157 466.33 509.704 466.133 509.34 465.815C508.976 465.497 508.72 465.074 508.609 464.603C508.599 464.542 508.593 464.484 508.589 464.422C508.586 464.383 508.586 464.348 508.586 464.313V458.869C508.586 458.83 508.586 458.794 508.589 458.759C508.593 458.691 508.602 458.623 508.612 458.556C508.796 457.549 509.839 456.768 511.084 456.768H614.395C614.46 456.768 614.528 456.771 614.592 456.775C614.602 456.775 614.612 456.777 614.618 456.777C614.637 456.78 614.657 456.781 614.676 456.781C614.705 456.784 614.738 456.788 614.77 456.794C614.792 456.794 614.814 456.797 614.835 456.803C614.99 456.825 615.143 456.861 615.293 456.91C615.38 456.939 615.464 456.971 615.545 457.006H615.548C615.859 457.143 616.139 457.34 616.372 457.587C616.404 457.623 616.436 457.658 616.466 457.694C616.738 458.025 616.889 458.44 616.893 458.869Z" fill="#FFB93E"/>
<path d="M566.164 466.414H510.817C510.776 466.414 510.73 466.41 510.688 466.41C510.639 466.407 510.592 466.401 510.546 466.398C510.072 466.351 509.626 466.15 509.276 465.826C508.926 465.502 508.692 465.073 508.61 464.604C508.6 464.542 508.594 464.484 508.59 464.422C508.587 464.384 508.587 464.348 508.587 464.313V458.868C508.587 458.83 508.587 458.794 508.59 458.759C508.594 458.691 508.603 458.623 508.613 458.556C508.628 458.477 508.648 458.4 508.673 458.325C508.814 457.869 509.1 457.471 509.486 457.19C509.872 456.909 510.338 456.761 510.816 456.767H559.368C559.388 456.85 559.41 456.926 559.437 457.006C560.49 460.796 562.835 464.098 566.065 466.342C566.097 466.368 566.132 466.388 566.164 466.414Z" fill="#FFA412"/>
<path d="M604.322 456.767H603.147V466.413H604.322V456.767Z" fill="#FFA412"/>
<path d="M600.35 456.767H599.176V466.413H600.35V456.767Z" fill="#FFA412"/>
<path d="M595.583 456.767H594.408V466.413H595.583V456.767Z" fill="#FFA412"/>
<path d="M588.277 456.767H587.103V466.413H588.277V456.767Z" fill="#FFA412"/>
<path d="M580.551 456.767H579.377V466.413H580.551V456.767Z" fill="#FFA412"/>
<path d="M568.709 456.767H567.534V466.413H568.709V456.767Z" fill="#FFA412"/>
<path d="M557.621 456.767H556.446V466.413H557.621V456.767Z" fill="#FFA412"/>
<path d="M547.719 456.767H546.545V466.413H547.719V456.767Z" fill="#FFA412"/>
<path d="M608.105 456.767H606.931V466.413H608.105V456.767Z" fill="#FFA412"/>
<path d="M610.606 456.767H609.432V466.413H610.606V456.767Z" fill="#FFA412"/>
<path d="M613.021 456.767H611.847V466.413H613.021V456.767Z" fill="#FFA412"/>
<path d="M614.835 456.801V466.378C614.689 466.401 614.542 466.412 614.394 466.412H613.66V456.768H614.394C614.542 456.768 614.689 456.779 614.835 456.801Z" fill="#FFA412"/>
<path d="M616.465 457.695V465.485C616.158 465.855 615.751 466.127 615.292 466.27V456.909C615.751 457.052 616.158 457.325 616.465 457.695Z" fill="#FFA412"/>
<path d="M622.232 449.462V454.905C622.229 455.335 622.077 455.75 621.802 456.08C621.496 456.449 621.089 456.721 620.631 456.863C620.481 456.912 620.328 456.948 620.172 456.97C620.027 456.993 619.881 457.004 619.734 457.005H516.422C516.025 457.006 515.633 456.925 515.269 456.766C514.942 456.637 514.652 456.431 514.423 456.165C514.193 455.9 514.031 455.583 513.95 455.242C513.941 455.197 513.937 455.151 513.93 455.106C513.927 455.074 513.924 455.045 513.924 455.013C513.924 454.98 513.921 454.941 513.921 454.902V449.462C513.921 449.426 513.921 449.387 513.924 449.352C513.927 449.284 513.935 449.216 513.947 449.149C514.131 448.142 515.173 447.36 516.419 447.36H619.733C619.88 447.361 620.027 447.373 620.172 447.396C620.327 447.418 620.481 447.453 620.63 447.502C621.089 447.645 621.496 447.918 621.802 448.29C622.076 448.619 622.228 449.033 622.232 449.462Z" fill="#FFB93E"/>
<path d="M571.503 457.006H516.156C515.8 457.007 515.449 456.925 515.129 456.767C514.827 456.624 514.563 456.411 514.359 456.146C514.155 455.881 514.016 455.572 513.955 455.243C513.946 455.198 513.942 455.152 513.935 455.107C513.932 455.075 513.929 455.046 513.929 455.014C513.929 454.981 513.926 454.942 513.926 454.904V449.461C513.926 449.426 513.926 449.387 513.929 449.351C513.932 449.283 513.939 449.215 513.952 449.148C513.966 449.072 513.985 448.997 514.009 448.924C514.149 448.466 514.434 448.065 514.822 447.783C515.209 447.5 515.677 447.351 516.156 447.358H564.707C565.706 451.147 567.988 454.472 571.165 456.766C571.274 456.848 571.387 456.926 571.503 457.006Z" fill="#FFA412"/>
<path d="M609.663 447.364H608.488V457.01H609.663V447.364Z" fill="#FFA412"/>
<path d="M605.686 447.364H604.512V457.01H605.686V447.364Z" fill="#FFA412"/>
<path d="M600.918 447.364H599.744V457.01H600.918V447.364Z" fill="#FFA412"/>
<path d="M593.613 447.364H592.438V457.01H593.613V447.364Z" fill="#FFA412"/>
<path d="M585.891 447.364H584.717V457.01H585.891V447.364Z" fill="#FFA412"/>
<path d="M574.044 447.364H572.87V457.01H574.044V447.364Z" fill="#FFA412"/>
<path d="M562.957 447.364H561.782V457.01H562.957V447.364Z" fill="#FFA412"/>
<path d="M553.055 447.364H551.881V457.01H553.055V447.364Z" fill="#FFA412"/>
<path d="M613.445 447.364H612.271V457.01H613.445V447.364Z" fill="#FFA412"/>
<path d="M615.942 447.364H614.768V457.01H615.942V447.364Z" fill="#FFA412"/>
<path d="M618.356 447.364H617.182V457.01H618.356V447.364Z" fill="#FFA412"/>
<path d="M620.173 447.395V456.972C620.028 456.994 619.88 457.006 619.733 457.006H618.999V447.361H619.733C619.88 447.361 620.028 447.373 620.173 447.395Z" fill="#FFA412"/>
<path d="M621.803 448.289V456.079C621.496 456.448 621.089 456.721 620.63 456.864V447.503C621.089 447.646 621.496 447.919 621.803 448.289Z" fill="#FFA412"/>
<path d="M630.674 439.817V445.264C630.67 445.691 630.52 446.103 630.248 446.433L630.245 446.435C630.21 446.48 630.171 446.523 630.132 446.564C629.971 446.735 629.785 446.881 629.58 446.997C629.474 447.057 629.364 447.11 629.251 447.155C629.248 447.155 629.247 447.155 629.247 447.159C629.192 447.181 629.135 447.204 629.073 447.223C628.924 447.272 628.771 447.308 628.615 447.33C628.47 447.352 628.323 447.362 628.176 447.362H524.865C523.62 447.362 522.577 446.584 522.393 445.578C522.381 445.509 522.373 445.441 522.371 445.372C522.367 445.336 522.367 445.301 522.367 445.265V439.818C522.367 439.782 522.367 439.746 522.371 439.711C522.432 438.691 523.374 437.857 524.572 437.735C524.669 437.724 524.767 437.718 524.865 437.719H628.176C628.323 437.72 628.47 437.731 628.615 437.752C628.771 437.776 628.924 437.813 629.074 437.861C629.475 437.988 629.839 438.214 630.132 438.517C630.171 438.558 630.209 438.599 630.245 438.646L630.248 438.649C630.52 438.978 630.67 439.39 630.674 439.817Z" fill="#FFB93E"/>
<path d="M579.945 447.361H524.597C524.118 447.368 523.65 447.22 523.263 446.938C522.876 446.657 522.591 446.258 522.45 445.8C522.426 445.727 522.407 445.652 522.392 445.577C522.38 445.509 522.372 445.44 522.37 445.371C522.366 445.335 522.366 445.3 522.366 445.264V439.817C522.366 439.781 522.366 439.745 522.37 439.71C522.412 439.202 522.632 438.726 522.991 438.365C523.35 438.004 523.825 437.78 524.332 437.735C524.42 437.723 524.508 437.717 524.597 437.718H573.147C573.149 437.724 573.15 437.729 573.151 437.735C574.187 441.655 576.599 445.071 579.945 447.361Z" fill="#FFA412"/>
<path d="M618.106 437.718H616.932V447.364H618.106V437.718Z" fill="#FFA412"/>
<path d="M614.129 437.718H612.955V447.364H614.129V437.718Z" fill="#FFA412"/>
<path d="M609.362 437.718H608.188V447.364H609.362V437.718Z" fill="#FFA412"/>
<path d="M602.056 437.718H600.882V447.364H602.056V437.718Z" fill="#FFA412"/>
<path d="M594.334 437.718H593.16V447.364H594.334V437.718Z" fill="#FFA412"/>
<path d="M582.489 437.718H581.314V447.364H582.489V437.718Z" fill="#FFA412"/>
<path d="M571.4 437.718H570.226V447.364H571.4V437.718Z" fill="#FFA412"/>
<path d="M561.499 437.719H560.324V447.365H561.499V437.719Z" fill="#FFA412"/>
<path d="M621.888 437.718H620.714V447.364H621.888V437.718Z" fill="#FFA412"/>
<path d="M624.385 437.718H623.211V447.364H624.385V437.718Z" fill="#FFA412"/>
<path d="M626.8 437.718H625.626V447.364H626.8V437.718Z" fill="#FFA412"/>
<path d="M628.617 437.751V447.328C628.471 447.35 628.323 447.361 628.176 447.362H627.442V437.717H628.176C628.323 437.717 628.471 437.728 628.617 437.751Z" fill="#FFA412"/>
<path d="M630.246 438.644V446.434C629.939 446.803 629.532 447.076 629.073 447.219V437.858C629.532 438.001 629.939 438.274 630.246 438.644Z" fill="#FFA412"/>
<path d="M617.111 430.188V435.632C617.109 436.061 616.958 436.475 616.685 436.804C616.378 437.176 615.97 437.45 615.51 437.592C615.362 437.641 615.209 437.676 615.055 437.698L614.909 437.718H614.89C614.858 437.724 614.825 437.724 614.793 437.728C614.774 437.728 614.755 437.731 614.735 437.731C614.694 437.731 614.655 437.734 614.611 437.734H511.305C510.897 437.744 510.493 437.659 510.124 437.485C509.754 437.311 509.431 437.054 509.178 436.734C508.961 436.447 508.832 436.104 508.808 435.745C508.804 435.706 508.804 435.67 508.804 435.634V430.19C508.803 430.154 508.804 430.117 508.808 430.081C508.866 429.618 509.068 429.186 509.386 428.845C509.704 428.505 510.122 428.273 510.579 428.183C510.816 428.12 511.06 428.089 511.305 428.089H614.613C614.658 428.089 614.7 428.093 614.745 428.093C614.767 428.093 614.789 428.095 614.81 428.099C614.892 428.103 614.974 428.112 615.055 428.125C615.209 428.148 615.362 428.183 615.51 428.232C615.583 428.254 615.654 428.281 615.723 428.314H615.727C615.992 428.421 616.237 428.575 616.449 428.767C616.453 428.771 616.457 428.775 616.459 428.78C616.469 428.79 616.479 428.796 616.488 428.806C616.559 428.871 616.624 428.941 616.685 429.016C616.958 429.346 617.108 429.76 617.111 430.188Z" fill="#FFB93E"/>
<path d="M566.381 437.733H511.035C510.67 437.736 510.31 437.651 509.986 437.485C509.661 437.319 509.381 437.078 509.169 436.781C508.952 436.476 508.825 436.116 508.805 435.742C508.801 435.703 508.801 435.667 508.801 435.631V430.187C508.8 430.151 508.802 430.114 508.805 430.078C508.843 429.602 509.039 429.153 509.361 428.801C509.682 428.448 510.112 428.213 510.582 428.131C510.731 428.102 510.883 428.087 511.035 428.086H559.583C559.602 428.161 559.624 428.235 559.647 428.309C560.706 432.137 563.082 435.468 566.357 437.716C566.365 437.721 566.373 437.726 566.381 437.733Z" fill="#FFA412"/>
<path d="M604.541 428.088H603.366V437.734H604.541V428.088Z" fill="#FFA412"/>
<path d="M600.564 428.088H599.39V437.734H600.564V428.088Z" fill="#FFA412"/>
<path d="M595.801 428.088H594.627V437.734H595.801V428.088Z" fill="#FFA412"/>
<path d="M588.496 428.088H587.321V437.734H588.496V428.088Z" fill="#FFA412"/>
<path d="M580.769 428.088H579.595V437.734H580.769V428.088Z" fill="#FFA412"/>
<path d="M568.927 428.088H567.753V437.734H568.927V428.088Z" fill="#FFA412"/>
<path d="M557.834 428.088H556.66V437.734H557.834V428.088Z" fill="#FFA412"/>
<path d="M547.933 428.089H546.759V437.735H547.933V428.089Z" fill="#FFA412"/>
<path d="M608.323 428.088H607.148V437.734H608.323V428.088Z" fill="#FFA412"/>
<path d="M610.824 428.088H609.649V437.734H610.824V428.088Z" fill="#FFA412"/>
<path d="M613.235 428.088H612.061V437.734H613.235V428.088Z" fill="#FFA412"/>
<path d="M615.052 428.121V437.698C614.906 437.721 614.759 437.732 614.611 437.732H613.878V428.087H614.611C614.759 428.087 614.906 428.099 615.052 428.121Z" fill="#FFA412"/>
<path d="M616.684 429.015V436.805C616.377 437.174 615.969 437.447 615.511 437.59V428.229C615.969 428.372 616.377 428.645 616.684 429.015Z" fill="#FFA412"/>
<path d="M624.706 420.765V426.211C624.703 426.64 624.552 427.054 624.278 427.383C623.971 427.753 623.564 428.026 623.105 428.169C622.956 428.218 622.803 428.254 622.647 428.277C622.502 428.299 622.354 428.311 622.207 428.311H518.898C518.515 428.312 518.135 428.236 517.782 428.088C517.424 427.954 517.108 427.728 516.867 427.433C516.625 427.137 516.467 426.782 516.408 426.405C516.405 426.378 516.403 426.349 516.401 426.32C516.401 426.283 516.398 426.247 516.398 426.211V420.765C516.398 420.728 516.398 420.693 516.401 420.657C516.463 419.634 517.407 418.8 518.602 418.679C518.701 418.669 518.8 418.664 518.898 418.664H622.205C622.353 418.664 622.5 418.675 622.646 418.698C622.801 418.72 622.954 418.756 623.103 418.805C623.562 418.948 623.969 419.221 624.276 419.591C624.551 419.921 624.703 420.336 624.706 420.765Z" fill="#FFB93E"/>
<path d="M573.976 428.311H518.63C518.286 428.312 517.946 428.236 517.634 428.088C517.302 427.937 517.014 427.703 516.8 427.408C516.585 427.113 516.45 426.768 516.408 426.406C516.405 426.378 516.403 426.349 516.401 426.32C516.401 426.284 516.398 426.248 516.398 426.211V420.765C516.398 420.729 516.398 420.693 516.401 420.657C516.461 420.109 516.723 419.602 517.134 419.235C517.546 418.867 518.078 418.665 518.63 418.666H567.179C567.179 418.671 567.183 418.676 567.184 418.681C568.186 422.472 570.475 425.797 573.659 428.087C573.763 428.163 573.869 428.237 573.976 428.311Z" fill="#FFA412"/>
<path d="M612.134 418.665H610.96V428.311H612.134V418.665Z" fill="#FFA412"/>
<path d="M608.163 418.665H606.988V428.311H608.163V418.665Z" fill="#FFA412"/>
<path d="M603.395 418.665H602.221V428.311H603.395V418.665Z" fill="#FFA412"/>
<path d="M596.089 418.665H594.915V428.311H596.089V418.665Z" fill="#FFA412"/>
<path d="M588.364 418.665H587.189V428.311H588.364V418.665Z" fill="#FFA412"/>
<path d="M576.521 418.665H575.347V428.311H576.521V418.665Z" fill="#FFA412"/>
<path d="M565.433 418.665H564.259V428.311H565.433V418.665Z" fill="#FFA412"/>
<path d="M555.532 418.665H554.357V428.311H555.532V418.665Z" fill="#FFA412"/>
<path d="M615.918 418.665H614.743V428.311H615.918V418.665Z" fill="#FFA412"/>
<path d="M618.418 418.665H617.244V428.311H618.418V418.665Z" fill="#FFA412"/>
<path d="M620.834 418.665H619.659V428.311H620.834V418.665Z" fill="#FFA412"/>
<path d="M622.648 418.699V428.276C622.502 428.299 622.355 428.31 622.207 428.31H621.474V418.666H622.207C622.355 418.665 622.502 418.677 622.648 418.699Z" fill="#FFA412"/>
<path d="M624.279 419.592V427.383C623.972 427.752 623.564 428.025 623.105 428.168V418.806C623.564 418.95 623.972 419.223 624.279 419.592Z" fill="#FFA412"/>
<path d="M627.94 411.136V416.582C627.937 417.011 627.785 417.425 627.511 417.755C627.204 418.125 626.797 418.397 626.338 418.54C626.189 418.59 626.036 418.626 625.881 418.649C625.833 418.656 625.785 418.662 625.736 418.667L625.654 418.674C625.627 418.676 625.599 418.677 625.571 418.678C625.527 418.681 625.483 418.682 625.439 418.682H522.131C520.8 418.682 519.702 417.796 519.635 416.691C519.635 416.655 519.632 416.619 519.632 416.582V411.136C519.632 411.1 519.632 411.064 519.635 411.028C519.702 409.923 520.8 409.037 522.131 409.037H625.44C625.588 409.037 625.735 409.048 625.881 409.071C626.036 409.094 626.189 409.13 626.338 409.179C626.797 409.322 627.204 409.595 627.511 409.964C627.785 410.294 627.937 410.708 627.94 411.136Z" fill="#FFB93E"/>
<path d="M577.21 418.681H521.864C521.309 418.695 520.77 418.496 520.356 418.126C519.942 417.757 519.685 417.243 519.636 416.69C519.636 416.654 519.633 416.618 519.633 416.582V411.135C519.633 411.099 519.633 411.064 519.636 411.027C519.685 410.474 519.942 409.961 520.356 409.591C520.77 409.221 521.309 409.023 521.864 409.036H570.412C571.443 412.954 573.847 416.371 577.186 418.666C577.195 418.67 577.203 418.677 577.21 418.681Z" fill="#FFA412"/>
<path d="M615.37 409.035H614.195V418.681H615.37V409.035Z" fill="#FFA412"/>
<path d="M611.393 409.035H610.219V418.681H611.393V409.035Z" fill="#FFA412"/>
<path d="M606.63 409.035H605.456V418.681H606.63V409.035Z" fill="#FFA412"/>
<path d="M599.325 409.035H598.15V418.681H599.325V409.035Z" fill="#FFA412"/>
<path d="M591.598 409.035H590.424V418.681H591.598V409.035Z" fill="#FFA412"/>
<path d="M579.756 409.035H578.582V418.681H579.756V409.035Z" fill="#FFA412"/>
<path d="M568.664 409.035H567.489V418.681H568.664V409.035Z" fill="#FFA412"/>
<path d="M558.762 409.035H557.588V418.681H558.762V409.035Z" fill="#FFA412"/>
<path d="M619.152 409.035H617.978V418.681H619.152V409.035Z" fill="#FFA412"/>
<path d="M621.653 409.035H620.479V418.681H621.653V409.035Z" fill="#FFA412"/>
<path d="M624.064 409.035H622.89V418.681H624.064V409.035Z" fill="#FFA412"/>
<path d="M625.881 409.069V418.647C625.735 418.669 625.588 418.681 625.44 418.68H624.707V409.036H625.44C625.588 409.036 625.735 409.047 625.881 409.069Z" fill="#FFA412"/>
<path d="M627.511 409.963V417.753C627.204 418.123 626.797 418.395 626.338 418.538V409.177C626.797 409.32 627.204 409.593 627.511 409.963Z" fill="#FFA412"/>
<path d="M595.193 354.076C591.576 359.169 588.109 361.751 584.793 361.823C581.476 361.894 577.295 360.714 572.25 358.281C569.205 351.496 568.715 346.776 570.78 344.119C572.852 343.21 574.971 343.558 577.136 345.163C577.759 345.631 578.324 346.172 578.818 346.774C579.49 347.615 580.4 348.232 581.429 348.546C584.979 349.626 589.192 347.086 590.768 349.537C591.54 350.733 592.462 351.825 593.512 352.786C594.032 353.266 594.595 353.698 595.193 354.076Z" fill="#FFEDDC"/>
<path d="M524.452 409.177C537.238 378.196 555.139 362.411 578.154 361.82C599.398 364.181 610.61 379.966 611.79 409.177H524.452Z" fill="#FFEDDC"/>
<path d="M568.695 363.239C577.92 365.291 583.956 365.714 586.802 364.508C587.232 360.651 585.505 358.993 581.62 359.534C577.631 360.089 575.034 358.174 573.506 357.395C571.343 356.294 568.121 360.819 568.695 363.239Z" fill="#DB6A1D"/>
<path d="M580.738 354.518C580.148 354.96 578.947 351.842 577.136 345.161C577.758 345.629 578.323 346.17 578.817 346.772C579.489 347.613 580.399 348.23 581.428 348.544C581.438 348.835 581.597 353.87 580.738 354.518Z" fill="#E5C1A1"/>
<path d="M593.512 352.783C593.317 352.897 586.919 356.73 586.049 356.73C585.46 356.73 587.032 354.332 590.768 349.534C591.54 350.73 592.462 351.821 593.512 352.783Z" fill="#E5C1A1"/>
<path d="M543.189 396.195C542.835 395.892 556.762 375.688 560.598 375.541C564.434 375.393 573.052 379.966 579.291 380.556C585.53 381.146 591.579 379.376 592.759 383.065C593.94 386.753 597.185 399.829 595.193 401.922C593.202 404.014 550.848 402.739 543.189 396.195Z" fill="#F9DDBF"/>
<path opacity="0.502" d="M556.305 466.342C556.301 466.368 556.301 466.391 556.298 466.414C556.118 469.646 555.599 472.85 554.749 475.973C554.747 475.978 554.746 475.984 554.745 475.989C554.623 476.441 554.493 476.892 554.355 477.341C553.485 480.202 552.345 482.974 550.95 485.619C549.169 489.001 546.991 492.158 544.46 495.023C544.392 495.106 544.321 495.185 544.25 495.262C540.955 498.944 537.13 502.115 532.9 504.67C531.984 505.228 531.043 505.76 530.079 506.267C529.427 506.609 528.772 506.932 528.114 507.245C527.484 507.61 526.82 507.923 526.193 508.307C524.135 509.494 521.928 510.402 519.63 511.008V506.767C519.63 506.732 519.633 506.696 519.633 506.661C519.636 506.59 519.646 506.522 519.655 506.455C519.671 506.376 519.691 506.299 519.716 506.223C519.859 505.768 520.145 505.37 520.532 505.09C520.919 504.81 521.386 504.663 521.863 504.67H510.817C510.339 504.676 509.873 504.528 509.487 504.247C509.1 503.966 508.815 503.568 508.674 503.112C508.649 503.037 508.629 502.96 508.614 502.882C508.604 502.814 508.595 502.746 508.591 502.679C508.588 502.643 508.588 502.608 508.588 502.569V497.124C508.588 497.089 508.588 497.05 508.591 497.015C508.595 496.947 508.604 496.879 508.614 496.811C508.629 496.733 508.649 496.657 508.674 496.581C508.815 496.125 509.1 495.727 509.487 495.447C509.873 495.166 510.339 495.018 510.817 495.024H515.128C514.826 494.881 514.562 494.668 514.358 494.403C514.154 494.138 514.015 493.828 513.954 493.499C513.944 493.454 513.941 493.409 513.934 493.364C513.931 493.335 513.928 493.303 513.928 493.27C513.928 493.238 513.925 493.199 513.925 493.164V487.716C513.925 487.68 513.925 487.644 513.928 487.609C513.931 487.541 513.938 487.473 513.951 487.406C513.965 487.33 513.984 487.255 514.008 487.181C514.148 486.723 514.434 486.323 514.821 486.041C515.208 485.759 515.676 485.611 516.155 485.618H518.63C518.152 485.624 517.685 485.476 517.298 485.196C516.912 484.915 516.626 484.517 516.483 484.061C516.458 483.986 516.438 483.908 516.423 483.83C516.412 483.763 516.404 483.695 516.4 483.627V477.963C516.444 477.456 516.665 476.98 517.024 476.619C517.383 476.257 517.858 476.034 518.365 475.988H511.035C510.479 476.002 509.94 475.803 509.526 475.434C509.111 475.064 508.854 474.55 508.805 473.997C508.801 473.961 508.801 473.926 508.801 473.887V468.443C508.801 468.407 508.801 468.368 508.805 468.333C508.805 468.304 508.808 468.274 508.811 468.246C508.867 467.794 509.065 467.371 509.377 467.039C509.688 466.707 510.097 466.482 510.544 466.397C510.07 466.35 509.624 466.149 509.274 465.825C508.925 465.502 508.69 465.072 508.608 464.603C508.598 464.541 508.592 464.483 508.588 464.421C508.585 464.383 508.585 464.347 508.585 464.312V458.868C508.585 458.83 508.585 458.794 508.588 458.759C508.592 458.691 508.601 458.623 508.611 458.556C508.626 458.477 508.646 458.4 508.671 458.325C508.813 457.869 509.098 457.471 509.484 457.19C509.87 456.909 510.336 456.761 510.814 456.767H515.125C514.823 456.624 514.559 456.411 514.355 456.146C514.151 455.881 514.012 455.571 513.951 455.243C513.942 455.198 513.938 455.152 513.931 455.107C513.928 455.075 513.925 455.046 513.925 455.014C513.925 454.981 513.922 454.942 513.922 454.904V449.461C513.922 449.426 513.922 449.387 513.925 449.351C513.928 449.283 513.935 449.215 513.948 449.148C513.962 449.072 513.982 448.997 514.005 448.924C514.145 448.466 514.43 448.065 514.818 447.783C515.205 447.5 515.673 447.351 516.152 447.358H524.594C524.116 447.365 523.648 447.217 523.261 446.936C522.874 446.654 522.589 446.255 522.448 445.798C522.424 445.724 522.405 445.65 522.39 445.574C522.378 445.506 522.37 445.437 522.367 445.368C522.364 445.332 522.364 445.297 522.364 445.261V439.814C522.364 439.778 522.364 439.743 522.367 439.707C522.41 439.2 522.63 438.724 522.989 438.362C523.348 438.001 523.823 437.778 524.33 437.732H511.035C510.67 437.735 510.31 437.649 509.986 437.484C509.661 437.318 509.381 437.076 509.169 436.78L509.176 436.731L510.577 428.179L510.583 428.131L512.578 415.929C514.887 416.238 517.174 416.698 519.423 417.307L519.816 417.413C519.825 417.417 519.833 417.42 519.842 417.423C521.149 417.788 522.439 418.202 523.712 418.666C523.724 418.669 523.737 418.673 523.748 418.679C529.624 420.808 535.06 423.997 539.787 428.086C539.87 428.157 539.955 428.232 540.035 428.309C542.518 430.487 544.772 432.915 546.76 435.554C547.164 436.083 547.554 436.622 547.931 437.171C548.058 437.351 548.183 437.532 548.302 437.716C548.305 437.718 548.308 437.72 548.309 437.723C548.311 437.726 548.312 437.729 548.312 437.732C548.922 438.633 549.501 439.557 550.048 440.505C551.319 442.698 552.413 444.991 553.317 447.359C554.484 450.397 555.323 453.551 555.822 456.767C555.838 456.849 555.848 456.925 555.86 457.005C556.325 460.095 556.474 463.223 556.305 466.342Z" fill="#E2810E"/>
<path d="M449.591 485.897C444.739 477.095 442.606 467.053 443.462 457.039C444.318 447.025 448.124 437.49 454.399 429.639C460.673 421.789 469.135 415.975 478.714 412.934C488.293 409.892 498.559 409.759 508.214 412.552C517.868 415.345 526.477 420.938 532.953 428.624C539.429 436.31 543.48 445.744 544.594 455.732C545.708 465.72 543.836 475.814 539.213 484.738C534.59 493.663 527.425 501.015 518.624 505.867C512.78 509.089 506.358 511.128 499.726 511.867C493.094 512.607 486.382 512.034 479.971 510.179C473.561 508.325 467.579 505.226 462.366 501.06C457.153 496.893 452.812 491.741 449.591 485.897Z" fill="#E2810E"/>
<path d="M516.651 506.899C516.025 507.281 515.389 507.65 514.742 508.007C514.522 508.129 514.302 508.247 514.082 508.362C513.581 508.629 513.08 508.886 512.576 509.136C500.663 514.984 486.935 515.939 474.327 511.798C461.719 507.657 451.231 498.748 445.106 486.975C438.98 475.203 437.703 461.501 441.547 448.799C445.391 436.098 454.052 425.404 465.677 419.003C466.329 418.644 466.985 418.301 467.645 417.973C468.286 417.654 468.931 417.35 469.582 417.061C474.421 414.907 479.567 413.523 484.834 412.961C496.314 411.742 507.868 414.469 517.592 420.691C527.317 426.914 534.633 436.262 538.336 447.197C542.039 458.132 541.91 470.002 537.968 480.853C534.026 491.704 526.507 500.89 516.649 506.899L516.651 506.899Z" fill="#FFB93E"/>
<path d="M490.565 509.583C486.261 509.579 481.98 508.969 477.847 507.77C467.308 504.734 458.219 497.994 452.252 488.79C446.286 479.587 443.843 468.539 445.373 457.678C446.903 446.817 452.304 436.873 460.581 429.677C468.858 422.48 479.455 418.514 490.424 418.508C498.46 418.512 506.354 420.627 513.315 424.641C520.827 428.975 526.941 435.37 530.932 443.07C534.923 450.77 536.625 459.452 535.836 468.089C535.039 476.889 531.712 485.27 526.256 492.22C522.496 497.001 517.811 500.976 512.481 503.906C509.115 505.764 505.53 507.192 501.809 508.156C498.136 509.103 494.358 509.583 490.565 509.583ZM490.425 419.735C479.76 419.752 469.458 423.617 461.413 430.619C453.368 437.622 448.119 447.292 446.631 457.853C445.143 468.415 447.515 479.158 453.312 488.111C459.109 497.064 467.942 503.625 478.188 506.589C482.209 507.756 486.374 508.35 490.561 508.354H490.563C494.253 508.353 497.928 507.887 501.5 506.965C508.041 505.269 514.113 502.113 519.26 497.735C523.659 493.98 527.276 489.396 529.905 484.244C533.822 476.591 535.439 467.967 534.562 459.414C533.842 452.467 531.485 445.79 527.685 439.93C523.885 434.07 518.749 429.194 512.7 425.703C505.926 421.797 498.245 419.739 490.426 419.735L490.425 419.735Z" fill="#FFA412"/>
<path d="M512.892 468.454C512.792 468.204 512.686 467.96 512.577 467.724C511.86 466.062 510.811 464.564 509.495 463.32C508.092 462.045 506.44 461.073 504.643 460.466C502.651 459.802 500.577 459.413 498.479 459.307C496.211 459.167 493.743 459.136 491.075 459.211C489.665 459.266 488.253 459.238 486.847 459.126C485.829 459.053 484.827 458.834 483.871 458.475C483.113 458.187 482.433 457.726 481.885 457.129C481.347 456.513 480.92 455.808 480.622 455.046C480.299 454.269 480.105 453.444 480.048 452.604C479.995 451.821 480.119 451.036 480.409 450.307C480.728 449.541 481.212 448.856 481.826 448.299C482.586 447.618 483.464 447.083 484.418 446.722C486.4 445.916 488.25 445.934 489.969 446.774C491.687 447.615 493.086 449.365 494.165 452.026L504.518 447.823C503.716 445.771 502.57 443.87 501.129 442.203C499.859 440.732 498.306 439.531 496.563 438.671C494.82 437.811 492.922 437.31 490.981 437.197C488.878 437.065 486.767 437.281 484.733 437.836L481.801 430.616L476.071 432.942L478.961 440.062C477.029 441.038 475.256 442.3 473.701 443.806C472.329 445.138 471.207 446.703 470.385 448.429C469.617 450.065 469.201 451.844 469.166 453.652C469.195 457.681 470.814 461.537 473.67 464.38C475.069 465.654 476.72 466.621 478.515 467.218C480.511 467.871 482.586 468.248 484.684 468.337C487.157 468.46 489.634 468.457 492.106 468.328C493.451 468.238 494.801 468.247 496.144 468.355C497.158 468.431 498.154 468.653 499.104 469.014C499.892 469.321 500.6 469.801 501.176 470.421C501.773 471.099 502.245 471.879 502.57 472.722C502.895 473.5 503.063 474.334 503.064 475.177C503.064 475.988 502.874 476.788 502.511 477.514C502.108 478.306 501.548 479.008 500.867 479.578C500.035 480.269 499.096 480.821 498.087 481.209C497.114 481.605 496.092 481.87 495.049 481.999C494.017 482.127 492.97 482.022 491.984 481.692C490.921 481.318 489.962 480.698 489.185 479.882C488.194 478.82 487.424 477.572 486.919 476.21L476.568 480.413C477.461 482.787 478.849 484.945 480.64 486.742C482.164 488.232 483.994 489.374 486.003 490.087C487.961 490.761 490.028 491.06 492.096 490.965C494.224 490.879 496.332 490.531 498.374 489.928L501.047 496.516L506.742 494.204L504.054 487.585C505.991 486.604 507.78 485.356 509.369 483.876C510.667 482.671 511.751 481.255 512.577 479.688C512.639 479.567 512.7 479.446 512.757 479.323C513.537 477.699 513.962 475.928 514.006 474.127C514.033 472.179 513.654 470.247 512.892 468.454Z" fill="#FFA412"/>
<path d="M646.633 275.958C601.138 313.001 546.634 341.474 484.629 360.591C434.267 376.112 378.467 385.625 318.775 388.864C302.499 389.749 286.643 390.134 271.382 390.134C240.523 390.134 212.07 388.565 187.271 386.382L197.305 338.913C231.497 341.699 272.335 343.16 316.455 340.767C372.63 337.724 424.947 328.831 471.942 314.348C528.492 296.912 577.954 271.152 618.941 237.771L646.633 275.958Z" fill="#F77D48"/>
<path d="M307.422 181.3C303.205 179.112 299.406 178.706 296.026 180.081C276.67 177.807 271.022 200.382 271.285 208.15C271.548 215.919 272.434 224.261 263.789 234.352C247.143 253.784 256.251 263.929 291.116 264.786C291.557 241.497 319.475 249.993 318.251 252.354C354.039 260.943 321.809 188.763 307.422 181.3Z" fill="#163560"/>
<path d="M232.753 278.391C230.483 274.936 228.434 273.175 226.605 273.107C223.861 273.005 218.78 271.583 219.188 272.599C219.595 273.616 222.745 273.717 223.049 274.326C223.353 274.936 218.375 275.851 216.951 275.952C215.526 276.053 212.175 275.952 212.277 276.664C212.378 277.375 218.321 280.322 222.513 279.915C225.308 279.645 228.433 280.051 231.888 281.135L232.753 278.391Z" fill="#FFB27D"/>
<path d="M281.984 280.067C280.52 282.862 278.775 285.5 276.777 287.941C272.732 293.009 266.495 298.86 258.663 300.014C254.923 300.566 251.265 299.761 247.903 298.267C247.899 298.266 247.895 298.265 247.891 298.264C241.55 295.45 235.996 290.806 231.228 284.334C230.111 281.285 230.467 278.727 232.296 276.661C245.099 279.54 252.11 280.675 253.329 280.066C255.158 279.151 265.828 248.415 268.367 244.553C270.062 241.978 273.795 240.022 279.567 238.685L281.984 280.067Z" fill="#F99746"/>
<path d="M276.777 287.943C272.732 293.011 266.494 298.862 258.663 300.016C254.923 300.567 251.265 299.763 247.902 298.269C248.273 298.318 257.773 299.491 261.56 292.717C265.422 285.807 269.598 274.835 275.335 278.491C277.81 280.071 277.7 283.994 276.777 287.943Z" fill="#ED7D2B"/>
<path d="M353.633 487.374C357.54 490.94 359.112 493.989 358.349 496.521C357.206 500.321 351.918 502.854 351.203 507.498C350.489 512.143 347.63 514.676 345.057 514.676H332.792C331.528 512.498 332.421 511.08 335.47 510.423C340.044 509.437 341.768 503.98 341.483 498.914C341.311 494.968 341.454 491.015 341.911 487.092L351.631 484.84L353.633 487.374Z" fill="#36599E"/>
<path d="M304.034 489.643C305.439 504.746 305.284 512.72 303.569 513.565L270.645 513.498C270.645 510.964 272.407 509.416 275.933 508.853C281.221 508.009 290.511 504.913 292.085 498.017C293.132 493.419 297.115 490.628 304.034 489.643Z" fill="#2B478B"/>
<path d="M327.497 327.106C320.721 311.911 316.577 307.55 317.367 302.834C317.76 300.494 317.162 278.679 315.573 237.389C314.77 237.142 313.158 236.917 312.277 236.721C310.908 236.428 309.637 235.793 308.581 234.875C307.525 233.957 306.719 232.786 306.24 231.471C305.086 228.242 304.17 223.473 304.191 217.497L303.323 217.668L288.73 220.557C288.952 223.619 289.065 226.592 289.072 229.477C289.072 229.512 289.072 229.548 289.072 229.584C289.084 231.412 288.499 233.194 287.406 234.659C286.312 236.124 284.771 237.193 283.015 237.701C281.786 238.056 280.637 238.385 279.568 238.688C276.036 248.687 273.889 259.122 273.186 269.704C272.162 285.42 282.93 292.248 273.103 323.655C263.074 355.73 331.24 335.502 327.497 327.106Z" fill="#FFB27D"/>
<path d="M288.729 220.557C288.951 223.619 289.065 226.592 289.071 229.476C297.237 229.245 301.556 221.796 303.323 217.667L288.729 220.557Z" fill="#E8945B"/>
<path d="M286.003 224.652C298.884 224.864 305.328 220.959 305.337 212.935C305.35 200.9 307.854 192.835 295.518 192.123C283.182 191.411 280.78 196 279.799 200.016C278.818 204.032 280.977 224.261 286.003 224.652Z" fill="#FFB27D"/>
<path d="M286.717 191.831C290.244 201.244 294.713 206.646 300.125 208.038C305.537 209.43 309.417 209.401 311.765 207.95C307.614 204.652 305.107 200.125 304.246 194.368C295.221 188.196 289.378 187.35 286.717 191.831Z" fill="#163560"/>
<path d="M288.029 192.976C285.413 193.954 283.568 195.396 282.491 197.303C280.542 200.644 279.632 204.491 279.879 208.352C277.222 201.953 277.387 196.945 280.374 193.325C283.54 189.489 286.091 189.372 288.029 192.976Z" fill="#163560"/>
<path d="M290.207 217.187C289.318 218.357 287.985 218.9 286.207 218.815C285.57 218.824 284.946 218.642 284.415 218.291C283.884 217.94 283.471 217.438 283.229 216.849C285.86 216.217 288.186 216.33 290.207 217.187Z" fill="#EBF3FA"/>
<path d="M329.362 264.785C329.689 269.853 329.689 274.936 329.362 280.004C329.035 285.506 323.469 292.876 322.679 294.699C321.359 297.748 319.953 299.52 318.464 300.015L301.176 304.251L295.098 305.739L275.93 300.015C270.109 283.769 268.367 271.073 270.705 261.928C273.042 252.782 275.996 245.035 279.566 238.684C289.994 248.894 301.996 248.461 315.574 237.386L329.362 264.785Z" fill="#F99746"/>
<path d="M277.149 303.715C270.821 323.413 267.453 336.615 267.047 343.321C266.437 353.381 285.193 486.227 285.947 490.862C286.421 493.774 288.467 496.159 292.084 498.016C293.748 498.998 295.767 499.153 298.141 498.483C301.435 497.553 303.603 496.531 304.644 495.418C309.57 432.254 310.508 389.39 307.46 366.827C304.412 344.264 302.87 323.227 302.834 303.715H277.149Z" fill="#233862"/>
<path d="M317.367 302.834C327.02 315.786 332.296 326.64 333.196 335.395C334.546 348.528 335.314 394.66 338.19 407.462C341.065 420.265 351.632 444.904 351.632 484.838C350.899 486.364 349.402 487.533 347.141 488.346C345.846 488.782 344.528 489.147 343.192 489.438C341.833 489.748 340.409 489.591 339.15 488.993C337.89 488.395 336.869 487.391 336.25 486.141C329.106 471.758 306.351 425.369 305.184 415.74C304.36 408.925 297.173 363.822 281.501 337.359C278.993 333.124 279.762 322.583 283.809 305.739L317.367 302.834Z" fill="#2B478B"/>
<path d="M289.778 217.509C289.555 218.455 288.268 218.854 285.915 218.709C283.94 218.587 282.983 218.006 283.044 216.967C284.958 216.228 287.203 216.408 289.778 217.509Z" fill="white"/>
<path d="M275.632 299.153C278.173 301.163 281.967 302.218 287.014 302.32C293.042 302.441 303.525 301.673 318.463 300.015C319.123 301.848 319.446 303.785 319.418 305.733C301.174 310.335 286.766 310.671 276.194 306.742C274.831 304.176 274.643 301.647 275.632 299.153Z" fill="#233862"/>
<path d="M284.845 310.111C282.571 310.111 280.721 308.016 280.721 305.442C280.721 302.868 282.571 300.774 284.845 300.774C285.401 300.779 285.949 300.904 286.452 301.14C286.956 301.376 287.402 301.717 287.762 302.141C288.554 303.057 288.983 304.231 288.97 305.442C288.97 308.017 287.119 310.111 284.845 310.111ZM284.845 302.142C283.323 302.142 282.085 303.622 282.085 305.442C282.085 307.262 283.323 308.743 284.845 308.743C286.368 308.743 287.606 307.262 287.606 305.442C287.606 303.622 286.367 302.142 284.845 302.142Z" fill="white"/>
<path d="M347.922 304.499L319.886 328.913L286.469 290.534L314.506 266.121L347.922 304.499Z" fill="#B5453C"/>
<path d="M312.139 304.589C305.291 305.39 301.878 306.603 301.9 308.229C301.931 310.667 304.459 315.677 305.728 315.9C306.574 316.048 309.36 313.79 314.088 309.125L312.139 304.589Z" fill="#FFB27D"/>
<path d="M315.573 237.387C324.717 238.028 331.041 242.609 334.546 251.129C339.803 263.909 349.779 285.367 349.779 288.977C349.779 292.587 344.207 303.715 314.282 310.113C312.218 307.943 311.249 305.999 311.375 304.282C323.828 293.586 330.038 287.613 330.004 286.363C329.909 282.815 326.942 278.133 310.541 261.727C307.569 258.754 309.246 250.64 315.573 237.387Z" fill="#F99746"/>
<path d="M18.8989 514.645H18.7612C18.5717 514.645 18.384 514.607 18.2093 514.533C18.0346 514.46 17.8764 514.352 17.7439 514.216C17.6114 514.081 17.5074 513.92 17.4379 513.744C17.3684 513.567 17.3349 513.379 17.3392 513.189L19.4959 419.71L25.8489 418.969L20.4313 513.195C20.4089 513.587 20.2377 513.955 19.9529 514.224C19.668 514.494 19.2909 514.644 18.8989 514.645Z" fill="#95C0F4"/>
<path d="M121.058 514.645H121.194C121.383 514.645 121.571 514.607 121.745 514.533C121.92 514.46 122.078 514.352 122.211 514.216C122.343 514.081 122.447 513.92 122.517 513.744C122.586 513.567 122.62 513.379 122.616 513.189L120.459 419.71L114.105 418.969L119.523 513.195C119.546 513.587 119.717 513.956 120.003 514.225C120.288 514.495 120.666 514.645 121.058 514.645Z" fill="#B0D4FF"/>
<path d="M14.6895 413.913V349.857C14.6895 344.444 16.8396 339.253 20.6668 335.426C24.494 331.599 29.6848 329.448 35.0974 329.448H81.2492C86.6618 329.448 91.8526 331.599 95.6798 335.426C99.507 339.253 101.657 344.444 101.657 349.857V416.361L14.6895 413.913Z" fill="#B0D4FF"/>
<path d="M109.926 424.025H20.817C19.1919 424.025 17.6334 423.38 16.4843 422.231C15.3352 421.082 14.6896 419.523 14.6895 417.898V413.913H109.926L109.926 424.025Z" fill="#95C0F4"/>
<path d="M120.604 424.026H53.1898C51.9877 424.026 50.8348 423.548 49.9848 422.698C49.1348 421.848 48.6572 420.695 48.6572 419.493V418.443C48.6572 417.241 49.1348 416.088 49.9848 415.238C50.8348 414.388 51.9877 413.91 53.1898 413.91H120.604C121.806 413.91 122.959 414.388 123.809 415.238C124.659 416.088 125.136 417.241 125.136 418.443V419.493C125.136 420.695 124.659 421.848 123.809 422.698C122.959 423.548 121.806 424.026 120.604 424.026Z" fill="#B0D4FF"/>
<path d="M117.987 397.952C113.579 405.623 108.603 410.939 103.059 413.901H68.4639C104.841 397.416 121.349 392.099 117.987 397.952Z" fill="#233862"/>
<path d="M91.4164 486.983C91.0026 487.438 90.7287 488.002 90.6275 488.609C90.5264 489.216 90.6023 489.838 90.8461 490.403C90.8468 490.41 90.8497 490.416 90.8544 490.42C91.6785 492.7 94.4054 495.247 97.5708 497.789C97.9758 498.117 98.3355 498.413 98.6487 498.689C98.7311 498.761 98.8135 498.833 98.891 498.905C98.9544 498.961 99.0146 499.019 99.0776 499.073C102.03 501.795 100.919 502.419 106.224 507.942C112.273 514.235 116.437 514.349 117.621 513.776C118.624 513.287 116.588 509.949 114.331 506.197C114.222 506.017 114.115 505.833 114.002 505.65C113.701 505.151 113.403 504.645 113.104 504.144C110.46 499.629 111.139 497.51 111.766 490.791C112.105 487.15 114.937 476.982 120.261 460.285L108.669 458.288C106.342 471.583 103.896 479.255 101.332 481.303C99.2758 482.94 96.9733 482.961 94.9967 484.174C94.8566 484.259 94.7192 484.345 94.5846 484.434C93.4192 485.138 92.3536 485.995 91.4164 486.983Z" fill="#FFB27D"/>
<path d="M91.4164 486.983C91.0026 487.438 90.7287 488.002 90.6275 488.609C90.5264 489.216 90.6023 489.838 90.8461 490.403C90.8468 490.41 90.8497 490.416 90.8544 490.42C91.8647 492.698 94.5216 495.232 97.5831 497.766C97.9828 498.098 98.3359 498.403 98.6499 498.688C98.7323 498.76 98.8147 498.833 98.8922 498.905C98.9556 498.961 99.0158 499.019 99.0788 499.073C102.031 501.795 100.92 502.418 106.225 507.942C112.274 514.235 116.438 514.349 117.623 513.776C118.626 513.286 116.589 509.948 114.332 506.197C110.101 504.544 106.382 501.804 103.55 498.252C99.9079 493.604 97.4793 487.632 94.9992 484.173C94.8591 484.257 94.7217 484.344 94.5871 484.433C93.4208 485.137 92.3543 485.995 91.4164 486.983Z" fill="#233862"/>
<path d="M184.885 479.744C185.6 483.322 190.701 482.725 196.399 481.333C202.097 479.941 200.743 481.596 208.853 480.698C216.962 479.8 219.419 476.776 219.666 475.571C219.888 474.499 215.881 474.124 211.582 473.628C211.042 473.568 210.499 473.501 209.956 473.434C205.104 472.825 201.551 469.694 197.142 467.122C194.358 465.498 190.89 461.378 186.736 454.761L175.614 455.641C179.505 461.551 182.203 465.791 183.708 468.36C185.036 470.626 184.966 473.624 184.8 475.939C184.658 477.206 184.687 478.485 184.885 479.744Z" fill="#FFB27D"/>
<path d="M196.399 481.333C202.097 479.94 200.743 481.596 208.853 480.698C216.963 479.8 219.419 476.776 219.666 475.57C219.888 474.499 215.881 474.123 211.582 473.628L211.541 473.71C208.3 476.009 204.428 477.213 199.927 477.321C194.426 477.454 188.596 475.879 184.798 475.939C184.657 477.205 184.686 478.485 184.884 479.744C185.6 483.322 190.701 482.725 196.399 481.333Z" fill="#233862"/>
<path d="M142.263 408.628L131.866 436.606L118.293 473.136C115.869 473.375 113.422 473.151 111.082 472.476C108.601 471.699 106.25 470.554 104.107 469.081C106.62 442.933 110.22 422.354 114.907 407.344C116.709 401.565 118.728 396.891 120.957 394.259C128.223 385.671 135.325 390.461 142.263 408.628Z" fill="#233862"/>
<path d="M131.692 364.198C124.881 362.001 105.454 364.822 85.9388 368.642L81.853 361.903L39.7004 358.611C30.4274 379.175 28.3293 396.008 33.406 409.111C34.5255 412 36.7494 413.852 40.5406 413.913C40.5406 413.915 41.1546 413.913 41.1587 413.913C57.8837 413.903 68.9616 413.899 74.3924 413.899C95.3549 413.899 118.756 399.489 121.783 398.884C126.739 397.893 128.721 407.803 133.676 418.209C136.979 425.145 152.505 440.506 180.252 464.29C184.517 464.332 187.531 464.023 189.293 463.363C191.188 462.652 192.482 461.835 193.174 460.912C162.427 399.74 141.933 367.501 131.692 364.198Z" fill="#2B478B"/>
<path d="M80.1949 239.165C74.7946 236.329 66.5792 235.946 65.2441 235.766C49.2715 233.619 39.658 256.83 39.0927 263.863C38.0506 276.825 31.1929 278.802 21.5394 286.92C2.18554 303.196 7.85944 322.114 18.4437 329.142C22.6765 331.953 28.5237 331.953 35.985 329.142C36.1437 329.252 66.5936 312.119 81.6041 303.855C104.108 300.655 93.9548 246.39 80.1949 239.165Z" fill="#B5453C"/>
<path d="M69.024 296.819C69.0903 296.86 61.6392 299.405 56.6568 297.199C51.9693 295.128 48.4187 287.416 48.4883 287.412C50.6207 287.313 52.9611 285.449 54.7642 273.217L55.6707 273.543L70.9367 279.036C70.1994 282.302 69.5922 285.489 69.115 288.598C68.5143 292.514 68.1904 296.266 69.024 296.819Z" fill="#FFB27D"/>
<path d="M70.9388 279.036C70.2015 282.301 69.5943 285.489 69.1171 288.598C60.3488 287.02 56.9073 278.284 55.6729 273.543L70.9388 279.036Z" fill="#ED975D"/>
<path d="M73.212 283.898C59.2875 282.03 52.9739 276.769 54.2713 268.114C56.217 255.135 54.8317 246.028 68.2501 247.271C81.6684 248.514 83.5103 253.853 83.9149 258.343C84.3195 262.833 78.6951 284.293 73.212 283.898Z" fill="#FFB27D"/>
<path d="M83.1539 251.229C74.2402 258.911 66.7518 263.061 60.6886 263.68C54.6255 264.3 50.446 263.636 48.1504 261.691C51.7245 258.724 54.5867 254.846 56.7371 250.057C57.2002 249.016 57.9331 248.117 58.86 247.455C59.7868 246.792 60.8739 246.389 62.0088 246.287C68.5035 245.725 80.8143 245.47 83.1539 251.229Z" fill="#B5453C"/>
<path d="M74.7949 250.196C77.7773 253.081 79.7378 255.592 80.6765 257.729C82.0362 260.825 82.4438 268.228 81.3613 271.169C86.0073 262.135 87.0152 255.423 84.3849 251.034C81.5959 246.379 78.3992 246.1 74.7949 250.196Z" fill="#B5453C"/>
<path d="M86.6124 327.586C85.9808 369.866 86.4385 361.031 81.8137 365.041C80.6991 366.007 77.5663 366.583 73.443 366.854C60.4787 367.715 37.6887 365.577 36.8222 363.183C33.8316 354.893 35.9429 352.318 33.4479 339.626C33.1879 338.276 32.8661 336.815 32.4883 335.224C30.4083 326.506 28.3835 323.541 35.7632 309.536C42.4561 296.85 49.4086 286.554 50.0341 286.926C61.8058 293.914 68.1664 294.471 69.1161 288.597C80.9866 300.842 86.8187 313.838 86.6124 327.586Z" fill="#8C9DF4"/>
<path d="M131.866 436.605L118.293 473.135C115.869 473.374 113.422 473.15 111.082 472.475C108.601 471.698 106.25 470.553 104.107 469.08C106.62 442.932 110.22 422.353 114.907 407.343L131.866 436.605Z" fill="#2B478B"/>
<path d="M69.1172 288.598C81.2297 290.652 87.9972 294.286 89.4196 299.501C90.842 304.716 95.7382 322.653 104.108 353.312C97.9507 354.418 93.4496 353.549 90.6051 350.704C87.7606 347.86 82.8116 334.664 75.7582 311.117L69.1172 288.598Z" fill="#8C9DF4"/>
<path d="M73.4433 366.858C60.479 367.718 37.689 365.58 36.8225 363.186C33.8319 354.896 35.9432 352.321 33.4482 339.629L39.7015 322.019C39.012 335.091 40.5948 343.346 44.4499 346.783C50.2264 351.941 68.1254 356.739 70.9356 361.048C72.2916 363.118 73.1837 365.193 73.4433 366.858Z" fill="#6980E2"/>
<path d="M58.5898 358.609C67.1165 356.71 72.0678 356.14 73.4438 356.896C75.5073 358.031 80.5512 362.165 81.1824 363.604C81.8137 365.043 76.5885 362.511 74.8884 362.056C73.7874 361.76 70.8895 362.767 69.4551 363.246C65.4311 364.587 62.1859 364.913 59.7197 364.223L58.5898 358.609Z" fill="#FFB27D"/>
<path d="M50.0236 286.92C38.5744 287.625 30.8682 290.742 26.9048 296.27C18.5361 307.942 1.9347 357.687 11.4489 364.322C18.591 369.303 34.8466 369.954 60.2156 366.276C61.0597 362.33 60.8949 359.403 59.7211 357.494C57.9596 354.631 29.3289 350.006 28.0074 348.685C26.686 347.364 44.5252 322.918 44.5252 318.954C44.5244 316.311 46.3572 305.633 50.0236 286.92Z" fill="#8C9DF4"/>
<path d="M74.0625 360.458C75.848 362.763 77.0342 364.053 77.6209 364.328C78.0606 364.574 78.5646 364.682 79.0668 364.637L77.2608 361.387L74.0625 360.458Z" fill="#FFB27D"/>
<path d="M73.4434 356.898L81.2352 360.682C81.0154 361.044 80.5851 361.21 79.9442 361.181C79.3034 361.152 78.1771 360.842 76.5654 360.252L73.4434 356.898Z" fill="#FFB27D"/>
<path d="M74.8027 369.623H140.538L160.313 323.518H94.6783L74.8027 369.623Z" fill="#F77D48"/>
<path d="M141.308 366.635H54.5039V369.548H140.54L141.308 366.635Z" fill="#F77D48"/>
<path d="M123.945 346.57C124.439 344.949 123.441 343.636 121.712 343.636C120.825 343.667 119.967 343.963 119.249 344.486C118.531 345.009 117.987 345.735 117.685 346.57C117.191 348.191 118.189 349.505 119.918 349.505C120.805 349.474 121.663 349.178 122.381 348.655C123.098 348.132 123.643 347.406 123.945 346.57Z" fill="#EBF3FA"/>
<path d="M237.736 515.929H237.915C238.179 515.915 238.437 515.849 238.674 515.734C238.912 515.619 239.125 515.458 239.3 515.261C239.475 515.063 239.609 514.833 239.694 514.583C239.779 514.333 239.814 514.069 239.796 513.805L236.942 377.413L228.54 376.331L235.706 513.816C235.709 514.361 235.922 514.884 236.3 515.277C236.677 515.67 237.191 515.903 237.736 515.929Z" fill="#233862"/>
<path d="M60.6318 515.929H60.4526C60.189 515.915 59.9309 515.849 59.6932 515.734C59.4555 515.619 59.2429 515.459 59.0679 515.261C58.8929 515.063 58.759 514.833 58.6738 514.583C58.5887 514.333 58.5541 514.069 58.572 513.806L61.4242 377.412L69.8262 376.331L62.6611 513.816C62.6572 514.361 62.4447 514.884 62.0672 515.277C61.6898 515.67 61.1761 515.903 60.6318 515.929Z" fill="#233862"/>
<path d="M241.044 379.383H49.6553C49.2532 379.383 48.855 379.304 48.4836 379.15C48.1121 378.996 47.7746 378.77 47.4903 378.486C47.206 378.202 46.9805 377.864 46.8267 377.493C46.6729 377.121 46.5937 376.723 46.5938 376.321V372.684C46.5937 372.282 46.6729 371.884 46.8267 371.513C46.9805 371.141 47.206 370.804 47.4903 370.519C47.7746 370.235 48.1121 370.01 48.4836 369.856C48.855 369.702 49.2532 369.623 49.6553 369.623H241.044C241.446 369.623 241.844 369.702 242.215 369.856C242.587 370.01 242.924 370.235 243.209 370.519C243.493 370.804 243.718 371.141 243.872 371.513C244.026 371.884 244.105 372.282 244.105 372.684V376.321C244.105 376.723 244.026 377.121 243.872 377.493C243.718 377.864 243.493 378.202 243.209 378.486C242.924 378.77 242.587 378.996 242.215 379.15C241.844 379.304 241.446 379.383 241.044 379.383Z" fill="#233862"/>
<path d="M803.32 518.135H1.15587C0.849577 518.134 0.556064 517.971 0.339478 517.681C0.122891 517.391 0.00084079 516.998 0 516.588V515.09C0.000924411 514.68 0.123002 514.288 0.33957 513.998C0.556138 513.708 0.849602 513.545 1.15587 513.543H803.32C803.626 513.545 803.919 513.708 804.136 513.998C804.353 514.288 804.475 514.68 804.476 515.09V516.588C804.475 516.998 804.353 517.391 804.136 517.681C803.92 517.971 803.626 518.134 803.32 518.135Z" fill="#2E3552"/>
</svg>
