<svg width="33" height="59" viewBox="0 0 33 59" fill="none" xmlns="http://www.w3.org/2000/svg">
<path fill-rule="evenodd" clip-rule="evenodd" d="M1.61691 57.6963C1.41028 57.4902 1.24635 57.2454 1.1345 56.9758C1.02264 56.7062 0.965069 56.4173 0.965069 56.1254C0.965069 55.8336 1.02264 55.5446 1.1345 55.2751C1.24635 55.0055 1.41028 54.7607 1.61691 54.5546L26.6755 29.5004L1.61691 4.4463C1.20029 4.02968 0.966237 3.46462 0.966237 2.87543C0.966237 2.28623 1.20029 1.72117 1.61691 1.30455C2.03354 0.887929 2.5986 0.653875 3.18779 0.653875C3.77698 0.653875 4.34204 0.887929 4.75866 1.30455L31.3837 27.9296C31.5903 28.1357 31.7542 28.3805 31.8661 28.6501C31.9779 28.9196 32.0355 29.2086 32.0355 29.5004C32.0355 29.7923 31.9779 30.0812 31.8661 30.3508C31.7542 30.6204 31.5903 30.8652 31.3837 31.0713L4.75866 57.6963C4.55256 57.9029 4.30771 58.0669 4.03816 58.1787C3.7686 58.2906 3.47963 58.3481 3.18778 58.3481C2.89594 58.3481 2.60697 58.2906 2.33741 58.1787C2.06786 58.0669 1.82301 57.9029 1.61691 57.6963Z" fill="#DADADA"/>
</svg>
