<svg width="33" height="59" viewBox="0 0 33 59" fill="none" xmlns="http://www.w3.org/2000/svg">
<path fill-rule="evenodd" clip-rule="evenodd" d="M31.3831 1.3037C31.5897 1.5098 31.7536 1.75464 31.8655 2.0242C31.9773 2.29375 32.0349 2.58273 32.0349 2.87457C32.0349 3.16641 31.9773 3.45539 31.8655 3.72495C31.7536 3.9945 31.5897 4.23934 31.3831 4.44545L6.3245 29.4996L31.3831 54.5537C31.7997 54.9703 32.0337 55.5354 32.0337 56.1246C32.0337 56.7138 31.7997 57.2788 31.3831 57.6954C30.9664 58.1121 30.4014 58.3461 29.8122 58.3461C29.223 58.3461 28.6579 58.1121 28.2413 57.6954L1.61632 31.0704C1.40969 30.8643 1.24576 30.6195 1.1339 30.3499C1.02205 30.0804 0.964478 29.7914 0.964478 29.4996C0.964478 29.2077 1.02205 28.9188 1.1339 28.6492C1.24576 28.3796 1.40969 28.1348 1.61632 27.9287L28.2413 1.3037C28.4474 1.09707 28.6923 0.933139 28.9618 0.821285C29.2314 0.709431 29.5204 0.651855 29.8122 0.651855C30.104 0.651855 30.393 0.709431 30.6626 0.821285C30.9321 0.933139 31.177 1.09707 31.3831 1.3037Z" fill="#DADADA"/>
</svg>
