<svg width="10" height="10" viewBox="0 0 10 10" fill="none" xmlns="http://www.w3.org/2000/svg">
<path d="M5.59821 8.57143C5.59821 8.5 5.5625 8.41964 5.50893 8.36607L2 4.85714L5.50893 1.34821C5.5625 1.29464 5.59821 1.21428 5.59821 1.14286C5.59821 1.07143 5.5625 0.991071 5.50893 0.9375L5.0625 0.491071C5.00893 0.4375 4.92857 0.401785 4.85714 0.401785C4.78571 0.401785 4.70536 0.4375 4.65179 0.491071L0.491071 4.65179C0.4375 4.70536 0.401786 4.78571 0.401786 4.85714C0.401786 4.92857 0.4375 5.00893 0.491071 5.0625L4.65179 9.22321C4.70536 9.27679 4.78571 9.3125 4.85714 9.3125C4.92857 9.3125 5.00893 9.27679 5.0625 9.22321L5.50893 8.77679C5.5625 8.72321 5.59821 8.64286 5.59821 8.57143ZM9.02679 8.57143C9.02679 8.5 8.99107 8.41964 8.9375 8.36607L5.42857 4.85714L8.9375 1.34821C8.99107 1.29464 9.02679 1.21428 9.02679 1.14286C9.02679 1.07143 8.99107 0.991071 8.9375 0.9375L8.49107 0.491071C8.4375 0.4375 8.35714 0.401785 8.28572 0.401785C8.21429 0.401785 8.13393 0.4375 8.08036 0.491071L3.91964 4.65179C3.86607 4.70536 3.83036 4.78571 3.83036 4.85714C3.83036 4.92857 3.86607 5.00893 3.91964 5.0625L8.08036 9.22321C8.13393 9.27679 8.21429 9.3125 8.28572 9.3125C8.35714 9.3125 8.4375 9.27679 8.49107 9.22321L8.9375 8.77679C8.99107 8.72321 9.02679 8.64286 9.02679 8.57143Z" fill="#00A679"/>
</svg>
