<svg width="9" height="10" viewBox="0 0 9 10" fill="none" xmlns="http://www.w3.org/2000/svg">
<path d="M5.3125 4.85714C5.3125 4.78571 5.27679 4.70536 5.22321 4.65179L1.0625 0.491071C1.00893 0.4375 0.928571 0.401785 0.857143 0.401785C0.785714 0.401785 0.705357 0.4375 0.651786 0.491071L0.205357 0.9375C0.151786 0.991071 0.116071 1.07143 0.116071 1.14286C0.116071 1.21428 0.151786 1.29464 0.205357 1.34821L3.71429 4.85714L0.205357 8.36607C0.151786 8.41964 0.116071 8.5 0.116071 8.57143C0.116071 8.64286 0.151786 8.72321 0.205357 8.77679L0.651786 9.22321C0.705357 9.27679 0.785714 9.3125 0.857143 9.3125C0.928571 9.3125 1.00893 9.27679 1.0625 9.22321L5.22321 5.0625C5.27679 5.00893 5.3125 4.92857 5.3125 4.85714ZM8.74107 4.85714C8.74107 4.78571 8.70536 4.70536 8.65179 4.65179L4.49107 0.491071C4.4375 0.4375 4.35714 0.401785 4.28571 0.401785C4.21429 0.401785 4.13393 0.4375 4.08036 0.491071L3.63393 0.9375C3.58036 0.991071 3.54464 1.07143 3.54464 1.14286C3.54464 1.21428 3.58036 1.29464 3.63393 1.34821L7.14286 4.85714L3.63393 8.36607C3.58036 8.41964 3.54464 8.5 3.54464 8.57143C3.54464 8.64286 3.58036 8.72321 3.63393 8.77679L4.08036 9.22321C4.13393 9.27679 4.21429 9.3125 4.28571 9.3125C4.35714 9.3125 4.4375 9.27679 4.49107 9.22321L8.65179 5.0625C8.70536 5.00893 8.74107 4.92857 8.74107 4.85714Z" fill="#00A679"/>
</svg>
