<svg width="24" height="24" viewBox="0 0 24 24" fill="none" xmlns="http://www.w3.org/2000/svg">
<g clip-path="url(#clip0)">
<path d="M17.6134 15.5154C19.0658 13.5334 19.7163 11.0762 19.4348 8.63514C19.1533 6.19413 17.9605 3.94943 16.095 2.35011C14.2295 0.7508 11.829 -0.0851763 9.37362 0.00943339C6.91825 0.104043 4.58915 1.12226 2.85227 2.86038C1.1154 4.5985 0.098846 6.92833 0.00599324 9.38377C-0.0868595 11.8392 0.750834 14.2392 2.35148 16.1035C3.95213 17.9678 6.19769 19.159 8.6389 19.4388C11.0801 19.7186 13.5369 19.0663 15.5179 17.6124H15.5164C15.5614 17.6724 15.6094 17.7294 15.6634 17.7849L21.4384 23.5599C21.7196 23.8414 22.1012 23.9996 22.4991 23.9997C22.897 23.9999 23.2787 23.8419 23.5601 23.5607C23.8416 23.2794 23.9998 22.8979 23.9999 22.4999C24.0001 22.102 23.8421 21.7204 23.5609 21.4389L17.7859 15.6639C17.7322 15.6096 17.6746 15.5595 17.6134 15.5139V15.5154ZM18.0004 9.74942C18.0004 10.8328 17.787 11.9056 17.3724 12.9066C16.9578 13.9075 16.3501 14.817 15.584 15.583C14.8179 16.3491 13.9084 16.9568 12.9075 17.3714C11.9066 17.786 10.8338 17.9994 9.75037 17.9994C8.66696 17.9994 7.59417 17.786 6.59323 17.3714C5.5923 16.9568 4.68282 16.3491 3.91674 15.583C3.15066 14.817 2.54297 13.9075 2.12836 12.9066C1.71376 11.9056 1.50037 10.8328 1.50037 9.74942C1.50037 7.56138 2.36956 5.46296 3.91674 3.91579C5.46391 2.36861 7.56233 1.49942 9.75037 1.49942C11.9384 1.49942 14.0368 2.36861 15.584 3.91579C17.1312 5.46296 18.0004 7.56138 18.0004 9.74942Z" fill="black"/>
</g>
<defs>
<clipPath id="clip0">
<rect width="24" height="24" fill="white"/>
</clipPath>
</defs>
</svg>
