<svg width="16" height="12" viewBox="0 0 16 12" fill="none" xmlns="http://www.w3.org/2000/svg">
<path d="M0 2.00037C0 1.46993 0.210714 0.961225 0.585786 0.586153C0.960859 0.21108 1.46957 0.000366211 2 0.000366211H14C14.5304 0.000366211 15.0391 0.21108 15.4142 0.586153C15.7893 0.961225 16 1.46993 16 2.00037V10.0004C16 10.5308 15.7893 11.0395 15.4142 11.4146C15.0391 11.7897 14.5304 12.0004 14 12.0004H2C1.46957 12.0004 0.960859 11.7897 0.585786 11.4146C0.210714 11.0395 0 10.5308 0 10.0004V2.00037ZM2 1.00037C1.73478 1.00037 1.48043 1.10572 1.29289 1.29326C1.10536 1.4808 1 1.73515 1 2.00037V2.21737L8 6.41737L15 2.21737V2.00037C15 1.73515 14.8946 1.4808 14.7071 1.29326C14.5196 1.10572 14.2652 1.00037 14 1.00037H2ZM15 3.38337L10.242 6.23837L15 9.11437V3.38437V3.38337ZM14.966 10.2614L9.271 6.82037L8 7.58337L6.728 6.82037L1.034 10.2604C1.0912 10.4728 1.21685 10.6604 1.39149 10.7942C1.56613 10.928 1.78001 11.0005 2 11.0004H14C14.2199 11.0005 14.4336 10.9282 14.6083 10.7946C14.7829 10.661 14.9086 10.4736 14.966 10.2614ZM1 9.11437L5.758 6.23837L1 3.38337V9.11337V9.11437Z" fill="#00A679"/>
</svg>
