<svg width="16" height="16" viewBox="0 0 16 16" fill="none" xmlns="http://www.w3.org/2000/svg">
<g clip-path="url(#clip0)">
<path d="M12.166 8.94049C11.642 10.0025 10.932 11.0605 10.206 12.0105C9.5173 12.9061 8.7809 13.764 8 14.5805C7.21908 13.764 6.48268 12.9061 5.794 12.0105C5.068 11.0605 4.358 10.0025 3.834 8.94049C3.304 7.86749 3 6.86249 3 6.00049C3 4.67441 3.52678 3.40264 4.46447 2.46495C5.40215 1.52727 6.67392 1.00049 8 1.00049C9.32608 1.00049 10.5979 1.52727 11.5355 2.46495C12.4732 3.40264 13 4.67441 13 6.00049C13 6.86249 12.695 7.86749 12.166 8.94049ZM8 16.0005C8 16.0005 14 10.3145 14 6.00049C14 4.40919 13.3679 2.88307 12.2426 1.75785C11.1174 0.632629 9.5913 0.000488281 8 0.000488281C6.4087 0.000488281 4.88258 0.632629 3.75736 1.75785C2.63214 2.88307 2 4.40919 2 6.00049C2 10.3145 8 16.0005 8 16.0005Z" fill="#00A679"/>
<path d="M8 8.00049C7.46957 8.00049 6.96086 7.78977 6.58579 7.4147C6.21071 7.03963 6 6.53092 6 6.00049C6 5.47006 6.21071 4.96135 6.58579 4.58627C6.96086 4.2112 7.46957 4.00049 8 4.00049C8.53043 4.00049 9.03914 4.2112 9.41421 4.58627C9.78929 4.96135 10 5.47006 10 6.00049C10 6.53092 9.78929 7.03963 9.41421 7.4147C9.03914 7.78977 8.53043 8.00049 8 8.00049ZM8 9.00049C8.79565 9.00049 9.55871 8.68442 10.1213 8.12181C10.6839 7.5592 11 6.79614 11 6.00049C11 5.20484 10.6839 4.44178 10.1213 3.87917C9.55871 3.31656 8.79565 3.00049 8 3.00049C7.20435 3.00049 6.44129 3.31656 5.87868 3.87917C5.31607 4.44178 5 5.20484 5 6.00049C5 6.79614 5.31607 7.5592 5.87868 8.12181C6.44129 8.68442 7.20435 9.00049 8 9.00049Z" fill="#00A679"/>
</g>
<defs>
<clipPath id="clip0">
<rect width="16" height="16" fill="white" transform="translate(0 0.000488281)"/>
</clipPath>
</defs>
</svg>
