<svg width="16" height="16" viewBox="0 0 16 16" fill="none" xmlns="http://www.w3.org/2000/svg">
<g clip-path="url(#clip0)">
<path d="M12.166 8.94037C11.642 10.0024 10.932 11.0604 10.206 12.0104C9.5173 12.906 8.7809 13.7639 8 14.5804C7.21908 13.7639 6.48268 12.906 5.794 12.0104C5.068 11.0604 4.358 10.0024 3.834 8.94037C3.304 7.86737 3 6.86237 3 6.00037C3 4.67428 3.52678 3.40251 4.46447 2.46483C5.40215 1.52715 6.67392 1.00037 8 1.00037C9.32608 1.00037 10.5979 1.52715 11.5355 2.46483C12.4732 3.40251 13 4.67428 13 6.00037C13 6.86237 12.695 7.86737 12.166 8.94037ZM8 16.0004C8 16.0004 14 10.3144 14 6.00037C14 4.40907 13.3679 2.88294 12.2426 1.75773C11.1174 0.632507 9.5913 0.000366211 8 0.000366211C6.4087 0.000366211 4.88258 0.632507 3.75736 1.75773C2.63214 2.88294 2 4.40907 2 6.00037C2 10.3144 8 16.0004 8 16.0004Z" fill="#00A679"/>
<path d="M8 8.00037C7.46957 8.00037 6.96086 7.78965 6.58579 7.41458C6.21071 7.03951 6 6.5308 6 6.00037C6 5.46993 6.21071 4.96123 6.58579 4.58615C6.96086 4.21108 7.46957 4.00037 8 4.00037C8.53043 4.00037 9.03914 4.21108 9.41421 4.58615C9.78929 4.96123 10 5.46993 10 6.00037C10 6.5308 9.78929 7.03951 9.41421 7.41458C9.03914 7.78965 8.53043 8.00037 8 8.00037ZM8 9.00037C8.79565 9.00037 9.55871 8.6843 10.1213 8.12169C10.6839 7.55908 11 6.79602 11 6.00037C11 5.20472 10.6839 4.44166 10.1213 3.87905C9.55871 3.31644 8.79565 3.00037 8 3.00037C7.20435 3.00037 6.44129 3.31644 5.87868 3.87905C5.31607 4.44166 5 5.20472 5 6.00037C5 6.79602 5.31607 7.55908 5.87868 8.12169C6.44129 8.6843 7.20435 9.00037 8 9.00037Z" fill="#00A679"/>
</g>
<defs>
<clipPath id="clip0">
<rect width="16" height="16" fill="white" transform="translate(0 0.000366211)"/>
</clipPath>
</defs>
</svg>
