<svg width="36" height="33" viewBox="0 0 36 33" fill="none" xmlns="http://www.w3.org/2000/svg">
<path d="M5.713 32.956H29.625C33.393 32.956 35.356 31.011 35.356 27.295V6.161C35.356 2.445 33.394 0.5 29.625 0.5H5.713C1.962 0.5 0 2.428 0 6.161V27.294C0 31.011 1.962 32.956 5.713 32.956ZM5.696 29.5C5.38969 29.5379 5.07876 29.5049 4.78727 29.4034C4.49577 29.302 4.23153 29.1348 4.01498 28.9149C3.79843 28.695 3.63539 28.4282 3.53846 28.1351C3.44153 27.8421 3.41331 27.5307 3.456 27.225V11.246C3.41331 10.9403 3.44153 10.6289 3.53846 10.3359C3.63539 10.0428 3.79843 9.77604 4.01498 9.55611C4.23153 9.33618 4.49577 9.16902 4.78727 9.06756C5.07876 8.9661 5.38969 8.93306 5.696 8.971H29.647C29.9533 8.93306 30.2642 8.9661 30.5557 9.06756C30.8472 9.16902 31.1115 9.33618 31.328 9.55611C31.5446 9.77604 31.7076 10.0428 31.8045 10.3359C31.9015 10.6289 31.9297 10.9403 31.887 11.246V27.225C31.9297 27.5307 31.9015 27.8421 31.8045 28.1351C31.7076 28.4282 31.5446 28.695 31.328 28.9149C31.1115 29.1348 30.8472 29.302 30.5557 29.4034C30.2642 29.5049 29.9533 29.5379 29.647 29.5H5.696ZM8.665 15.208H26.707C26.8539 15.2091 26.9996 15.1803 27.1351 15.1235C27.2706 15.0667 27.3932 14.983 27.4954 14.8775C27.5977 14.7719 27.6775 14.6468 27.73 14.5095C27.7825 14.3723 27.8067 14.2258 27.801 14.079C27.8028 13.9356 27.7756 13.7934 27.7211 13.6608C27.6665 13.5281 27.5857 13.4079 27.4835 13.3073C27.3813 13.2067 27.2599 13.1278 27.1264 13.0754C26.993 13.0229 26.8503 12.9979 26.707 13.002H8.665C8.52045 12.9963 8.37624 13.02 8.24112 13.0717C8.106 13.1234 7.98277 13.2019 7.8789 13.3026C7.77503 13.4033 7.69268 13.524 7.63683 13.6575C7.58099 13.7909 7.55281 13.9343 7.554 14.079C7.54881 14.2271 7.57386 14.3748 7.62763 14.5129C7.68139 14.651 7.76274 14.7768 7.8667 14.8824C7.97067 14.9881 8.09508 15.0714 8.23233 15.1274C8.36958 15.1834 8.5168 15.2108 8.665 15.208ZM8.665 20.331H26.707C26.8503 20.3351 26.993 20.3101 27.1264 20.2576C27.2599 20.2052 27.3813 20.1262 27.4835 20.0257C27.5857 19.9251 27.6665 19.8048 27.7211 19.6722C27.7756 19.5396 27.8028 19.3974 27.801 19.254C27.8047 19.1077 27.7792 18.9621 27.726 18.8258C27.6728 18.6895 27.5929 18.5652 27.491 18.4602C27.3891 18.3551 27.2673 18.2715 27.1327 18.2141C26.998 18.1567 26.8533 18.1268 26.707 18.126H8.665C8.51715 18.1245 8.37051 18.1528 8.23384 18.2092C8.09717 18.2656 7.97328 18.349 7.86957 18.4544C7.76587 18.5598 7.68447 18.685 7.63025 18.8226C7.57603 18.9601 7.55009 19.1072 7.554 19.255C7.55294 19.3996 7.58122 19.5429 7.63713 19.6762C7.69304 19.8095 7.77541 19.9301 7.87927 20.0307C7.98312 20.1313 8.1063 20.2098 8.24136 20.2614C8.37641 20.313 8.52053 20.3367 8.665 20.331ZM8.665 25.454H20.056C20.1991 25.4576 20.3414 25.4324 20.4745 25.3797C20.6076 25.3271 20.7287 25.2481 20.8306 25.1475C20.9324 25.047 21.013 24.9269 21.0673 24.7945C21.1217 24.6621 21.1488 24.5201 21.147 24.377C21.1508 24.2315 21.1252 24.0868 21.0718 23.9514C21.0183 23.816 20.9382 23.6928 20.836 23.5891C20.7339 23.4854 20.612 23.4033 20.4774 23.3478C20.3429 23.2923 20.1985 23.2645 20.053 23.266H8.665C8.5182 23.2627 8.37226 23.2892 8.23599 23.3439C8.09972 23.3986 7.97593 23.4803 7.8721 23.5841C7.76828 23.6879 7.68656 23.8117 7.63189 23.948C7.57722 24.0843 7.55072 24.2302 7.554 24.377C7.55281 24.5217 7.58099 24.6651 7.63683 24.7985C7.69268 24.932 7.77503 25.0527 7.8789 25.1534C7.98277 25.2541 8.106 25.3326 8.24112 25.3843C8.37624 25.436 8.52045 25.4597 8.665 25.454Z" fill="#00A679"/>
</svg>
