<svg width="5" height="10" viewBox="0 0 5 10" fill="none" xmlns="http://www.w3.org/2000/svg">
<path fill-rule="evenodd" clip-rule="evenodd" d="M0.104897 0.112982C0.138064 0.0771683 0.177465 0.0487541 0.220844 0.0293668C0.264222 0.00997949 0.310725 0 0.35769 0C0.404654 0 0.451158 0.00997949 0.494536 0.0293668C0.537914 0.0487541 0.577315 0.0771683 0.610483 0.112982L4.8951 4.72783C4.92835 4.76355 4.95473 4.80599 4.97273 4.85271C4.99073 4.89943 5 4.94952 5 5.0001C5 5.05068 4.99073 5.10077 4.97273 5.14749C4.95473 5.19422 4.92835 5.23665 4.8951 5.27238L0.610483 9.88722C0.543438 9.95943 0.452505 10 0.35769 10C0.262874 10 0.171942 9.95943 0.104897 9.88722C0.0378524 9.81501 0.000186941 9.71707 0.000186941 9.61494C0.000186941 9.51282 0.0378524 9.41488 0.104897 9.34267L4.13744 5.0001L0.104897 0.657534C0.0716462 0.62181 0.0452651 0.579373 0.0272651 0.532651C0.00926505 0.485929 0 0.435842 0 0.385258C0 0.334673 0.00926505 0.284586 0.0272651 0.237865C0.0452651 0.191143 0.0716462 0.148705 0.104897 0.112982Z" fill="#484848"/>
</svg>
